<?xml version="1.0" encoding="utf-8"?>
<!-- Generator: Adobe Illustrator 17.1.0, SVG Export Plug-In . SVG Version: 6.00 Build 0)  -->
<!DOCTYPE svg PUBLIC "-//W3C//DTD SVG 1.1//EN" "http://www.w3.org/Graphics/SVG/1.1/DTD/svg11.dtd">
<svg version="1.1" id="brands" xmlns="http://www.w3.org/2000/svg" xmlns:xlink="http://www.w3.org/1999/xlink" x="0px" y="0px"
	 viewBox="0 192 320 800" enable-background="new 0 192 320 800" xml:space="preserve">
<g id="Tempest_1_">
	<g id="Symbol">
		<path fill="#981D25" d="M24.1,688.4L93.5,707l0.2-0.6l-69.4-18.6C24.2,687.9,24.2,688.2,24.1,688.4z"/>
		<path fill="#981D25" d="M21.4,687.6c0-0.2,0.1-0.5,0.1-0.7l-21.3-5.7L0,681.8L21.4,687.6z"/>
		<path fill="#981D25" d="M25.2,684.2l69.3,18.6l0.3-1l-69.4-18.6C25.4,683.5,25.3,683.8,25.2,684.2z"/>
		<path fill="#981D25" d="M21.9,682.7c0-0.2,0.1-0.3,0.1-0.5l-20.6-5.5l-0.3,1l20.6,5.5C21.9,683.1,21.9,682.9,21.9,682.7z"/>
		<path fill="#981D25" d="M26.2,679.9l69.5,18.6l0.3-1.3l-69.7-18.7C26.3,679,26.2,679.5,26.2,679.9z"/>
		<path fill="#981D25" d="M23.2,677.7l-20.5-5.5l-0.3,1.3l20.5,5.5C23,678.6,23.1,678.2,23.2,677.7z"/>
		<path fill="#981D25" d="M27,675.6l69.9,18.7l0.4-1.6L27.4,674C27.2,674.6,27.1,675.1,27,675.6z"/>
		<path fill="#981D25" d="M24.6,673.3l-20.7-5.5l-0.4,1.6l20.6,5.5C24.2,674.3,24.4,673.8,24.6,673.3z"/>
		<path fill="#981D25" d="M60.2,677.9l-1.5-0.4c0,0.5-0.2,0.9-1.2,0.5c0.4-0.2,0.5-0.5,0.5-0.7l-29.2-7.8c-0.2,0.7-0.5,1.3-0.6,1.9
			l69.9,18.7l0.5-2l-36.7-9.8C61.2,678.7,60.6,678.4,60.2,677.9z"/>
		<path fill="#981D25" d="M26.3,668.9l-21.2-5.7l-0.5,2l20.9,5.6C25.8,670.1,26,669.5,26.3,668.9z"/>
		<path fill="#981D25" d="M28.1,664.5l-21.8-5.8L5.7,661l21.5,5.8C27.6,666,27.9,665.2,28.1,664.5z"/>
		<path fill="#981D25" d="M55,673.5c-0.3,0.3-0.5,0.5-0.7,0.5l1,0.3C55.2,674,55.1,673.7,55,673.5z"/>
		<path fill="#981D25" d="M52.5,672.1c-0.6,0,0,0.5-0.3,1.1c-0.7-0.6-0.8-1.5-0.9-2.4l-0.9-0.2c0,0.8,0.4,1.7,0.7,2
			c-0.6,0-1.1-1-1.5-2.2l-19.3-5.2c-0.2,0.5-0.4,0.9-0.6,1.4c-0.1,0.3-0.2,0.5-0.3,0.8l24.2,6.5C53.3,673.4,52.9,672.5,52.5,672.1z"
			/>
		<path fill="#981D25" d="M57.4,673.3c1.8-1.1,1.1,1.7,3,2.3h0.1c0.1,0,0.2,0.1,0.4,0.1l0,0L99.2,686l0.6-2.3l-41.7-11.2
			C57.9,672.8,57.6,672.9,57.4,673.3z"/>
		<path fill="#981D25" d="M55.9,669.9l44.3,11.9l0.7-2.6l-46.5-12.5C55.1,667.7,55.6,668.8,55.9,669.9z"/>
		<path fill="#981D25" d="M25.5,660.2c0.5-0.7,0.3-1,0.1-1.2l-18.1-4.9l-0.7,2.6l18.6,5C25.3,661.3,25.3,660.8,25.5,660.2z"/>
		<path fill="#981D25" d="M49.5,668.1c-0.6-0.2-1.3-0.3-1.9-0.5c0.2-0.9,0.9-0.9,0.9-2.2c-0.8,0.1-0.7,1.7-1.6,1.6
			c-1.3,0,0.2-0.9,0-1.6c0-0.2-0.6,0.5-0.6,0.7c-0.1-0.6-0.1-1.1-0.1-1.6L32,660.7c-0.3,0.8-0.6,1.7-0.9,2.5L49.5,668.1
			C49.5,668.2,49.5,668.1,49.5,668.1z"/>
		<path fill="#981D25" d="M46.3,661.7c-0.7,0-0.6,0.5-0.5,1l0.5,0.1C46.3,662.5,46.3,662.1,46.3,661.7z"/>
		<path fill="#981D25" d="M32.6,659.2l9.6,2.6c-0.2-1.1-0.4-2.1-0.3-3.2l-8.3-2.2C33.2,657.2,33,658.2,32.6,659.2z"/>
		<path fill="#981D25" d="M42.9,661.9l1.9,0.5c-0.3-0.8-0.8-1.2-0.3-3.1C43.8,659.8,43.4,660.9,42.9,661.9z"/>
		<path fill="#981D25" d="M70.2,668.4c-1.3,0-0.2-1.4-0.8-1.8c-0.7,0.8-0.8,0.1-1.3,0.5c-0.3-1-0.2-1.5-1.7-1.2
			c0.1-0.2,0.1-0.5,0.2-0.7l-16.8-4.5c0.9,1.4,2,2.7,3,3.9l48.5,13l0.8-2.9l-31.8-8.5C70.5,666.8,70.6,667.6,70.2,668.4z"/>
		<path fill="#981D25" d="M25.8,657.1c-0.1-0.9-0.6,0.3-1-0.7c0.2,0.6-0.2-2.6-0.2-2.5v-0.1l-0.5-0.1c0,0.2,0,0.3,0,0.5
			c-0.1-0.3-0.3-0.5-0.5-0.6l-1.8-0.5c-0.1,0-0.2,0.1-0.3,0.1c-0.3,0.5,0,2.1-0.8,1.8c0.2-0.7,0.3-1.5,0.6-2l-12.5-3.4L8,652.5
			l17.6,4.7C25.7,657.1,25.8,657,25.8,657.1z"/>
		<path fill="#981D25" d="M29.3,655.9c0.2-0.3,0.2-0.6,0.1-0.8l-0.3-0.1l0,0C28.9,655.6,28.8,656.5,29.3,655.9z"/>
		<path fill="#981D25" d="M67,663.6c0-0.8-0.4-0.2-0.8,0l0.7,0.2C67,663.8,67,663.7,67,663.6z"/>
		<path fill="#981D25" d="M31.7,652.5c-0.3-0.6-0.1-1.1,0.4-1.5l-0.9-0.3c0,0.2,0.1,0.3,0.1,0.4C31.3,651.6,30.3,653.5,31.7,652.5z"
			/>
		<path fill="#981D25" d="M72.9,662l-0.7-0.2c0.1,1.1-0.2,2.1-0.7,2.9c-1.7-0.3-1.6-1.8-2.1-2.9c-0.6,0.9-0.1,1.8,0.3,2.8l32.7,8.7
			l0.9-3.3L74,662.2C73.5,662.6,73.2,662.4,72.9,662z"/>
		<path fill="#981D25" d="M23.4,648.9c-1-0.2-1,1.3-1.6,1.6c-0.1-0.4,0.4-1.1,0.9-2L10,645.1l-0.9,3.3l13.1,3.5
			C22,650.6,22.9,650.1,23.4,648.9z"/>
		<path fill="#981D25" d="M30.1,654l0.8,0.2c0.3-1.5-0.6-2.3-1.2-3.4C30,651.9,30.2,653.1,30.1,654z"/>
		<path fill="#981D25" d="M24.3,652.4l1,0.3c0.2-0.3,0.5-0.6,0.7-1.2C24.9,651.3,24.5,651.7,24.3,652.4z"/>
		<path fill="#981D25" d="M58.2,658l-10.3-2.8c0,0.2,0,0.5-0.2,0.8c1-0.5,1.2,1.4,2.4,1.8c-1.3,0.3-0.6,0.9,0.2,1.5l13.4,3.6
			c0.1-0.7,0.5-2,0.6-2.4c-0.7-0.1-0.5,1.2-1.1,1.3c-0.3-0.6-0.1-1.5,0.2-2.5l-1.1-0.3c-0.2,0.4-0.4,0.3-0.4-0.1l-0.3-0.1
			c0,0.2-0.1,0.4-0.1,0.5c-0.8,0-0.9-0.3-0.9-0.8l-1.4-0.4c-0.2,0.5-0.3,1-0.6,1.3C58.5,659,58.3,658.5,58.2,658z"/>
		<path fill="#981D25" d="M65.5,663.5c0.5-1.3,0.2-2.2,0.4-3.4l-0.6-0.2c-0.4,0.8-0.7,2-1.2,3.2L65.5,663.5z"/>
		<path fill="#981D25" d="M41.2,657c-0.2-0.9,0.4-2.7,1.1-3.2l-6.4-1.7c-0.6,1-1.2,2-1.8,3L41.2,657z"/>
		<path fill="#981D25" d="M42.5,656c-0.6-0.1-0.9,0.3-1.1,1l0.7,0.2C42.2,656.8,42.3,656.4,42.5,656z"/>
		<path fill="#981D25" d="M62,658L62,658L62,658L62,658z"/>
		<path fill="#981D25" d="M60.1,657.5c-0.1,0-0.2-0.1-0.3-0.1L60.1,657.5L60.1,657.5z"/>
		<path fill="#981D25" d="M43.6,651.4c0.7,0.2,0.9-0.3,1.6,0c-0.7,1.1,0.6,1.8,1.7,2.5l11.2,3c0-0.4,0.1-0.8,0.4-1.1
			c-0.9-1.5-2-2.2-2.5-3.3l-0.6-0.2c0,0.4-0.1,0.7-0.3,1c-0.2-0.4-0.4-0.8-0.5-1.3l-1.1-0.3c-0.2,0.2-0.4,0.4-0.5,0.6
			c0.1-0.4,0.1-0.6,0.1-0.8l-1.8-0.5l0,0c-0.3,0.6-0.4,0.3-0.4-0.1l-0.9-0.2c-0.2,0.2-0.3,0.4-0.4,0.7c-0.6-0.3-0.9-0.6-1.1-1.1
			l-0.8-0.2c-0.1,0-0.1,0.1-0.2,0.1c-0.1,0-0.2-0.1-0.3-0.2l-4.9-1.3C42.8,649.7,43.3,650.5,43.6,651.4z"/>
		<path fill="#981D25" d="M63.9,656.8c-0.6-0.1-0.6,1-0.8,1.5l0.5,0.1C63.7,657.9,63.8,657.3,63.9,656.8z"/>
		<path fill="#981D25" d="M62.4,658.1L62.4,658.1L62.4,658.1L62.4,658.1z"/>
		<path fill="#981D25" d="M34.3,648.8c0.4-1-1.3-2.4-1.5-2C33.6,647.2,33.4,648.3,34.3,648.8z"/>
		<path fill="#981D25" d="M24.3,645.5c0.1-0.3,0.3-0.8,0.7-1.2l-13.8-3.7l-1,3.6l13,3.5C23.7,646.9,24.1,646.1,24.3,645.5z"/>
		<path fill="#981D25" d="M36.5,651.2l4.7,1.3c0.3-0.4,1.5-0.3,1.6-0.8c0.2-1.1-1.1-2-1.9-3.1l-1.4-0.4
			C38.3,648.7,37.4,649.8,36.5,651.2z"/>
		<path fill="#981D25" d="M31.5,648.5c0.7,0.3,0.5,1,0.7,1.6l0.7,0.2c0.4-0.4,0.7-0.7,0.9-1.2c-0.9-0.3-1.1-2.7-1.9-2.1
			C32.6,647.7,32.3,648.2,31.5,648.5z"/>
		<path fill="#981D25" d="M31.9,650c-0.8-0.8-0.8-2.1-1.6-3c-0.1,0.7,0.2,1.7,0.5,2.7L31.9,650z"/>
		<path fill="#981D25" d="M91.7,663.3c-0.1-0.6-0.5-1-1-1.5l-9.4-2.5c0,0.1,0,0.1,0,0.2c-0.3,0.1-0.5-0.1-0.7-0.4L69.1,656
			c1,2,4.2,3.8,5.7,5.4l28.9,7.7l1-3.6l-12.6-3.4C91.8,662.5,91.6,662.9,91.7,663.3z"/>
		<path fill="#981D25" d="M72.2,660.8c-0.1-0.2-0.3-0.3-0.4-0.4c0.1,0.1,0.1,0.2,0.1,0.3L72.2,660.8z"/>
		<path fill="#981D25" d="M66.2,659c-0.1,0-0.2,0.1-0.2,0.1L66.2,659C66.1,659.1,66.1,659,66.2,659z"/>
		<path fill="#981D25" d="M48.8,648.3c-0.6,0-0.6,0.8-0.8,1.5l0.4,0.1C48.4,649.4,48.5,648.9,48.8,648.3z"/>
		<path fill="#981D25" d="M46.4,645.2l-1.2-0.3c-0.1,0.8,0.7,1,0.8,1.6C46,645.4,46.3,645.9,46.4,645.2z"/>
		<path fill="#981D25" d="M41.7,648.1l5.2,1.4c-0.1-1.4,1-3.6-0.8-3c-0.7,1.4-1.5-0.4-2.2-0.9c-1.1,0.4-2,0.9-2.8,1.7
			C41.2,647.5,41.4,647.8,41.7,648.1z"/>
		<path fill="#981D25" d="M29.5,640.6L12.4,636l-1,3.9l14.1,3.8C26.4,642.6,27.9,641.4,29.5,640.6z"/>
		<path fill="#981D25" d="M55.4,651.8l0.5,0.1c-0.1-0.5-0.1-1.1,0.1-1.8C55.2,650.4,55.3,651,55.4,651.8z"/>
		<path fill="#981D25" d="M54.6,650.6c-0.2,0.3-0.5,0.5-0.7,0.8l0.6,0.2C54.5,651.2,54.5,650.9,54.6,650.6z"/>
		<path fill="#981D25" d="M71.8,656.2c-0.7-1.1-1.1-2.3-1.3-3.7c-0.6-0.3-0.3,1.4,0,1.6c-0.4,1.3-1-0.3-0.9-1
			c-0.8,0.8-1,1.6-0.9,2.3L71.8,656.2z"/>
		<path fill="#981D25" d="M72.7,655c-0.5,0-0.5,0.7-0.7,1.2l1.1,0.3C72.8,656.1,72.9,655.5,72.7,655z"/>
		<path fill="#981D25" d="M92.2,660.6c0.2,0.4,0.2,0.8,0.1,1.1l12.4,3.3l1.1-3.9l-22.2-5.9C86.5,656.9,89.3,658.8,92.2,660.6z"/>
		<path fill="#981D25" d="M51.1,650.1c-0.2,0.1-0.4,0.3-0.6,0.4l0.4,0.1C51,650.4,51.1,650.2,51.1,650.1z"/>
		<path fill="#981D25" d="M87.9,660.5c-0.5-0.4-1-1.1-1.3-1.6c-1.6,0.6-3-1.3-3.9-2.2c-0.8,1.1,1.2,0.6,0.4,1.7
			c-0.2-0.3-0.9-0.8-1.1-0.3c0.1-0.5-0.6-1.5-1.4-2.4c-0.8,0.6-0.1,1.8,0.3,2.9L87.9,660.5z"/>
		<path fill="#981D25" d="M52.1,649.5c-0.6-0.2-0.6,0.5-0.7,1.2l0.4,0.1C51.8,650.3,52,649.7,52.1,649.5z"/>
		<path fill="#981D25" d="M89.1,660.2c-0.1,0.3-0.1,0.4-0.3,0.5l0.9,0.2C89.5,660.7,89.3,660.5,89.1,660.2z"/>
		<path fill="#981D25" d="M80,658.4c-0.4-0.8-0.8-1.7-1.1-2.2c-0.6,0,0,0.5-0.3,1.1c-1-1.1-1.2-2.7-2.3-3.8
			c-0.5,0.3,0.9,2.3,0.3,3.7c-0.6-1.2-2.3-1.8-2.4-3.4c-0.8,0.3,0.3,2-0.6,2.9L80,658.4z"/>
		<path fill="#981D25" d="M52.8,649.7c-0.5,0-0.5,0.6-0.7,1.2l0.6,0.2C52.7,650.8,52.7,650.5,52.8,649.7z"/>
		<path fill="#981D25" d="M66,646.6c6,2.1,11.2,4.8,16.1,7.7l23.7,6.4l1-3.9l-47-12.6C61.5,645,63.5,645.7,66,646.6z"/>
		<path fill="#981D25" d="M31.3,639.9c2.3-0.6,2.3,0,3.8,0.7c0-0.3,0-0.5,0-0.7c0.1-0.5,0-1.4-0.1-2.4l-21.4-5.7l-1.1,3.9l17.6,4.7
			C30.5,640.1,30.9,640,31.3,639.9z"/>
		<path fill="#981D25" d="M56.3,642.2c0.2-0.9-0.4-2.9-1-2.3C56,640.4,55.3,641.8,56.3,642.2z"/>
		<path fill="#981D25" d="M73.8,644.1c-0.1-0.3-0.1-0.6-0.1-0.9l-1.3-0.4c-0.1,0.2-0.2,0.3-0.4,0.5c-0.2-0.2-0.3-0.4-0.3-0.6
			l-7.9-2.1c0.1,0.2,0.1,0.5-0.1,0.7c-0.4-0.2-0.5-0.5-0.6-0.9l-0.3-0.1c0,0.2,0,0.5-0.2,0.7c-0.1-0.3-0.2-0.6-0.4-0.9l-0.3-0.1
			c0.1,0.4,0,0.7-0.2,1.1c-0.6-0.4-0.9-0.9-1.2-1.5l-1.4-0.4c0,0.7,0,1.4,0.2,2.1c-0.4,0.6-0.7-0.1-1.1-0.3c-0.1,0.5-0.2,1-0.4,1.5
			c0.3,0.3,0.6,0.5,0.9,0.8l48.4,13l1-3.9l-34-9.1C74,643.6,73.9,643.9,73.8,644.1z"/>
		<path fill="#981D25" d="M38,633.7c-0.5-0.1-1,0-1.8-0.1c0.4,0.7,0.7,1.5,1,2.3C37.5,635.2,37.7,634.4,38,633.7z"/>
		<path fill="#981D25" d="M34.1,632.5l-19.3-5.2l-1,3.9l21.2,5.7C34.7,635.5,34.3,633.9,34.1,632.5z"/>
		<path fill="#981D25" d="M59.2,638.8l1.1,0.3c-0.3-0.7-0.6-1.5-1-2.2C59.3,637.3,59.2,638,59.2,638.8z"/>
		<path fill="#981D25" d="M84.9,642.8c-0.9,0.4-4.3-0.9-3.5-2.3l-2.6-0.7c0.2,0.3,0.4,0.8,0.8,1.5c0.6,1.3,1.8,1.7,1.5,2.2
			c0,0-0.5,0.6-1.1,0.2c-1.2-1.8-0.8-2.7-2.5-3.5c-0.5,0-0.5,0.9-0.7,1.4c-0.4-0.6-0.5-1.5-0.4-2.4l-0.7-0.2
			c-0.1,0.6-0.1,1.3-0.3,1.9c-0.8-1.1-1,0.5-1.3,1.9l34,9.1l1-3.9l-26.7-7.2C83.3,641.5,84.1,642.2,84.9,642.8z"/>
		<path fill="#981D25" d="M74.2,638.6l-0.6-0.2c-0.2,1.4-0.2,2.7-0.9,3.9l1.1,0.3C73.7,641.4,73.9,640.1,74.2,638.6z"/>
		<path fill="#981D25" d="M65.5,636.3c0,0.1-0.1,0.1-0.1,0.3c0.1,1.6,0.1,2.4,0.6,3.6c0.1,0.9-1.8-1-0.9,0.2l0,0l6.5,1.7
			c0-1,0.4-2.3-0.2-3c-0.7,1.8-2.2-0.4-3.3-1.2c-0.2,0.9,0.4,1.3-0.2,2.4c-1.2-1-1.1-2.6-1.8-3.8L65.5,636.3z"/>
		<path fill="#981D25" d="M39.6,631.8C39.6,631.8,39.6,631.9,39.6,631.8L39.6,631.8C39.6,631.9,39.6,631.8,39.6,631.8z"/>
		<path fill="#981D25" d="M61.8,639.4l0.3,0.1c-0.2-0.6-0.4-1.2-0.7-1.7C60.8,638.1,61.4,638.7,61.8,639.4z"/>
		<path fill="#981D25" d="M38.4,633.2L38.4,633.2c0.4-0.2,0.6-0.5,0.9-0.9c-0.7-0.4-1.4-0.7-2.1-0.4
			C37.4,632.3,37.9,632.8,38.4,633.2z"/>
		<path fill="#981D25" d="M62.6,639.7l0.4,0.1c0-0.1-0.1-0.3-0.1-0.4C62.6,639.3,62.5,639.5,62.6,639.7z"/>
		<path fill="#981D25" d="M64,638.5c-0.8,0.3-0.6,0.9-0.4,1.5l0.8,0.2C64.1,639.7,63.8,639,64,638.5z"/>
		<path fill="#981D25" d="M33.9,632c0-1.2-0.1-2.7-0.2-4.2l-17.8-4.8l-1,3.9L33.9,632C34,632,34,632,33.9,632z"/>
		<path fill="#981D25" d="M40.3,629.5L40.3,629.5l-2.2-0.6c-0.2,0-0.3,0.1-0.5,0.1c1.2,0.5,1.7,1.4,0.3,1.4c0.3,0.3,1.2,0.6,1.9,0.8
			C40,630.8,40.1,630.2,40.3,629.5z"/>
		<path fill="#981D25" d="M37.2,629.6C37.9,630.1,34.8,627.8,37.2,629.6L37.2,629.6z"/>
		<path fill="#981D25" d="M33.5,623.1L17,618.7l-1,3.9l17.7,4.7C33.6,625.9,33.5,624.5,33.5,623.1z"/>
		<path fill="#981D25" d="M76.6,636c-0.6,0.8-0.8,1.7-0.8,2.6l0.7,0.2C76.6,637.8,76.8,636.8,76.6,636z"/>
		<path fill="#981D25" d="M80,639.7c-0.6-0.6-1-1.4-1.3-2.4c-0.5,0-0.5,0.9-0.7,1.4c0.2,0.2,0.3,0.4,0.5,0.6L80,639.7z"/>
		<path fill="#981D25" d="M81.8,640.2l1.4,0.4c-0.8-0.6-1.8-1.4-2.5-1.6C81,639.4,81.4,639.8,81.8,640.2z"/>
		<path fill="#981D25" d="M36.5,626.2c1.1,0.5,1.6,1.7,1.7,2.1c0.8,0.1,1.6,0.4,2.2,0.8c0.2-0.8,0.4-1.7,0.5-2.7
			c0.1-0.5,0.2-0.9,0.3-1.3l-1.9-0.5c-0.1,0-0.3,0-0.5-0.1c0,0,0,0,0-0.1l-1.8-0.5l0,0c1.5,0.3,3,2.4,3.6,2.9
			C39.3,626.3,37.7,626,36.5,626.2z"/>
		<path fill="#981D25" d="M81.5,635.9l-0.5-0.1c-0.2,0-0.4-0.1-0.6-0.1c0.5,1,2.7,0.9,3.1,2c0.9,0.9-0.9-0.6-1.9-0.5
			c0.3,0.9,1.8,1,2.4,1.8c-1.1,0.8-2.2-1.2-3.7-1.3c1.1,1.2,2.8,2,4,3.2l25.1,6.7l1-3.9l-25.5-6.8C84,637.5,82.8,636.3,81.5,635.9z"
			/>
		<path fill="#981D25" d="M74.9,634.7c-0.8,1-1.1,2.1-1.3,3.2l0.7,0.2C74.5,637.1,74.7,635.9,74.9,634.7z"/>
		<path fill="#981D25" d="M38,623c0.4,0.6,1.5,0.9,2.2,1.4l1.2,0.3c0.3-1.4,0.8-2.6,1.3-3.8l-3.3-0.9c-0.2,0.1-0.3,0.2-0.3,0.4
			c0.4,0.2,0.1,0.4-0.2,0.6c0.4,0.1,2.2,0.6,1.1,0.7c-1.4,0-0.5,0.1-2,0.1C39.2,622,38.7,623,38,623z"/>
		<path fill="#981D25" d="M38.3,623.9l0.6,0.2c-0.1-0.1-0.2-0.2-0.4-0.2C38.4,623.9,38.3,623.9,38.3,623.9z"/>
		<path fill="#981D25" d="M80.8,632.2c0.7,1.2,1.3,2.4,3.3,2.8c1.1,0.8-1.4,0-2-0.1c0.6,0.4,1,0.7,1.4,1l27.1,7.3l1-3.9l-30.7-8.2
			C81.5,631.7,82,632.4,80.8,632.2z"/>
		<path fill="#981D25" d="M34.8,618.8l-16.5-4.4l-1,3.9l16.4,4.4C33.7,621.1,34,619.8,34.8,618.8z"/>
		<path fill="#981D25" d="M38.6,617c0.4,0.9-1.1,1.7-1.4,1.6c0.3,0.6,3.3,0.4,3.6,1.4l0,0l2,0.5c0.6-1.2,1.2-2.4,2-3.6l-25.4-6.8
			l-1.1,3.9l16.7,4.5C35.9,617.6,37,617,38.6,617z"/>
		<path fill="#981D25" d="M74.9,625.2c1.6,1.1,4,1.9,5.2,3.3c-0.6,1-0.8-0.7-1.9-0.5c0.9,1,2.1,1.8,3.4,2.4
			c-0.1,0.2-0.3,0.2-0.5,0.2l30.6,8.2l1-3.9l-35.5-9.5C76.9,626.1,75.6,625.2,74.9,625.2z"/>
		<path fill="#981D25" d="M47.3,612.9L47.3,612.9l-26.7-7.3l-1,3.9l25.5,6.8C45.7,615.3,46.4,614.2,47.3,612.9z"/>
		<path fill="#981D25" d="M74.9,620.4c-0.3,0.8-1.7-0.3-2.1,0.3c-0.2,0.9,1.1-0.3,1.9,0.5c-0.1,0.4-0.5,0.2-0.8,0.2
			c1.8,1.1,1,2.2,2.9,2.7c1.1,0.8-1.4,0-2-0.1c0,0.2,0,0.3,0.2,0.4l1.5,0.4c0.4,0.1,0.7,0.1,0.9,0.2l35.5,9.5l1-3.9L70.5,619
			C71.5,620.3,73,620,74.9,620.4z"/>
		<path fill="#981D25" d="M51.5,609.2l-29.7-8l-1,3.9l27,7.2C49.2,610.5,50.4,609.7,51.5,609.2z"/>
		<path fill="#981D25" d="M58.4,612.7c0.2-0.6,0.6-1,1-1.3l-1.7-0.4C57.6,611.7,58,612.5,58.4,612.7z"/>
		<path fill="#981D25" d="M60.9,613.6c1.3-0.4,3.2-1,5.8-0.3l-5.8-1.5c-0.5,0.3-1.1,0.5-1.6,0.4C59.1,613.4,60.1,613.8,60.9,613.6z"
			/>
		<path fill="#981D25" d="M68.6,614.9c-0.8,0-0.8-0.8-1.6,0c0.8,1.4,1.6,0.9,2.9,1.1c-0.1,0.9-1.2,0.2-1.4,0.9
			c0.1,0.6,1.9-0.4,2.5-0.6c-0.8,1.1,0.1,1.6,1.9,2.1c-0.3,0.3-1.2,0.3-0.6,0.7l0,0l41.7,11.2l1-3.9l-48.4-13
			C67.8,614.1,69.1,613.7,68.6,614.9z"/>
		<path fill="#981D25" d="M55.2,607.9c0.4,0.1,0.2,0.5,0.2,0.9c0.8,0.1,1-0.8,1.5-1.2c-0.3,2.4,0.7-0.3,2.4-0.2
			c-0.2,1.7-1.8,1.4-2.3,2.6c0.6,0.2,2.2-1.2,3.1-1.2c0.7,1.4-1.3,1.2-1.9,1.1c-0.2,0.2-0.3,0.4-0.4,0.6l2.2,0.6
			c0.9-0.3,1.9-0.5,2.7-1c0.3-0.3,0.4-0.5,0.3-0.2c-0.1,0.1-0.2,0.2-0.3,0.2c-0.3,0.3-0.8,0.9-1.3,1.3l53.8,14.4l1-3.9l-93.4-25
			l-1,3.9l30.4,8.1C53.3,608.7,54.2,608.6,55.2,607.9z"/>
		<polygon fill="#981D25" points="117.4,617.6 94.1,611.3 24.1,592.6 23,596.5 116.4,621.5 		"/>
	</g>
	<g id="Logotype">
		<path fill="#981D25" d="M247.4,691.4c0,0.3,0.1,0.6,0.3,0.8c0.2,0.2,0.4,0.3,0.8,0.3c0.3,0,0.6-0.1,0.7-0.2
			c0.2-0.2,0.3-0.4,0.3-0.7c0-0.2-0.1-0.4-0.2-0.6c-0.1-0.1-0.3-0.2-0.5-0.3l-1.4-0.5c-0.5-0.2-1-0.5-1.2-0.8
			c-0.3-0.3-0.4-0.8-0.4-1.3c0-0.3,0-0.6,0.2-0.9c0.1-0.3,0.3-0.5,0.5-0.7c0.2-0.2,0.5-0.4,0.9-0.5c0.4-0.1,0.8-0.2,1.3-0.2
			c0.9,0,1.6,0.2,2,0.6c0.4,0.4,0.6,0.9,0.6,1.6v0.3h-1.8c0-0.4-0.1-0.7-0.2-0.9c-0.1-0.2-0.4-0.3-0.7-0.3c-0.2,0-0.5,0.1-0.7,0.2
			c-0.2,0.1-0.3,0.3-0.3,0.6c0,0.2,0.1,0.4,0.2,0.5c0.1,0.2,0.4,0.3,0.7,0.4l1.2,0.4c0.6,0.2,1.1,0.5,1.3,0.8
			c0.3,0.3,0.4,0.8,0.4,1.4c0,0.4-0.1,0.8-0.2,1.1c-0.1,0.3-0.3,0.6-0.6,0.8c-0.3,0.2-0.6,0.3-0.9,0.4c-0.4,0.1-0.7,0.1-1.2,0.1
			c-0.6,0-1-0.1-1.4-0.2c-0.4-0.1-0.7-0.3-0.9-0.5s-0.4-0.5-0.5-0.8s-0.1-0.6-0.1-1V691h1.8L247.4,691.4L247.4,691.4L247.4,691.4z"
			/>
		<path fill="#981D25" d="M253.8,690.8c0,0.2,0,0.5,0.1,0.7c0,0.2,0.1,0.4,0.2,0.6c0.1,0.2,0.2,0.3,0.3,0.4c0.1,0.1,0.3,0.1,0.5,0.1
			c0.3,0,0.6-0.1,0.7-0.4c0.2-0.2,0.3-0.6,0.3-1.1h1.8c0,0.9-0.3,1.6-0.7,2.1c-0.4,0.5-1.1,0.7-2.1,0.7c-0.7,0-1.3-0.1-1.7-0.4
			c-0.4-0.2-0.7-0.6-0.9-0.9c-0.2-0.4-0.3-0.8-0.4-1.3c0-0.5-0.1-1-0.1-1.5s0-1,0.1-1.5s0.2-0.9,0.4-1.3s0.5-0.7,0.9-0.9
			c0.4-0.2,0.9-0.3,1.6-0.3c0.6,0,1,0.1,1.4,0.3c0.4,0.2,0.7,0.4,0.9,0.8c0.2,0.3,0.4,0.8,0.4,1.2c0.1,0.5,0.1,1,0.1,1.6v0.4h-3.9
			L253.8,690.8L253.8,690.8z M255.8,688.2c0-0.2-0.1-0.4-0.2-0.6s-0.2-0.3-0.3-0.4c-0.1-0.1-0.3-0.1-0.5-0.1c-0.2,0-0.4,0-0.5,0.1
			c-0.1,0.1-0.2,0.2-0.3,0.4c-0.1,0.1-0.1,0.3-0.2,0.5c0,0.2-0.1,0.4-0.1,0.5v0.3h2C255.9,688.7,255.8,688.4,255.8,688.2z"/>
		<path fill="#981D25" d="M262.3,688.2c0-0.2-0.1-0.3-0.1-0.5c-0.1-0.1-0.1-0.3-0.3-0.4c-0.1-0.1-0.3-0.1-0.5-0.1s-0.4,0.1-0.6,0.2
			c-0.2,0.1-0.3,0.3-0.3,0.5c-0.1,0.2-0.1,0.5-0.2,0.8c0,0.3,0,0.7,0,1.2s0,0.9,0,1.2c0,0.3,0.1,0.6,0.2,0.8
			c0.1,0.2,0.2,0.4,0.3,0.5c0.1,0.1,0.3,0.1,0.5,0.1c0.3,0,0.6-0.1,0.7-0.4c0.2-0.3,0.2-0.7,0.2-1.4h1.9c0,1-0.2,1.8-0.7,2.3
			c-0.5,0.5-1.2,0.8-2.3,0.8c-0.5,0-0.9-0.1-1.3-0.2c-0.4-0.1-0.7-0.3-0.9-0.6c-0.2-0.3-0.4-0.7-0.6-1.2c-0.1-0.5-0.2-1.2-0.2-1.9
			c0-0.8,0.1-1.5,0.2-2c0.1-0.5,0.4-0.9,0.6-1.2c0.3-0.3,0.6-0.5,1-0.7c0.4-0.1,0.8-0.2,1.3-0.2c0.9,0,1.6,0.3,2.1,0.8
			c0.5,0.5,0.7,1.3,0.7,2.2h-1.9C262.4,688.6,262.4,688.4,262.3,688.2z"/>
		<path fill="#981D25" d="M269.1,692.8c-0.2,0.4-0.5,0.7-0.8,0.8c-0.3,0.2-0.7,0.2-1.2,0.2c-0.6,0-1.1-0.2-1.5-0.5
			c-0.3-0.3-0.5-0.9-0.5-1.7v-5.7h2v5.3c0,0.4,0.1,0.7,0.2,0.8c0.1,0.2,0.4,0.2,0.6,0.2c0.7,0,1-0.4,1-1.3v-5.1h2v7.7H269
			L269.1,692.8L269.1,692.8L269.1,692.8z"/>
		<path fill="#981D25" d="M274.1,686v1l0,0c0.2-0.4,0.4-0.7,0.7-0.9c0.3-0.2,0.6-0.3,1.1-0.3c0.1,0,0.1,0,0.2,0c0.1,0,0.1,0,0.2,0
			v1.9c-0.1,0-0.2,0-0.3,0s-0.2,0-0.3,0c-0.2,0-0.3,0-0.5,0.1c-0.2,0.1-0.3,0.1-0.5,0.2c-0.1,0.1-0.3,0.3-0.3,0.4
			c-0.1,0.2-0.1,0.4-0.1,0.7v4.6h-2V686L274.1,686L274.1,686z"/>
		<path fill="#981D25" d="M278.9,683.3v1.7h-2v-1.7H278.9z M278.9,686v7.7h-2V686H278.9z"/>
		<path fill="#981D25" d="M282.6,683.8v2.2h1.1v1.3h-1.1v4.2c0,0.3,0,0.5,0.1,0.7c0.1,0.1,0.3,0.2,0.6,0.2c0.1,0,0.2,0,0.2,0
			c0.1,0,0.1,0,0.2,0v1.4c-0.2,0-0.4,0-0.6,0c-0.2,0-0.4,0-0.7,0c-0.4,0-0.7,0-0.9-0.1c-0.2-0.1-0.4-0.2-0.6-0.3
			c-0.1-0.2-0.2-0.4-0.3-0.6c-0.1-0.3-0.1-0.6-0.1-1v-4.4h-1v-1.3h1v-2.2L282.6,683.8L282.6,683.8z"/>
		<path fill="#981D25" d="M284.8,694.7c0.4,0,0.6-0.1,0.8-0.3c0.2-0.2,0.3-0.4,0.3-0.8l-2.2-7.7h2.1l1.2,5.3l0,0l1-5.3h2l-1.9,7.2
			c-0.2,0.6-0.3,1.2-0.5,1.6c-0.2,0.4-0.3,0.7-0.6,0.9c-0.2,0.2-0.5,0.4-0.8,0.4c-0.3,0.1-0.7,0.1-1.1,0.1h-0.8v-1.5
			C284.5,694.7,284.6,694.7,284.8,694.7z"/>
		<path fill="#981D25" d="M228,696.3v1.7h-2v-1.7H228z M228,698.9v7.7h-2v-7.7H228z"/>
		<path fill="#981D25" d="M231.2,698.9v0.9l0,0c0.2-0.4,0.5-0.7,0.8-0.8c0.3-0.2,0.7-0.3,1.1-0.3c0.6,0,1.1,0.2,1.5,0.5
			c0.3,0.3,0.5,0.9,0.5,1.7v5.7h-2v-5.3c0-0.4-0.1-0.7-0.2-0.8c-0.1-0.2-0.4-0.2-0.6-0.2c-0.7,0-1,0.4-1,1.3v5.1h-2V699L231.2,698.9
			L231.2,698.9z"/>
		<path fill="#981D25" d="M238.8,696.7v2.2h1.2v1.4h-1.2v4.2c0,0.3,0,0.5,0.1,0.7c0.1,0.1,0.3,0.2,0.6,0.2c0.1,0,0.2,0,0.2,0
			c0.1,0,0.1,0,0.2,0v1.4c-0.2,0-0.4,0-0.6,0c-0.2,0-0.4,0-0.7,0c-0.4,0-0.7,0-0.9-0.1c-0.2-0.1-0.4-0.2-0.6-0.3
			c-0.1-0.2-0.2-0.4-0.3-0.6c0-0.3-0.1-0.6-0.1-1v-4.4h-1V699h1v-2.2L238.8,696.7L238.8,696.7L238.8,696.7z"/>
		<path fill="#981D25" d="M242.2,703.7c0,0.2,0,0.5,0,0.7s0.1,0.4,0.2,0.6c0.1,0.2,0.2,0.3,0.3,0.4c0.1,0.1,0.3,0.2,0.5,0.2
			c0.3,0,0.6-0.1,0.7-0.4c0.2-0.2,0.3-0.6,0.3-1.1h1.8c0,0.9-0.3,1.6-0.7,2.1c-0.4,0.5-1.1,0.7-2.1,0.7c-0.7,0-1.3-0.1-1.7-0.4
			c-0.4-0.2-0.7-0.6-0.9-0.9c-0.2-0.4-0.3-0.8-0.4-1.3c0-0.5-0.1-1-0.1-1.5s0-1,0.1-1.5c0.1-0.5,0.2-0.9,0.4-1.3
			c0.2-0.4,0.5-0.7,0.9-0.9c0.4-0.2,0.9-0.3,1.6-0.3c0.6,0,1,0.1,1.4,0.3c0.4,0.2,0.7,0.4,0.9,0.8c0.2,0.3,0.4,0.8,0.4,1.2
			c0.1,0.5,0.1,1,0.1,1.6v0.4H242L242.2,703.7L242.2,703.7L242.2,703.7z M244.1,701.1c0-0.2-0.1-0.4-0.2-0.6s-0.2-0.3-0.3-0.4
			c-0.1-0.1-0.3-0.1-0.5-0.1c-0.2,0-0.4,0-0.5,0.1c-0.1,0.1-0.2,0.2-0.3,0.4c-0.1,0.1-0.1,0.3-0.2,0.5c0,0.2,0,0.4,0,0.5v0.3h2
			C244.2,701.6,244.1,701.3,244.1,701.1z"/>
		<path fill="#981D25" d="M249,696.4v10.2h-2v-10.2H249z"/>
		<path fill="#981D25" d="M252.3,696.4v10.2h-2v-10.2H252.3z"/>
		<path fill="#981D25" d="M255.7,696.3v1.7h-2v-1.7H255.7z M255.7,698.9v7.7h-2v-7.7H255.7z"/>
		<path fill="#981D25" d="M262.7,706.2c0,1-0.2,1.7-0.7,2.2c-0.5,0.5-1.3,0.7-2.5,0.7c-0.8,0-1.5-0.2-1.9-0.5
			c-0.5-0.4-0.7-0.9-0.7-1.5h1.9c0,0.2,0.1,0.4,0.3,0.6c0.1,0.1,0.2,0.1,0.3,0.2s0.2,0.1,0.4,0.1c0.4,0,0.7-0.1,0.8-0.4
			c0.2-0.3,0.2-0.6,0.2-1v-1l0,0c-0.2,0.3-0.4,0.5-0.7,0.7c-0.3,0.2-0.6,0.3-0.9,0.3c-0.8,0-1.4-0.3-1.8-0.9c-0.4-0.6-0.6-1.6-0.6-3
			c0-0.5,0-0.9,0.1-1.4s0.2-0.9,0.3-1.3c0.2-0.4,0.4-0.7,0.7-0.9c0.3-0.2,0.8-0.4,1.3-0.4c0.3,0,0.6,0.1,0.9,0.2
			c0.3,0.2,0.5,0.4,0.7,0.8l0,0v-0.9h1.9L262.7,706.2L262.7,706.2z M258.8,703.8c0,0.2,0.1,0.5,0.1,0.6c0.1,0.2,0.2,0.3,0.3,0.4
			c0.1,0.1,0.3,0.2,0.5,0.2c0.2,0,0.4-0.1,0.5-0.2c0.1-0.1,0.2-0.3,0.3-0.5c0.1-0.2,0.1-0.4,0.2-0.7c0-0.3,0.1-0.6,0.1-0.9
			c0-0.9-0.1-1.6-0.2-2c-0.1-0.4-0.4-0.6-0.8-0.6c-0.2,0-0.4,0-0.5,0.1c-0.1,0.1-0.2,0.2-0.3,0.5c-0.1,0.2-0.1,0.5-0.2,0.9
			c0,0.4,0,0.8,0,1.3C258.7,703.3,258.7,703.5,258.8,703.8z"/>
		<path fill="#981D25" d="M265.7,703.7c0,0.2,0,0.5,0,0.7s0.1,0.4,0.2,0.6c0.1,0.2,0.2,0.3,0.3,0.4c0.1,0.1,0.3,0.2,0.5,0.2
			c0.3,0,0.6-0.1,0.7-0.4c0.1-0.2,0.3-0.6,0.3-1.1h1.8c0,0.9-0.3,1.6-0.7,2.1c-0.4,0.5-1.1,0.7-2.1,0.7c-0.7,0-1.3-0.1-1.7-0.4
			c-0.4-0.2-0.7-0.6-0.9-0.9c-0.2-0.4-0.3-0.8-0.4-1.3c0-0.5-0.1-1-0.1-1.5s0-1,0.1-1.5s0.2-0.9,0.4-1.3c0.2-0.4,0.5-0.7,0.9-0.9
			c0.4-0.2,0.9-0.3,1.6-0.3c0.6,0,1,0.1,1.4,0.3c0.4,0.2,0.7,0.4,0.9,0.8c0.2,0.3,0.4,0.8,0.4,1.2c0.1,0.5,0.1,1,0.1,1.6v0.4h-3.9
			L265.7,703.7L265.7,703.7z M267.6,701.1c0-0.2-0.1-0.4-0.2-0.6s-0.2-0.3-0.3-0.4c-0.1-0.1-0.3-0.1-0.5-0.1s-0.4,0-0.5,0.1
			c-0.1,0.1-0.2,0.2-0.3,0.4c-0.1,0.1-0.1,0.3-0.2,0.5c0,0.2,0,0.4,0,0.5v0.3h2C267.7,701.6,267.6,701.3,267.6,701.1z"/>
		<path fill="#981D25" d="M272.4,698.9v0.9l0,0c0.2-0.4,0.5-0.7,0.8-0.8c0.3-0.2,0.7-0.3,1.1-0.3c0.6,0,1.1,0.2,1.5,0.5
			c0.3,0.3,0.5,0.9,0.5,1.7v5.7h-2v-5.3c0-0.4-0.1-0.7-0.2-0.8c-0.1-0.2-0.4-0.2-0.6-0.2c-0.7,0-1,0.4-1,1.3v5.1h-2V699L272.4,698.9
			L272.4,698.9z"/>
		<path fill="#981D25" d="M281.2,701.1c0-0.2-0.1-0.3-0.1-0.5c-0.1-0.1-0.2-0.3-0.3-0.4c-0.1-0.1-0.3-0.1-0.5-0.1s-0.4,0.1-0.6,0.2
			c-0.2,0.1-0.3,0.3-0.3,0.5c-0.1,0.2-0.1,0.5-0.2,0.8c0,0.3,0,0.7,0,1.2s0,0.9,0,1.2c0,0.3,0.1,0.6,0.2,0.8
			c0.1,0.2,0.2,0.4,0.3,0.5c0.1,0.1,0.3,0.2,0.5,0.2c0.3,0,0.6-0.1,0.7-0.4s0.2-0.7,0.2-1.4h1.9c0,1-0.2,1.8-0.7,2.3
			s-1.2,0.8-2.3,0.8c-0.5,0-0.9-0.1-1.3-0.2c-0.4-0.1-0.7-0.3-0.9-0.6c-0.2-0.3-0.4-0.7-0.6-1.3c-0.1-0.5-0.2-1.2-0.2-1.9
			c0-0.8,0.1-1.5,0.2-2c0.2-0.5,0.4-0.9,0.6-1.2c0.3-0.3,0.6-0.5,1-0.7c0.4-0.1,0.8-0.2,1.3-0.2c0.9,0,1.6,0.3,2.1,0.8
			c0.5,0.5,0.7,1.3,0.7,2.2H281C281.2,701.5,281.2,701.3,281.2,701.1z"/>
		<path fill="#981D25" d="M285.7,703.7c0,0.2,0,0.5,0,0.7s0.1,0.4,0.2,0.6c0.1,0.2,0.2,0.3,0.3,0.4c0.1,0.1,0.3,0.2,0.5,0.2
			c0.3,0,0.6-0.1,0.7-0.4c0.2-0.2,0.3-0.6,0.3-1.1h1.8c0,0.9-0.3,1.6-0.7,2.1c-0.4,0.5-1.1,0.7-2.1,0.7c-0.7,0-1.3-0.1-1.7-0.4
			c-0.4-0.2-0.7-0.6-0.9-0.9c-0.2-0.4-0.3-0.8-0.4-1.3c0-0.5-0.1-1-0.1-1.5s0-1,0.1-1.5s0.2-0.9,0.4-1.3c0.2-0.4,0.5-0.7,0.9-0.9
			c0.4-0.2,0.9-0.3,1.6-0.3c0.6,0,1,0.1,1.4,0.3c0.4,0.2,0.7,0.4,0.9,0.8c0.2,0.3,0.4,0.8,0.4,1.2c0.1,0.5,0.1,1,0.1,1.6v0.4h-3.9
			L285.7,703.7L285.7,703.7L285.7,703.7z M287.7,701.1c0-0.2-0.1-0.4-0.1-0.6c-0.1-0.2-0.2-0.3-0.3-0.4c-0.1-0.1-0.3-0.1-0.5-0.1
			c-0.2,0-0.4,0-0.5,0.1c-0.1,0.1-0.2,0.2-0.3,0.4c-0.1,0.1-0.1,0.3-0.2,0.5c0,0.2,0,0.4,0,0.5v0.3h2
			C287.7,701.6,287.7,701.3,287.7,701.1z"/>
		<path fill="#981D25" d="M131.4,657.3h-5.6v10.4c0,3.4,0.3,4.2,3.5,4.2c0.7,0,1.6-0.1,2.5-0.2v5.7c-1.5,0.4-3.3,0.6-4.7,0.6
			c-2.2,0-5-0.3-6.7-1.7c-2.1-1.8-2.1-4.9-2.1-7.5v-11.5H114v-6h4.6l0.7-7.7l6.6-0.5v8.2h5.6L131.4,657.3L131.4,657.3z"/>
		<path fill="#981D25" d="M140,665.7l-0.1,1.3c0,3.1,1.8,5.6,5,5.6c2.3,0,4.6-1.7,4.6-4.1l7,0.5c0,1.3-3,9-11.9,9
			c-7.8,0-12.9-5.5-12.9-13.2c0-7.7,4.6-14,12.7-14c3.7,0,7.4,1.6,9.6,4.6c2.2,3,2.7,6.7,2.7,10.2L140,665.7L140,665.7z
			 M149.1,661.2c-0.2-2.8-1.1-5.5-4.4-5.5s-4.6,2.5-4.9,5.5H149.1z"/>
		<path fill="#981D25" d="M165.9,651.3v4h0.1c1.3-3.1,3.9-4.5,7.3-4.5c3.5,0,5.6,1.4,7.2,4.5c1.3-3.1,4.4-4.5,7.6-4.5
			c2.3,0,4.8,0.8,6.4,2.7c1.8,2.1,1.4,5,1.4,7.7v16.3h-7.6v-13.9c0-1,0.1-3.6-0.2-4.6c-0.4-1.7-1.6-2.1-3.2-2.1
			c-1.3,0-2.7,0.8-3.3,2s-0.5,3.3-0.5,4.7v13.9h-7.6v-13.9c0-2.7,0.5-6.7-3.4-6.7c-4,0-3.8,3.9-3.8,6.7v13.9h-7.6v-26.2H165.9
			L165.9,651.3z"/>
		<path fill="#981D25" d="M206.3,651.3v3.9h0.1c1.4-2.9,3.4-4.4,6.8-4.4c3.5,0,6,1.5,7.7,4.5c1.7,2.8,2,5.9,2,9.1
			c0,6.4-2.4,13.5-10,13.5c-2.6,0-4.9-1.1-6-3.4h-0.1v11.7h-7.6v-35L206.3,651.3L206.3,651.3L206.3,651.3z M206.7,665.4
			c0,1.7-0.2,3.9,0.7,5.3c0.7,1.1,2.1,2,3.4,2c3.9,0,4.1-5.7,4.1-8.4c0-2.7-0.2-8.1-4-8.1c-1.5,0-2.7,0.8-3.4,2.1
			c-0.8,1.4-0.8,3-0.8,4.5L206.7,665.4L206.7,665.4z"/>
		<path fill="#981D25" d="M231.7,665.7l-0.1,1.3c0,3.1,1.8,5.6,5,5.6c2.3,0,4.6-1.7,4.6-4.1l7,0.5c0,1.3-3,9-11.9,9
			c-7.8,0-12.9-5.5-12.9-13.2c0-7.7,4.6-14,12.7-14c3.7,0,7.4,1.6,9.6,4.6c2.2,3,2.7,6.7,2.7,10.2L231.7,665.7L231.7,665.7z
			 M241,661.2c-0.2-2.8-1.1-5.5-4.4-5.5c-3.3,0-4.6,2.5-4.9,5.5H241z"/>
		<path fill="#981D25" d="M265.7,659.1c-0.7-2.5-2.6-3.5-5.1-3.5c-1.5,0-3.9,0.4-3.9,2.3c0,4.9,15.7-0.7,15.7,11.1
			c0,2.7-1.3,5.1-3.5,6.7c-2.4,1.6-5.3,2.2-8.1,2.2c-5.5,0-10.6-1.9-11.9-7.7l6.5-0.9c0.5,2.7,3.3,3.5,5.8,3.5
			c1.4,0,4.6-0.5,4.6-2.5c0-1.8-1.5-2.1-2.9-2.2c-1.8-0.2-6.1-1-7.8-1.6c-3.1-1.1-5.1-3.8-5.1-7.1c0-6.4,5.6-8.8,11.2-8.8
			c5.1,0,8.5,2,10.3,6.8L265.7,659.1z"/>
		<path fill="#981D25" d="M289.6,657.3H284v10.4c0,3.4,0.3,4.2,3.5,4.2c0.7,0,1.6-0.1,2.5-0.2v5.7c-1.5,0.4-3.3,0.6-4.7,0.6
			c-2.2,0-5-0.3-6.7-1.7c-2.1-1.8-2.1-4.9-2.1-7.5v-11.5h-4.3v-6h4.6l0.7-7.7l6.6-0.5v8.2h5.6L289.6,657.3L289.6,657.3z"/>
	</g>
</g>
<g id="LA">
	<g>
		<path fill="#981D25" d="M58.5,377.9c-0.1,0-0.3,0-0.4,0c-0.2,0-0.4,0-0.6-0.1c-0.1,0-0.3-0.1-0.4-0.2c-0.1-0.1-0.2-0.2-0.2-0.4
			s-0.1-0.4-0.1-0.6v-2.1h-0.7v-0.8h0.7v-1.2l1-0.3v1.5h1v0.8h-1v1.8c0,0.3,0,0.4,0.1,0.5s0.2,0.1,0.4,0.1c0.2,0,0.3,0,0.5-0.1v0.8
			C58.8,377.9,58.6,377.9,58.5,377.9z"/>
		<path fill="#981D25" d="M62.7,375.5c0,0.1,0,0.1,0,0.2c0,0.1,0,0.2,0,0.2h-2.5c0,0.8,0.4,1.1,1.1,1.1c0.2,0,0.4,0,0.6-0.1
			c0.2,0,0.4-0.1,0.6-0.2l0.1,0.8c-0.2,0.1-0.4,0.2-0.7,0.2c-0.2,0-0.5,0.1-0.8,0.1c-0.6,0-1.1-0.2-1.5-0.5
			c-0.3-0.3-0.5-0.9-0.5-1.6c0-0.3,0-0.6,0.1-0.9c0.1-0.3,0.2-0.5,0.4-0.7c0.2-0.2,0.4-0.3,0.6-0.4c0.2-0.1,0.5-0.2,0.8-0.2
			c0.3,0,0.5,0,0.8,0.1c0.2,0.1,0.4,0.2,0.5,0.4s0.2,0.4,0.3,0.6C62.7,375,62.7,375.3,62.7,375.5z M61.7,375.3c0-0.3,0-0.5-0.2-0.6
			c-0.1-0.1-0.3-0.2-0.5-0.2c-0.2,0-0.4,0.1-0.5,0.2c-0.1,0.1-0.2,0.3-0.3,0.6H61.7L61.7,375.3z"/>
		<path fill="#981D25" d="M65.5,377.9c-0.2,0-0.4,0.1-0.6,0.1c-0.3,0-0.5,0-0.8-0.1c-0.2-0.1-0.4-0.2-0.6-0.4
			c-0.2-0.2-0.3-0.4-0.4-0.6c-0.1-0.2-0.1-0.5-0.1-0.9c0-0.3,0-0.6,0.1-0.9c0.1-0.3,0.2-0.5,0.4-0.7c0.2-0.2,0.4-0.4,0.6-0.5
			c0.3-0.1,0.6-0.2,0.9-0.2s0.6,0,0.8,0.1l-0.1,0.9c-0.1,0-0.2-0.1-0.4-0.1c-0.1,0-0.3,0-0.4,0c-0.3,0-0.6,0.1-0.7,0.3
			c-0.2,0.2-0.2,0.5-0.2,0.9c0,0.3,0.1,0.6,0.2,0.8c0.1,0.2,0.4,0.3,0.7,0.3c0.1,0,0.3,0,0.4,0c0.1,0,0.3-0.1,0.4-0.1l0.1,0.9
			C65.9,377.8,65.7,377.8,65.5,377.9z"/>
		<path fill="#981D25" d="M67.9,373.8c0,0.1,0,0.2,0,0.4c0,0.1,0,0.3,0,0.4l0,0c0.1-0.2,0.3-0.4,0.5-0.6c0.2-0.1,0.5-0.2,0.8-0.2
			c0.2,0,0.4,0,0.6,0.1s0.3,0.2,0.4,0.3c0.1,0.1,0.2,0.3,0.2,0.4c0,0.2,0.1,0.3,0.1,0.5v2.8h-1v-2.6c0-0.2,0-0.4-0.1-0.5
			c-0.1-0.1-0.2-0.2-0.4-0.2c-0.1,0-0.3,0-0.4,0.1c-0.1,0.1-0.2,0.2-0.3,0.3s-0.1,0.3-0.2,0.4c0,0.2-0.1,0.3-0.1,0.5v2h-1v-3.2
			c-0.1,0-0.2,0-0.3,0c-0.1,0-0.3,0-0.4,0V374c0.3,0,0.5-0.1,0.8-0.1C67.4,373.8,67.6,373.8,67.9,373.8z"/>
		<path fill="#981D25" d="M75,375.8c0,0.3-0.1,0.6-0.1,0.9c-0.1,0.3-0.2,0.5-0.4,0.7c-0.2,0.2-0.4,0.3-0.7,0.5
			c-0.3,0.1-0.5,0.2-0.8,0.2c-0.3,0-0.5,0-0.8-0.1c-0.2-0.1-0.4-0.2-0.6-0.4c-0.2-0.2-0.3-0.4-0.4-0.6c-0.1-0.3-0.1-0.6-0.1-0.9
			c0-0.3,0.1-0.6,0.1-0.9c0.1-0.3,0.2-0.5,0.4-0.7c0.2-0.2,0.4-0.3,0.7-0.5c0.3-0.1,0.5-0.2,0.8-0.2c0.6,0,1,0.2,1.4,0.5
			C74.8,374.5,75,375.1,75,375.8z M73.9,375.8c0-0.4-0.1-0.7-0.2-0.9s-0.4-0.3-0.7-0.3c-0.1,0-0.2,0-0.3,0.1c-0.1,0-0.2,0.1-0.3,0.2
			c-0.1,0.1-0.2,0.2-0.2,0.4c-0.1,0.1-0.1,0.3-0.1,0.5c0,0.8,0.3,1.3,0.9,1.3c0.3,0,0.5-0.1,0.6-0.3
			C73.8,376.5,73.9,376.2,73.9,375.8z"/>
		<path fill="#981D25" d="M76.6,377.9h-1v-5.1c-0.1,0-0.2,0-0.3,0c-0.1,0-0.2,0-0.4,0v-0.6c0.3,0,0.5-0.1,0.8-0.1c0.3,0,0.6,0,0.9,0
			V377.9L76.6,377.9z"/>
		<path fill="#981D25" d="M81.1,375.8c0,0.3-0.1,0.6-0.1,0.9c-0.1,0.3-0.2,0.5-0.4,0.7c-0.2,0.2-0.4,0.3-0.7,0.5s-0.5,0.2-0.8,0.2
			s-0.5,0-0.8-0.1c-0.2-0.1-0.4-0.2-0.6-0.4c-0.2-0.2-0.3-0.4-0.4-0.6c-0.1-0.3-0.1-0.6-0.1-0.9c0-0.3,0.1-0.6,0.1-0.9
			c0.1-0.3,0.2-0.5,0.4-0.7c0.2-0.2,0.4-0.3,0.7-0.5c0.3-0.1,0.5-0.2,0.8-0.2c0.6,0,1,0.2,1.4,0.5C80.9,374.5,81.1,375.1,81.1,375.8
			z M80,375.8c0-0.4-0.1-0.7-0.2-0.9s-0.4-0.3-0.7-0.3c-0.1,0-0.2,0-0.3,0.1c-0.1,0-0.2,0.1-0.3,0.2c-0.1,0.1-0.2,0.2-0.2,0.4
			c-0.1,0.1-0.1,0.3-0.1,0.5c0,0.8,0.3,1.3,0.9,1.3c0.3,0,0.5-0.1,0.6-0.3C79.9,376.5,80,376.2,80,375.8z"/>
		<path fill="#981D25" d="M85.1,378c0,0.2,0,0.5-0.1,0.7c-0.1,0.2-0.2,0.4-0.3,0.6c-0.2,0.2-0.4,0.3-0.7,0.4
			c-0.3,0.1-0.7,0.2-1.1,0.2c-0.2,0-0.4,0-0.7,0c-0.2,0-0.4-0.1-0.6-0.1l0.1-1c0.2,0.1,0.4,0.1,0.6,0.2c0.2,0,0.4,0.1,0.6,0.1
			c0.4,0,0.7-0.1,0.9-0.2c0.2-0.1,0.3-0.4,0.3-0.8v-0.2c0-0.1,0-0.2,0-0.3s0-0.2,0-0.3l0,0c-0.1,0.2-0.3,0.4-0.5,0.6
			c-0.2,0.1-0.4,0.2-0.7,0.2c-0.5,0-0.9-0.2-1.1-0.5c-0.3-0.3-0.4-0.8-0.4-1.4c0-0.3,0-0.7,0.1-0.9c0.1-0.2,0.2-0.5,0.4-0.7
			c0.2-0.2,0.4-0.4,0.7-0.5s0.6-0.2,0.9-0.2s0.6,0,0.8,0c0.2,0,0.5,0.1,0.7,0.1L85.1,378L85.1,378L85.1,378z M84,374.6
			c-0.2,0-0.3-0.1-0.5-0.1c-0.3,0-0.5,0.1-0.7,0.3c-0.2,0.2-0.3,0.6-0.3,1.1c0,0.8,0.2,1.1,0.7,1.1c0.1,0,0.3,0,0.4-0.1
			s0.2-0.2,0.3-0.3c0.1-0.1,0.1-0.3,0.2-0.4c0-0.2,0.1-0.3,0.1-0.5L84,374.6L84,374.6z"/>
		<path fill="#981D25" d="M87.2,377.9h-1v-3.2c-0.1,0-0.2,0-0.3,0c-0.1,0-0.2,0-0.4,0V374c0.3,0,0.5-0.1,0.8-0.1s0.6,0,0.9,0V377.9
			L87.2,377.9z M87.3,372.7c0,0.2-0.1,0.3-0.2,0.4c-0.1,0.1-0.3,0.2-0.5,0.2s-0.3-0.1-0.5-0.2c-0.1-0.1-0.2-0.3-0.2-0.4
			c0-0.1,0-0.2,0.1-0.2c0-0.1,0.1-0.1,0.1-0.2c0.1-0.1,0.1-0.1,0.2-0.1c0.1,0,0.2,0,0.2,0c0.2,0,0.3,0.1,0.5,0.2
			C87.3,372.3,87.3,372.5,87.3,372.7z"/>
		<path fill="#981D25" d="M91.8,377.8c-0.3,0-0.5,0.1-0.8,0.1s-0.6,0-0.8,0c0-0.1,0-0.2,0-0.4c0-0.1,0-0.2,0-0.3l0,0
			c-0.1,0.2-0.3,0.4-0.5,0.6c-0.2,0.1-0.5,0.2-0.8,0.2c-0.4,0-0.7-0.1-0.9-0.3c-0.2-0.2-0.3-0.5-0.3-0.8c0-0.2,0.1-0.5,0.2-0.6
			c0.1-0.2,0.3-0.3,0.5-0.5c0.2-0.1,0.5-0.2,0.7-0.3c0.3-0.1,0.6-0.1,0.9-0.1v-0.2c0-0.2-0.1-0.4-0.2-0.5c-0.1-0.1-0.3-0.2-0.6-0.2
			c-0.2,0-0.4,0-0.6,0.1c-0.2,0.1-0.4,0.1-0.6,0.2l-0.1-0.9c0.2-0.1,0.4-0.1,0.7-0.2c0.2,0,0.5-0.1,0.8-0.1c0.3,0,0.6,0,0.8,0.1
			c0.2,0.1,0.4,0.2,0.5,0.3c0.1,0.1,0.2,0.3,0.3,0.4c0.1,0.2,0.1,0.4,0.1,0.6v1.9c0.1,0,0.2,0,0.3,0c0.1,0,0.3,0,0.4,0L91.8,377.8
			L91.8,377.8L91.8,377.8z M90.1,376.1c-0.3,0-0.5,0-0.7,0.1c-0.2,0-0.3,0.1-0.4,0.1c-0.1,0.1-0.2,0.1-0.2,0.2
			c0,0.1-0.1,0.2-0.1,0.2c0,0.1,0,0.2,0.1,0.3c0.1,0.1,0.2,0.1,0.4,0.1c0.1,0,0.2,0,0.4-0.1c0.1-0.1,0.2-0.1,0.3-0.2
			c0.1-0.1,0.1-0.2,0.2-0.3C90,376.4,90.1,376.3,90.1,376.1L90.1,376.1L90.1,376.1z"/>
		<path fill="#981D25" d="M97.2,375.5c0,0.1,0,0.1,0,0.2c0,0.1,0,0.2,0,0.2h-2.5c0,0.8,0.4,1.1,1.1,1.1c0.2,0,0.4,0,0.6-0.1
			c0.2,0,0.4-0.1,0.6-0.2l0.1,0.8c-0.2,0.1-0.4,0.2-0.7,0.2c-0.2,0-0.5,0.1-0.8,0.1c-0.6,0-1.1-0.2-1.5-0.5
			c-0.3-0.3-0.5-0.9-0.5-1.6c0-0.3,0-0.6,0.1-0.9c0.1-0.3,0.2-0.5,0.4-0.7c0.2-0.2,0.4-0.3,0.6-0.4c0.2-0.1,0.5-0.2,0.8-0.2
			s0.5,0,0.8,0.1c0.2,0.1,0.4,0.2,0.5,0.4c0.1,0.2,0.2,0.4,0.3,0.6C97.2,375,97.2,375.3,97.2,375.5z M96.2,375.3
			c0-0.3,0-0.5-0.2-0.6c-0.1-0.1-0.3-0.2-0.5-0.2c-0.2,0-0.4,0.1-0.5,0.2c-0.1,0.1-0.2,0.3-0.3,0.6H96.2L96.2,375.3z"/>
		<path fill="#981D25" d="M103,377.9v-2.6c0-0.2,0-0.4-0.1-0.5c-0.1-0.1-0.2-0.2-0.4-0.2c-0.1,0-0.2,0-0.3,0.1
			c-0.1,0.1-0.2,0.2-0.3,0.3c-0.1,0.1-0.2,0.3-0.2,0.4c-0.1,0.2-0.1,0.3-0.1,0.5v1.9h-1v-2.6c0-0.2,0-0.4-0.1-0.5
			c-0.1-0.1-0.2-0.2-0.4-0.2c-0.1,0-0.2,0-0.3,0.1c-0.1,0.1-0.2,0.2-0.3,0.3c-0.1,0.1-0.2,0.3-0.2,0.4c-0.1,0.2-0.1,0.3-0.1,0.5v1.9
			h-1v-3.2c-0.1,0-0.2,0-0.3,0c-0.1,0-0.2,0-0.4,0v-0.7c0.3,0,0.5-0.1,0.8-0.1s0.6,0,0.9,0c0,0.1,0,0.2,0,0.4c0,0.1,0,0.3,0,0.4l0,0
			c0.1-0.2,0.3-0.4,0.5-0.6c0.2-0.1,0.5-0.2,0.8-0.2c0.2,0,0.3,0,0.5,0.1c0.1,0,0.2,0.1,0.3,0.2c0.1,0.1,0.2,0.2,0.2,0.3
			c0.1,0.1,0.1,0.2,0.1,0.3c0-0.1,0.1-0.2,0.2-0.3c0.1-0.1,0.2-0.2,0.3-0.3c0.1-0.1,0.2-0.1,0.4-0.2c0.1,0,0.3-0.1,0.5-0.1
			c0.4,0,0.7,0.1,0.9,0.3c0.2,0.2,0.3,0.6,0.3,1v2.8L103,377.9L103,377.9z"/>
		<path fill="#981D25" d="M109.1,376.6c0,0.2,0,0.4-0.1,0.5c-0.1,0.2-0.2,0.3-0.4,0.4c-0.2,0.1-0.3,0.2-0.6,0.3
			c-0.2,0.1-0.5,0.1-0.7,0.1c-0.1,0-0.3,0-0.4,0c-0.1,0-0.3,0-0.4-0.1v-0.9c0.1,0,0.3,0.1,0.4,0.1c0.1,0,0.3,0,0.5,0
			c0.2,0,0.4,0,0.5-0.1s0.2-0.2,0.2-0.3c0-0.1,0-0.2-0.1-0.3s-0.2-0.1-0.3-0.2c-0.1,0-0.3-0.1-0.4-0.1s-0.3-0.1-0.4-0.2
			c-0.1-0.1-0.2-0.2-0.3-0.3c-0.1-0.1-0.1-0.3-0.1-0.6c0-0.2,0-0.3,0.1-0.5c0.1-0.2,0.2-0.3,0.3-0.4c0.1-0.1,0.3-0.2,0.5-0.3
			c0.2-0.1,0.5-0.1,0.8-0.1c0.1,0,0.2,0,0.4,0c0.1,0,0.3,0,0.4,0.1v0.8c-0.1,0-0.2-0.1-0.4-0.1c-0.1,0-0.3,0-0.4,0
			c-0.2,0-0.4,0-0.5,0.1s-0.1,0.2-0.1,0.3s0,0.2,0.1,0.3c0.1,0.1,0.2,0.1,0.3,0.2c0.1,0.1,0.3,0.1,0.4,0.2c0.1,0.1,0.3,0.1,0.4,0.2
			c0.1,0.1,0.2,0.2,0.3,0.3C109.1,376.2,109.1,376.4,109.1,376.6z"/>
		<path fill="#981D25" d="M113.5,377.8c-0.3,0-0.5,0.1-0.8,0.1s-0.6,0-0.8,0c0-0.1,0-0.2,0-0.4c0-0.1,0-0.2,0-0.3l0,0
			c-0.1,0.2-0.3,0.4-0.5,0.6c-0.2,0.1-0.5,0.2-0.8,0.2c-0.4,0-0.7-0.1-0.9-0.3c-0.2-0.2-0.3-0.5-0.3-0.8c0-0.2,0.1-0.5,0.2-0.6
			c0.1-0.2,0.3-0.3,0.5-0.5c0.2-0.1,0.5-0.2,0.7-0.3c0.3-0.1,0.6-0.1,0.9-0.1v-0.2c0-0.2-0.1-0.4-0.2-0.5s-0.3-0.2-0.6-0.2
			c-0.2,0-0.4,0-0.6,0.1c-0.2,0.1-0.4,0.1-0.6,0.2l-0.1-0.9c0.2-0.1,0.4-0.1,0.7-0.2c0.2,0,0.5-0.1,0.8-0.1s0.6,0,0.8,0.1
			c0.2,0.1,0.4,0.2,0.5,0.3s0.2,0.3,0.3,0.4c0.1,0.2,0.1,0.4,0.1,0.6v1.9c0.1,0,0.2,0,0.3,0c0.1,0,0.2,0,0.4,0V377.8L113.5,377.8z
			 M111.8,376.1c-0.3,0-0.5,0-0.7,0.1c-0.2,0-0.3,0.1-0.4,0.1c-0.1,0.1-0.2,0.1-0.2,0.2c0,0.1-0.1,0.2-0.1,0.2c0,0.1,0,0.2,0.1,0.3
			s0.2,0.1,0.4,0.1c0.1,0,0.2,0,0.4-0.1c0.1-0.1,0.2-0.1,0.3-0.2c0.1-0.1,0.1-0.2,0.2-0.3C111.8,376.4,111.8,376.3,111.8,376.1
			L111.8,376.1L111.8,376.1z"/>
		<path fill="#981D25" d="M117.4,377.9c-0.3,0-0.6,0-0.8,0c0-0.1,0-0.2,0-0.3s0-0.3,0-0.4l0,0c-0.1,0.2-0.3,0.4-0.5,0.6
			c-0.2,0.2-0.5,0.2-0.8,0.2c-0.2,0-0.4,0-0.6-0.1c-0.2-0.1-0.3-0.2-0.4-0.3s-0.2-0.3-0.2-0.4c0-0.2-0.1-0.3-0.1-0.5v-2
			c-0.1,0-0.2,0-0.3,0c-0.1,0-0.2,0-0.4,0V374c0.3,0,0.6-0.1,0.9-0.1s0.6,0,0.9,0v2.6c0,0.2,0,0.4,0.1,0.5s0.2,0.2,0.4,0.2
			c0.1,0,0.3,0,0.4-0.1c0.1-0.1,0.2-0.2,0.3-0.3c0.1-0.1,0.1-0.3,0.2-0.4c0.1-0.2,0.1-0.3,0.1-0.5v-2h1v3.2c0.1,0,0.2,0,0.3,0
			c0.1,0,0.3,0,0.4,0v0.7C118,377.8,117.7,377.8,117.4,377.9z M115.5,373.3l-0.4-0.6l1.4-0.9l0.4,0.7L115.5,373.3z"/>
		<path fill="#981D25" d="M122.8,377.8c-0.3,0-0.5,0.1-0.8,0.1s-0.6,0-0.8,0c0-0.1,0-0.2,0-0.3s0-0.2,0-0.3l0,0
			c-0.1,0.2-0.3,0.4-0.5,0.6c-0.2,0.1-0.5,0.2-0.8,0.2c-0.5,0-0.9-0.2-1.1-0.5c-0.2-0.3-0.4-0.8-0.4-1.4c0-0.3,0-0.7,0.1-0.9
			c0.1-0.3,0.2-0.5,0.4-0.7c0.2-0.2,0.4-0.4,0.7-0.5s0.6-0.2,0.9-0.2c0.1,0,0.2,0,0.3,0s0.2,0,0.3,0v-1.1c-0.1,0-0.2,0-0.3,0
			c-0.1,0-0.3,0-0.4,0v-0.7c0.3,0,0.5-0.1,0.8-0.1s0.6,0,0.9,0v5.2c0.1,0,0.2,0,0.3,0s0.2,0,0.4,0V377.8L122.8,377.8L122.8,377.8
			L122.8,377.8z M121,374.6c-0.1,0-0.2,0-0.3-0.1c-0.1,0-0.2,0-0.3,0c-0.3,0-0.5,0.1-0.7,0.3c-0.2,0.2-0.3,0.6-0.3,1.1
			c0,0.8,0.2,1.1,0.7,1.1c0.1,0,0.3,0,0.4-0.1c0.1-0.1,0.2-0.2,0.3-0.3c0.1-0.1,0.1-0.3,0.2-0.4c0-0.2,0.1-0.3,0.1-0.5L121,374.6
			L121,374.6z"/>
		<path fill="#981D25" d="M126.5,375.5c0,0.1,0,0.1,0,0.2c0,0.1,0,0.2,0,0.2H124c0,0.8,0.4,1.1,1.1,1.1c0.2,0,0.4,0,0.6-0.1
			c0.2,0,0.4-0.1,0.6-0.2l0.1,0.8c-0.2,0.1-0.4,0.2-0.7,0.2c-0.2,0-0.5,0.1-0.8,0.1c-0.6,0-1.1-0.2-1.5-0.5
			c-0.3-0.3-0.5-0.9-0.5-1.6c0-0.3,0-0.6,0.1-0.9c0.1-0.3,0.2-0.5,0.4-0.7s0.4-0.3,0.6-0.4c0.2-0.1,0.5-0.2,0.8-0.2s0.5,0,0.8,0.1
			c0.2,0.1,0.4,0.2,0.5,0.4c0.1,0.2,0.2,0.4,0.3,0.6C126.4,375,126.5,375.3,126.5,375.5z M125.4,375.3c0-0.3,0-0.5-0.2-0.6
			c-0.1-0.1-0.3-0.2-0.5-0.2c-0.2,0-0.4,0.1-0.5,0.2c-0.1,0.1-0.2,0.3-0.3,0.6H125.4L125.4,375.3z"/>
	</g>
	<path fill="#981D25" d="M75.4,362.3c-0.7-0.1-2.6-0.2-3.2-0.3v-30h-6h-1.6v4.3l1.6,0.5v30c1.7,0.1,3.5,0.1,5.2,0l0,0l0,0l0,0
		c1.7-0.1,4.6-0.2,6.1-0.4v-3.8C76.9,362.4,76.2,362.4,75.4,362.3z"/>
	<path fill="#981D25" d="M83.5,362.3c0.7,0,1.2,0.2,1.7,0.7c0.5,0.5,0.7,1,0.7,1.7s-0.2,1.2-0.7,1.7c-0.5,0.5-1,0.7-1.7,0.7
		s-1.2-0.2-1.7-0.7c-0.5-0.5-0.7-1-0.7-1.7s0.2-1.2,0.7-1.7C82.3,362.5,82.9,362.3,83.5,362.3z"/>
	<path fill="#981D25" d="M118.2,362.3c0.7,0,1.2,0.2,1.7,0.7c0.5,0.5,0.7,1,0.7,1.7s-0.2,1.2-0.7,1.7c-0.5,0.5-1,0.7-1.7,0.7
		c-0.7,0-1.2-0.2-1.7-0.7c-0.5-0.5-0.7-1-0.7-1.7s0.2-1.2,0.7-1.7C117,362.5,117.5,362.3,118.2,362.3z"/>
	<path fill="#981D25" d="M108.3,362.1v-11.2c0-0.6,0-1.1-0.1-1.6c-2.7-1.4-5-3.6-6.3-6.4c-1-0.2-2.1-0.2-3.3-0.2
		c-1.5,0-3,0.1-4.4,0.4c-1.4,0.3-2.8,0.6-4,1.1l0.5,5.1c1-0.6,2.2-1,3.4-1.4c1.3-0.3,2.5-0.5,3.5-0.5c1.7,0,2.9,0.3,3.6,0.9
		c0.7,0.6,1,1.6,1,2.8v1.3c-2,0-3.8,0.2-5.5,0.5c-1.7,0.4-3.1,0.9-4.3,1.6c-1.2,0.7-2.1,1.6-2.8,2.7c-0.7,1.1-1,2.3-1,3.7
		c0,1.9,0.6,3.4,1.8,4.5c1.2,1.1,2.8,1.7,5,1.7c1.8,0,3.3-0.4,4.7-1.3c1.4-0.9,2.3-1.9,2.9-3.3l0,0c-0.1,0.6-0.2,1.3-0.2,2
		s0,1.4,0,2.1c1.5,0.1,3.2,0.1,4.9,0c1.7-0.1,3.3-0.2,4.8-0.4v-3.8c-0.7-0.1-1.4-0.1-2.2-0.2C109.5,362.2,108.9,362.1,108.3,362.1z
		 M102.3,356.9c0,0.7-0.1,1.4-0.4,2.1c-0.2,0.7-0.6,1.3-1,1.8s-1,0.9-1.6,1.3c-0.6,0.3-1.3,0.5-2.1,0.5c-0.9,0-1.6-0.2-2.1-0.7
		c-0.5-0.5-0.7-1.1-0.7-1.8c0-0.5,0.1-0.9,0.3-1.4c0.2-0.4,0.6-0.8,1.2-1.2c0.6-0.4,1.4-0.6,2.4-0.8c1-0.2,2.3-0.3,3.9-0.3
		L102.3,356.9L102.3,356.9z"/>
	<g>
		<path fill="#981D25" d="M117,340.4L117,340.4c-0.1,0-0.2,0-0.2,0.1c0,0-0.1,0.1-0.1,0.2c0,0.1,0,0.1,0,0.2c0,0.3,0.1,0.5,0.4,0.5
			c0.1,0,0.2,0,0.3-0.1c0.1-0.1,0.1-0.2,0.1-0.4s0-0.3-0.1-0.4C117.2,340.5,117.1,340.4,117,340.4z"/>
		<path fill="#981D25" d="M118,333.3c-0.2,0-0.5,0-0.7,0.1c-0.2,0.1-0.4,0.2-0.6,0.4s-0.3,0.4-0.4,0.7c-0.1,0.3-0.1,0.5-0.1,0.9
			c0,0.3,0,0.6,0.1,0.9c0.1,0.3,0.2,0.5,0.3,0.7c0.1,0.2,0.3,0.3,0.6,0.4c0.2,0.1,0.5,0.2,0.8,0.2c0.2,0,0.5,0,0.7-0.1
			c0.2-0.1,0.4-0.2,0.6-0.4c0.2-0.2,0.3-0.4,0.4-0.7c0.1-0.3,0.1-0.6,0.1-0.9c0-0.6-0.1-1.1-0.4-1.5
			C119.1,333.5,118.6,333.3,118,333.3z"/>
		<path fill="#981D25" d="M109.9,341.1C109.9,341.1,109.9,341.2,109.9,341.1c-0.1,0.1-0.1,0.1-0.1,0.2c0,0.1,0,0.1,0.1,0.1h0.1
			c0.1,0,0.1,0,0.1,0l0.1-0.1l0.1-0.1v-0.1l0,0C110.2,341.1,110.1,341.1,109.9,341.1C110,341.1,110,341.1,109.9,341.1z"/>
		<path fill="#981D25" d="M114.6,324.2c-6.9,0-12.5,5.6-12.5,12.5c0,6.9,5.6,12.5,12.5,12.5s12.5-5.6,12.5-12.5
			C127.1,329.8,121.5,324.2,114.6,324.2z M108.8,337.3l1.3-1c0.3-0.2,0.6-0.5,0.8-0.7c0.2-0.2,0.4-0.4,0.6-0.5
			c0.1-0.2,0.3-0.3,0.3-0.5c0.1-0.1,0.1-0.3,0.1-0.4c0-0.3-0.1-0.5-0.3-0.7c-0.2-0.2-0.5-0.3-0.9-0.3c-0.3,0-0.6,0.1-0.9,0.2
			c-0.3,0.1-0.5,0.2-0.7,0.3l-0.2-1.4c0.3-0.1,0.6-0.3,1-0.3c0.4-0.1,0.8-0.1,1.2-0.1c0.9,0,1.5,0.2,2,0.6c0.4,0.4,0.7,0.9,0.7,1.5
			c0,0.5-0.1,0.9-0.4,1.3c-0.3,0.4-0.7,0.8-1.2,1.2l-1,0.8l0,0c0.4,0,0.8,0,1.3,0c0.5,0,1,0,1.6,0v1.5h-5.2L108.8,337.3L108.8,337.3
			z M111.1,341.7c-0.1,0-0.2,0-0.3,0s-0.2,0-0.3,0c0-0.1,0-0.1,0-0.1v-0.1l0,0c0,0.1-0.1,0.2-0.2,0.2c-0.1,0.1-0.2,0.1-0.3,0.1
			c-0.2,0-0.3,0-0.4-0.1s-0.1-0.2-0.1-0.3s0-0.2,0.1-0.3c0-0.1,0.1-0.1,0.2-0.2c0.1-0.1,0.2-0.1,0.3-0.1c0.1,0,0.2,0,0.4,0v-0.1
			c0-0.1,0-0.2-0.1-0.2c0,0-0.1-0.1-0.3-0.1c-0.1,0-0.2,0-0.2,0c-0.1,0-0.2,0.1-0.2,0.1v-0.4c0.1,0,0.2-0.1,0.3-0.1
			c0.1,0,0.2,0,0.3,0c0.1,0,0.2,0,0.3,0c0.1,0,0.2,0.1,0.2,0.1c0.1,0.1,0.1,0.1,0.1,0.2c0,0.1,0,0.2,0,0.2v0.8h0.1
			c0.1,0,0.1,0,0.2,0L111.1,341.7L111.1,341.7L111.1,341.7L111.1,341.7z M114.4,341.8H114v-1.1c0-0.1,0-0.2,0-0.2
			c0-0.1-0.1-0.1-0.2-0.1c-0.1,0-0.1,0-0.2,0l-0.1,0.1c0,0.1-0.1,0.1-0.1,0.2c0,0.1,0,0.1,0,0.2v0.8H113v-1.3h-0.1
			c-0.1,0-0.1,0-0.2,0v-0.3c0.1,0,0.2,0,0.3,0c0.1,0,0.2,0,0.4,0v0.1c0,0.1,0,0.1,0,0.2l0,0c0.1-0.1,0.1-0.2,0.2-0.2
			c0.1-0.1,0.2-0.1,0.3-0.1c0.1,0,0.2,0,0.2,0c0.1,0,0.1,0.1,0.1,0.1s0.1,0.1,0.1,0.2c0,0.1,0,0.1,0,0.2L114.4,341.8L114.4,341.8z
			 M117.8,341.3c0,0.1-0.1,0.2-0.2,0.3c-0.1,0.1-0.2,0.1-0.3,0.2c-0.1,0.1-0.2,0.1-0.3,0.1c-0.1,0-0.2,0-0.3,0
			c-0.1,0-0.2-0.1-0.2-0.1c-0.1-0.1-0.1-0.2-0.2-0.3c-0.1-0.1-0.1-0.2-0.1-0.4c0-0.1,0-0.2,0.1-0.4c0-0.1,0.1-0.2,0.2-0.3
			c0.1-0.1,0.2-0.1,0.3-0.2c0.1,0,0.2-0.1,0.3-0.1c0.2,0,0.4,0.1,0.6,0.2c0.1,0.1,0.2,0.3,0.2,0.6
			C117.8,341,117.8,341.1,117.8,341.3z M120.6,341.5c0,0.1-0.1,0.1-0.1,0.2c-0.1,0.1-0.1,0.1-0.2,0.1c-0.1,0-0.2,0-0.3,0
			c-0.1,0-0.1,0-0.2,0s-0.1,0-0.2,0v-0.4c0.1,0,0.1,0,0.2,0s0.1,0,0.2,0c0.1,0,0.1,0,0.2,0l0.1-0.1c0-0.1,0-0.1-0.1-0.1l-0.1-0.1
			c-0.1,0-0.1,0-0.2-0.1c-0.1,0-0.1,0-0.2-0.1l-0.1-0.1c0-0.1-0.1-0.1-0.1-0.2c0-0.1,0-0.1,0-0.2c0-0.1,0.1-0.1,0.1-0.2
			c0.1,0,0.1-0.1,0.2-0.1s0.2,0,0.3,0c0.1,0,0.1,0,0.2,0c0.1,0,0.1,0,0.2,0v0.3h-0.1c-0.1,0-0.1,0-0.2,0s-0.1,0-0.2,0l-0.1,0.1
			c0,0,0,0.1,0.1,0.1l0.1,0.1c0.1,0,0.1,0,0.2,0.1c0.1,0,0.1,0.1,0.2,0.1s0.1,0.1,0.1,0.1c0,0.1,0.1,0.1,0.1,0.2
			C120.7,341.3,120.7,341.4,120.6,341.5z M121.2,336.8c-0.2,0.4-0.5,0.8-0.8,1.1c-0.3,0.3-0.7,0.6-1.1,0.7c-0.4,0.2-0.9,0.2-1.4,0.2
			c-0.5,0-0.9-0.1-1.3-0.2c-0.4-0.1-0.8-0.3-1.1-0.6c-0.3-0.3-0.5-0.6-0.7-1.1c-0.2-0.4-0.3-1-0.3-1.6s0.1-1.1,0.3-1.5
			c0.2-0.4,0.5-0.8,0.8-1.1c0.3-0.3,0.7-0.6,1.1-0.7c0.4-0.2,0.9-0.2,1.4-0.2c0.6,0,1.2,0.1,1.6,0.3c0.4,0.2,0.8,0.5,1,0.8
			c0.3,0.3,0.5,0.7,0.6,1.1c0.1,0.4,0.2,0.8,0.2,1.3C121.5,335.9,121.4,336.4,121.2,336.8z"/>
	</g>
	<path fill="#981D25" d="M30.6,326.8c-14.1,0-25.5,11.4-25.5,25.5c0,14.1,11.4,25.5,25.5,25.5s25.5-11.4,25.5-25.5
		C56.1,338.1,44.7,326.8,30.6,326.8z M35.5,357v16.1h-9.8V357H10.2v-9.8h15.5v-16.1h9.8v16.1H51v9.8H35.5z"/>
</g>
<g id="Eventick_1_">
	<g>
		<path fill="#981D25" d="M6.9,301.6h-2v9h3.6v-3.9h2.9v6.8H0.1v-2.9h1.5v-20.1H0.1v-2.9h11.1v6.7H8.3v-3.8H4.9v8.2h2v-1.9H10v6.6
			H6.9V301.6L6.9,301.6z"/>
		<path fill="#981D25" d="M20.8,290.5h-1.5l2.7,14.8h0.2l2.6-14.8h-1.4v-2.9h6.3v2.9h-1.6l-4.2,23h-3.7l-4.1-23h-1.6v-2.9h6.3
			L20.8,290.5L20.8,290.5L20.8,290.5z"/>
		<path fill="#981D25" d="M39.7,301.6h-2v9h3.6v-3.9h2.9v6.8H32.9v-2.9h1.5v-20.1h-1.5v-2.9h11.2v6.7h-3v-3.8h-3.4v8.2h2v-1.9h3.1
			v6.6h-3.1V301.6L39.7,301.6z"/>
		<path fill="#981D25" d="M52.6,287.6l4.7,15.1v-12.2h-1.8v-2.9h6.6v2.9h-1.5v23h-3.3l-5.2-16.7v13.8h1.5v2.9h-6.3v-2.9h1.5v-20.1
			h-1.5v-2.9L52.6,287.6L52.6,287.6z"/>
		<path fill="#981D25" d="M68.5,310.6H70v-20.1h-2.4v3.8h-2.9v-6.7h13.9v6.7h-2.9v-3.8h-2.4v20.1h1.8v2.9h-6.6L68.5,310.6
			L68.5,310.6L68.5,310.6z"/>
		<path fill="#981D25" d="M81.2,310.6h1.5v-20.1h-1.5v-2.9h6.3v2.9H86v20.1h1.5v2.9h-6.3V310.6z"/>
		<path fill="#981D25" d="M93.2,313.5l-2.5-2.9v-20.1l2.5-2.9H99l2.4,2.9v3.8h-3.3v-3.8h-4.2v20.1h4.2v-3.9h3.3v3.9l-2.4,2.9H93.2
			L93.2,313.5z"/>
		<path fill="#981D25" d="M111,300.8l-2,4.1v5.6h1.5v2.9h-6.4v-2.9h1.5v-20.1h-1.5v-2.9h6.3v2.9h-1.5v8.3l4-8.3h-1.5v-2.9h5.7v2.9
			h-1.2l-2.8,5.8l3.7,14.3h1.3v2.9h-3.8L111,300.8z"/>
	</g>
	<polygon fill="#981D25" points="87.5,282 84.5,280.3 81.6,282 82.1,278.3 79.7,275.8 83,275.2 84.5,271.9 86.1,275.2 89.4,275.8 
		87,278.3 	"/>
</g>
<g id="Guava_1_">
	<path id="a_9_" fill="#981D25" d="M88.1,241.9c0,0,0.4,0,0.8,0c0.3,0,0.8,0,0.8,0c1.5,0.1,2.9,0.6,4,1.3c0.3,0.2,0.4,0.2,0.4,0.2
		v-1.2h5v19.6h-5v-1.2l-0.2,0.1c-1.4,0.9-3,1.4-4.9,1.4c-2.1,0-3.8-0.6-5.1-1.5c-2.6-1.7-4.6-4.6-4.6-8.6c0-3,1.1-5.2,2.6-6.9
		C83.4,243.4,85.3,242.2,88.1,241.9 M85.5,248.9c-0.7,0.8-1.3,1.9-1.2,3.5c0.1,2,1.3,3.5,2.6,4.2c1.4,0.7,3.2,0.7,4.4,0.1
		c2-1,3.6-4.1,2.2-6.9c-0.8-1.5-2.6-2.9-5-2.6C87.1,247.3,86.2,248,85.5,248.9"/>
	<path id="u_4_" fill="#981D25" d="M22,242.2h5V253c0,0-0.1,1.7,0.7,2.7c0.9,1.2,2,1.4,2.7,1.4c0.7,0,2.2-0.4,3-1.4
		c0.7-1,0.6-2.7,0.6-2.7v-10.8h5v19.6h-5v-1.2c-1.3,0.7-2.8,1.7-4.8,1.5c-2.2-0.1-3.8-1.2-5-2.5c-1-1.2-1.9-2.9-2.2-4.8
		c0-0.1,0-0.8,0-0.9L22,242.2L22,242.2z"/>
	<path id="v_4_" fill="#981D25" d="M66.1,242.2c1.5,4.2,3,8.3,4.4,12.5c0.4-1,0.8-2,1.2-3.1c1.1-3.1,2.2-6.2,3.3-9.4h5.3
		c-2.3,6.6-4.7,13-6.9,19.6h-5.7c-2.2-6.4-4.5-12.7-6.7-19.1c0-0.1,0-0.1-0.2-0.5H66.1L66.1,242.2L66.1,242.2z"/>
	<path id="a_8_" fill="#981D25" d="M49,241.9c0,0,0.4,0,0.8,0c0.3,0,0.8,0,0.8,0c1.5,0.1,2.9,0.6,4,1.3c0.3,0.2,0.5,0.2,0.5,0.2
		v-1.2H60v19.6h-4.9v-1.2l-0.3,0.1c-1.4,0.9-3,1.4-4.9,1.4c-2.1,0-3.8-0.6-5.1-1.5c-2.6-1.7-4.6-4.6-4.6-8.6c0-3,1.1-5.2,2.6-6.9
		C44.3,243.4,46.2,242.2,49,241.9 M46.4,248.9c-0.7,0.8-1.3,1.9-1.2,3.5c0.1,2,1.3,3.5,2.6,4.2c1.4,0.7,3.2,0.7,4.4,0.1
		c2-1,3.6-4.1,2.2-6.9c-0.8-1.5-2.6-2.9-5-2.6C48,247.3,47.1,248,46.4,248.9"/>
	<path id="g_4_" fill="#981D25" d="M7.9,247.5c-1.4,0.7-2.6,2.2-2.7,4c-0.4,4.5,4.2,6.8,7.4,4.9c1.2-0.8,2.3-2.4,2.3-4.3
		c0-2.1-1.4-3.8-2.7-4.5c-0.7-0.4-1.8-0.6-2.9-0.4C8.8,247.2,8.2,247.3,7.9,247.5 M6.3,263.2c0,0,1.3,1.6,3.6,1.5
		c3.8,0,4.4-2.1,4.5-3.8v-0.1h-0.1c-0.9,0.6-2.4,1.1-3.9,1.2c-1.6,0.1-3.6-0.2-5.4-1.2c-2.7-1.5-4.4-4.1-4.9-8c0,0,0-0.6,0-0.9
		c0-0.3,0-0.8,0-0.8c0.2-2.6,1.3-4.8,2.8-6.3c1.5-1.6,3.5-2.7,6-3c0,0,0.4,0,0.7,0c0.3,0,0.8,0,0.8,0c1.8,0.2,3.1,0.8,4.4,1.6v-1.3
		h5c0,0,0,16.9,0,18.1c0,2.7-0.5,4.8-2.2,6.5c-1.8,1.8-4.8,2.9-8.4,2.7c-2.6-0.2-4.7-1.3-6.2-2.8L6.3,263.2z"/>
</g>
<g id="FOR_1_">
	<g>
		<g>
			<g>
				<g>
					<path fill="#981D25" d="M50.2,213.1h-2.8V201h-1.8v-2.5h1.8v-1.1c0-4.2,1.1-5.4,4.1-5.4c1,0,3.1,0.3,3.1,0.3v2.3
						c0,0-1.5-0.1-2.4-0.1c-1.5,0-1.9,0.6-1.9,2.9v1.1h4v2.5h-4L50.2,213.1L50.2,213.1z"/>
				</g>
				<g opacity="0.2">
					<path fill="#981D25" d="M50.2,213.1h-2.8V201h-1.8v-2.5h1.8v-1.1c0-4.2,1.1-5.4,4.1-5.4c1,0,3.1,0.3,3.1,0.3v2.3
						c0,0-1.5-0.1-2.4-0.1c-1.5,0-1.9,0.6-1.9,2.9v1.1h4v2.5h-4L50.2,213.1L50.2,213.1z"/>
				</g>
				<path fill="#981D25" d="M56.5,198.4h2.8v1.7c0,0,2.1-1.6,4.8-2.1v2.9c-2.7,0.5-4.8,1.8-4.8,1.8V213h-2.8V198.4z"/>
				<g opacity="0.2">
					<path fill="#981D25" d="M56.5,198.4h2.8v1.7c0,0,2.1-1.6,4.8-2.1v2.9c-2.7,0.5-4.8,1.8-4.8,1.8V213h-2.8V198.4z"/>
				</g>
				<path fill="#981D25" d="M76.9,210.6l0.1,2.2c0,0-3.3,0.6-5.8,0.6c-4.4,0-6-2.5-6-7.5c0-5.5,2.3-7.7,6.2-7.7c4,0,6.1,2.1,6.1,6.8
					l-0.2,2H68c0,2.6,0.9,3.9,3.6,3.9C73.8,210.8,76.9,210.6,76.9,210.6z M74.7,204.7c0-3-1-4.2-3.3-4.2s-3.4,1.2-3.5,4.2H74.7z"/>
				<g opacity="0.2">
					<path fill="#981D25" d="M76.9,210.6l0.1,2.2c0,0-3.3,0.6-5.8,0.6c-4.4,0-6-2.5-6-7.5c0-5.5,2.3-7.7,6.2-7.7
						c4,0,6.1,2.1,6.1,6.8l-0.2,2H68c0,2.6,0.9,3.9,3.6,3.9C73.8,210.8,76.9,210.6,76.9,210.6z M74.7,204.7c0-3-1-4.2-3.3-4.2
						s-3.4,1.2-3.5,4.2H74.7z"/>
				</g>
				<path fill="#981D25" d="M81.4,198.4l3.2,12.3h1l3.2-12.3h2.8l-4,14.6h-5.2l-3.9-14.6H81.4L81.4,198.4z"/>
				<g opacity="0.2">
					<path fill="#981D25" d="M81.4,198.4l3.2,12.3h1l3.2-12.3h2.8l-4,14.6h-5.2l-3.9-14.6H81.4L81.4,198.4z"/>
				</g>
				<path fill="#981D25" d="M105.6,205.6c0,4.9-1.4,7.8-6.4,7.8s-6.4-2.7-6.4-7.8c0-4.9,1.6-7.5,6.4-7.5
					C103.8,198.1,105.6,200.8,105.6,205.6z M102.7,205.6c0-3.5-1-5-3.6-5c-2.8,0-3.6,1.4-3.6,5c0,3.6,0.6,5.2,3.6,5.2
					C102.2,210.9,102.7,209.1,102.7,205.6z"/>
				<g opacity="0.2">
					<path fill="#981D25" d="M105.6,205.6c0,4.9-1.4,7.8-6.4,7.8s-6.4-2.7-6.4-7.8c0-4.9,1.6-7.5,6.4-7.5
						C103.8,198.1,105.6,200.8,105.6,205.6z M102.7,205.6c0-3.5-1-5-3.6-5c-2.8,0-3.6,1.4-3.6,5c0,3.6,0.6,5.2,3.6,5.2
						C102.2,210.9,102.7,209.1,102.7,205.6z"/>
				</g>
			</g>
		</g>
		<g>
			<g>
				<g>
					<path fill="#981D25" d="M59.1,229.1c0,4.9-1.4,7.8-6.4,7.8s-6.5-2.7-6.5-7.8c0-4.9,1.6-7.5,6.5-7.5
						C57.4,221.6,59.1,224.3,59.1,229.1z M56.3,229.1c0-3.5-1-5-3.6-5c-2.8,0-3.6,1.4-3.6,5c0,3.6,0.6,5.2,3.6,5.2
						C55.7,234.4,56.3,232.6,56.3,229.1z"/>
					<path fill="#981D25" d="M62.1,236.6V222h2.8v0.9c0,0,2.4-1.2,4.2-1.2c4.1,0,5,2.2,5,7.3v7.6h-2.8V229c0-3.3-0.4-4.8-2.7-4.8
						c-1.6,0-3.8,0.9-3.8,0.9v11.5L62.1,236.6L62.1,236.6z"/>
					<path fill="#981D25" d="M84.1,221.9h2.8v1.7c0,0,2.1-1.6,4.8-2.1v2.9c-2.7,0.5-4.8,1.8-4.8,1.8v10.3h-2.8V221.9z"/>
					<path fill="#981D25" d="M104.4,233.1c0,1,0.6,1.3,1.4,1.4l-0.1,2.4c-2.1,0-2.9-0.3-3.7-1.1c0,0-2.6,1.1-5.1,1.1
						c-2.6,0-4.1-1.7-4.1-4.6c0-3,1.6-4.1,4.7-4.4l4.1-0.4v-1.1c0-1.5-0.8-2.2-2.2-2.2c-2.2,0-5.6,0.4-5.6,0.4l-0.1-2.5
						c0,0,3.7-0.6,5.9-0.6c3.1,0,4.8,1.4,4.8,4.8L104.4,233.1L104.4,233.1L104.4,233.1z M97.9,230c-1.5,0.1-2.2,0.9-2.2,2.2
						c0,1.5,0.6,2.3,1.8,2.3c1.9,0,4.2-0.7,4.2-0.7v-4L97.9,230z"/>
					<path fill="#981D25" d="M108.4,216h2.8v3.1h-2.8V216L108.4,216z M108.4,221.9h2.8v14.6h-2.8V221.9L108.4,221.9z"/>
					<path fill="#981D25" d="M114.9,215.7h2.8v20.9h-2.8V215.7z"/>
					<path fill="#981D25" d="M131.6,224.6c0,0-3.4-0.5-5.2-0.5s-2.8,0.4-2.8,1.9c0,1.1,0.7,1.4,3.3,1.9c3.9,0.6,5.2,1.5,5.2,4.4
						c0,3.4-2.2,4.7-5.8,4.7c-2,0-5.4-0.6-5.4-0.6l0.1-2.4c0,0,3.5,0.5,5,0.5c2.2,0,3.2-0.5,3.2-2.1c0-1.2-0.6-1.5-3.2-1.9
						c-3.7-0.6-5.3-1.4-5.3-4.3c0-3.3,2.6-4.4,5.4-4.4c2.2,0,5.4,0.6,5.4,0.6L131.6,224.6z"/>
				</g>
				<g>
					<path fill="#981D25" d="M59.1,229.1c0,4.9-1.4,7.8-6.4,7.8s-6.4-2.7-6.4-7.8c0-4.9,1.6-7.5,6.4-7.5
						C57.4,221.6,59.1,224.3,59.1,229.1z M56.3,229.1c0-3.5-1-5-3.6-5c-2.8,0-3.6,1.4-3.6,5c0,3.6,0.6,5.2,3.6,5.2
						C55.7,234.4,56.3,232.6,56.3,229.1z"/>
					<path fill="#981D25" d="M62.1,236.6V222h2.8v0.9c0,0,2.4-1.2,4.2-1.2c4.1,0,5,2.2,5,7.3v7.6h-2.8V229c0-3.3-0.4-4.8-2.7-4.8
						c-1.6,0-3.8,0.9-3.8,0.9v11.5L62.1,236.6L62.1,236.6z"/>
					<path fill="#981D25" d="M84.1,221.9h2.8v1.7c0,0,2.1-1.6,4.8-2.1v2.9c-2.7,0.5-4.8,1.8-4.8,1.8v10.3h-2.8V221.9L84.1,221.9z"/>
					<path fill="#981D25" d="M104.4,233.1c0,1,0.6,1.3,1.4,1.4l-0.1,2.4c-2.1,0-2.9-0.3-3.7-1.1c0,0-2.6,1.1-5.1,1.1
						c-2.6,0-4.1-1.7-4.1-4.6c0-3,1.6-4.1,4.7-4.4l4.1-0.4v-1.1c0-1.5-0.8-2.2-2.2-2.2c-2.2,0-5.6,0.4-5.6,0.4l-0.1-2.5
						c0,0,3.7-0.6,5.9-0.6c3.1,0,4.8,1.4,4.8,4.8L104.4,233.1L104.4,233.1L104.4,233.1z M97.9,230c-1.5,0.1-2.2,0.9-2.2,2.2
						c0,1.5,0.6,2.3,1.8,2.3c1.9,0,4.2-0.7,4.2-0.7v-4L97.9,230z"/>
					<path fill="#981D25" d="M108.4,216h2.8v3.1h-2.8V216L108.4,216z M108.4,221.9h2.8v14.6h-2.8V221.9L108.4,221.9z"/>
					<path fill="#981D25" d="M114.9,215.7h2.8v20.9h-2.8V215.7z"/>
					<path fill="#981D25" d="M131.6,224.6c0,0-3.4-0.5-5.2-0.5s-2.8,0.4-2.8,1.9c0,1.1,0.7,1.4,3.3,1.9c3.9,0.6,5.2,1.5,5.2,4.4
						c0,3.4-2.2,4.7-5.8,4.7c-2,0-5.4-0.6-5.4-0.6l0.1-2.4c0,0,3.5,0.5,5,0.5c2.2,0,3.2-0.5,3.2-2.1c0-1.2-0.6-1.5-3.2-1.9
						c-3.7-0.6-5.3-1.4-5.3-4.3c0-3.3,2.6-4.4,5.4-4.4c2.2,0,5.4,0.6,5.4,0.6L131.6,224.6z"/>
				</g>
				<g>
					<g opacity="0.4">
						<path fill="#981D25" d="M59.1,229.1c0,4.9-1.4,7.8-6.4,7.8s-6.4-2.7-6.4-7.8c0-4.9,1.6-7.5,6.4-7.5
							C57.4,221.6,59.1,224.3,59.1,229.1z M56.3,229.1c0-3.5-1-5-3.6-5c-2.8,0-3.6,1.4-3.6,5c0,3.6,0.6,5.2,3.6,5.2
							C55.7,234.4,56.3,232.6,56.3,229.1z"/>
					</g>
					<g opacity="0.4">
						<path fill="#981D25" d="M62.1,236.6V222h2.8v0.9c0,0,2.4-1.2,4.2-1.2c4.1,0,5,2.2,5,7.3v7.6h-2.8V229c0-3.3-0.4-4.8-2.7-4.8
							c-1.6,0-3.8,0.9-3.8,0.9v11.5L62.1,236.6L62.1,236.6z"/>
					</g>
					<g opacity="0.4">
						<path fill="#981D25" d="M84.1,221.9h2.8v1.7c0,0,2.1-1.6,4.8-2.1v2.9c-2.7,0.5-4.8,1.8-4.8,1.8v10.3h-2.8V221.9L84.1,221.9z"
							/>
					</g>
					<g opacity="0.4">
						<path fill="#981D25" d="M104.4,233.1c0,1,0.6,1.3,1.4,1.4l-0.1,2.4c-2.1,0-2.9-0.3-3.7-1.1c0,0-2.6,1.1-5.1,1.1
							c-2.6,0-4.1-1.7-4.1-4.6c0-3,1.6-4.1,4.7-4.4l4.1-0.4v-1.1c0-1.5-0.8-2.2-2.2-2.2c-2.2,0-5.6,0.4-5.6,0.4l-0.1-2.5
							c0,0,3.7-0.6,5.9-0.6c3.1,0,4.8,1.4,4.8,4.8L104.4,233.1L104.4,233.1L104.4,233.1z M97.9,230c-1.5,0.1-2.2,0.9-2.2,2.2
							c0,1.5,0.6,2.3,1.8,2.3c1.9,0,4.2-0.7,4.2-0.7v-4L97.9,230z"/>
					</g>
					<g opacity="0.4">
						<path fill="#981D25" d="M108.4,216h2.8v3.1h-2.8V216L108.4,216z M108.4,221.9h2.8v14.6h-2.8V221.9L108.4,221.9z"/>
					</g>
					<g opacity="0.4">
						<path fill="#981D25" d="M114.9,215.7h2.8v20.9h-2.8V215.7z"/>
					</g>
					<g opacity="0.4">
						<path fill="#981D25" d="M131.6,224.6c0,0-3.4-0.5-5.2-0.5s-2.8,0.4-2.8,1.9c0,1.1,0.7,1.4,3.3,1.9c3.9,0.6,5.2,1.5,5.2,4.4
							c0,3.4-2.2,4.7-5.8,4.7c-2,0-5.4-0.6-5.4-0.6l0.1-2.4c0,0,3.5,0.5,5,0.5c2.2,0,3.2-0.5,3.2-2.1c0-1.2-0.6-1.5-3.2-1.9
							c-3.7-0.6-5.3-1.4-5.3-4.3c0-3.3,2.6-4.4,5.4-4.4c2.2,0,5.4,0.6,5.4,0.6L131.6,224.6z"/>
					</g>
				</g>
			</g>
		</g>
	</g>
	<g>
		<polygon fill="#981D25" points="29.7,203.8 24.3,198.4 19.6,198.4 14,203.8 		"/>
		<polygon fill="#981D25" points="28.7,228.1 34.1,222.6 34.1,217.9 28.7,212.3 		"/>
		<polygon fill="#981D25" points="23.1,205 28.4,210.5 34.1,216.2 34.1,208.4 30.8,205 		"/>
		<polygon fill="#981D25" points="24.3,232.4 27.5,229.3 27.5,221.4 16.4,232.4 		"/>
		<polygon fill="#981D25" points="4.5,227 10.1,232.4 14.8,232.4 20.3,227 		"/>
		<polygon fill="#981D25" points="10.1,198.4 6.7,201.7 6.7,209.5 12.2,204.1 17.9,198.4 		"/>
		<polygon fill="#981D25" points="5.8,220.5 0.1,214.7 0.1,222.6 3.3,225.8 11.2,225.8 		"/>
		<polygon fill="#981D25" points="5.5,202.9 0.1,208.4 0.1,213.1 5.5,218.6 		"/>
	</g>
</g>
<g id="livingsocial_1_">
	<g id="symbol_1_">
		<path fill="#981D25" d="M121.2,391.8c0.7,0.1,1.4,0.2,2.1,0.4c2.9,0.8,5.4,2.3,7.3,4.6c2.5,3,1.9,6.9-0.7,9.3
			c-1.4,1.3-3.1,2-5.1,2.2c-1.3,0.1-2.5,0.1-3.8-0.2c-0.8-0.2-1.5-0.6-2.3-0.9l0,0c0-0.9-0.3-1.7-0.6-2.5c-0.3-0.6-0.5-1.3-1.1-1.8
			c0,0,0,0,0-0.1c0.2-0.4,0.4-0.7,0.5-1.1c0.3-1.1,0.4-2.3,0.3-3.5c-0.2-1.9-1.1-3-3-3.5c0.5-0.6,1-1.3,1.6-1.8
			c0.8-0.6,1.8-1,2.8-1.1c0.1,0,0.2,0,0.3-0.1C120.1,391.8,120.6,391.8,121.2,391.8z"/>
		<path fill="#981D25" d="M118.7,407.1L118.7,407.1c0,1.1-0.3,1.9-1,2.6c-0.8,0.8-1.6,1.6-2.7,2c-1.3,0.5-2.5,0.4-3.7-0.3
			c0-0.4,0-0.8,0-1.2c0-0.7-0.4-1.2-1-1.4c-0.4-0.1-0.7-0.2-1.1-0.2c-0.3-0.9-0.1-1.9,0.2-2.8c0.3-0.8,0.6-1.5,1.2-2.1
			c0.4,0.2,0.8,0.4,1.3,0.6c0.8,0.2,1.6,0.1,2.3,0c0.4-0.1,0.8-0.1,1.2-0.3c0,0,0,0,0.1,0c0.2,0.4,0.5,0.7,0.8,1
			C116.8,406,117.7,406.7,118.7,407.1z"/>
		<path fill="#981D25" d="M110.5,403.8c-1.1-0.7-1.7-1.7-2.1-2.9c-0.4-1.1-0.4-2.3-0.2-3.5c0.2-1.1,0.9-1.8,1.9-2.2
			c1.5-0.5,3-0.7,4.6-0.5c0,0,0.1,0,0.1,0.1c-0.2,0.5-0.6,0.9-0.8,1.4c-0.5,1-0.7,2.1-0.6,3.2c0,0.9,0.3,1.7,0.6,2.5
			c-0.8,0.1-1.5,0.5-2.2,0.9C111.2,403,110.9,403.4,110.5,403.8z"/>
		<path fill="#981D25" d="M111.2,411.4c-0.1,0.9-0.6,1.4-1.4,1.6c-2.2,0.5-3.2-1.7-2.7-3.2c0.1-0.4,0.4-0.7,0.8-0.8
			c0.4-0.2,0.8-0.2,1.3-0.3C109.4,410,110.1,410.8,111.2,411.4z"/>
		<path fill="#981D25" d="M117,402.8c-0.4,0.6-1,1-1.7,1.3c0,0,0,0-0.1,0c-0.5-0.7-1-1.5-1.3-2.3c1-0.2,1.9,0,2.7,0.6
			C116.8,402.6,116.9,402.7,117,402.8L117,402.8z"/>
	</g>
	<path id="type_1_" fill="#981D25" d="M54.6,441.4c-0.3-0.1-0.6-0.1-0.9-0.2c-3.6-0.8-4-4.8-2.4-6.7c0.7-0.8,1.5-1.4,2.4-2
		c0.2-0.1,0.4-0.3,0.7-0.4c-0.6-0.1-1.1-0.2-1.6-0.4c-1.5-0.6-2.4-1.8-2.9-3.2c-0.8-2.4-1-4.9,0-7.3c1-2.6,2.9-4,5.6-4.4
		c1.8-0.3,3.6,0.1,5.3,0.6c0.6,0.2,0.8,0.6,0.9,1.1c0.1,0.3,0.1,0.6,0.1,0.9c0,4.5,0,8.9,0,13.4c0,1.7-0.1,3.4-0.7,5.1
		c-0.8,2.3-2.5,3.5-4.9,3.7c-0.1,0-0.1,0-0.1,0.1C55.5,441.4,55.1,441.4,54.6,441.4z M59.4,422.9c0-1.3,0-2.4,0-3.5
		c0-0.2-0.1-0.3-0.3-0.4c-0.9-0.3-1.8-0.4-2.8-0.4c-1.8,0-3,0.9-3.8,2.5c-0.6,1.3-0.7,2.7-0.7,4c0,1.1,0.2,2.2,0.7,3.3
		c0.9,2,3.8,2.4,5.2,1c1-0.9,1.5-2.1,1.6-3.4C59.4,424.9,59.3,423.8,59.4,422.9z M59.3,430.2c-1.4,1.2-2.8,2.4-4.1,3.5
		c-0.8,0.7-1.5,1.3-2,2.2c-0.6,1.1-0.3,2.5,0.6,3.1c1.2,0.7,3.1,0.5,4.1-0.5c0.5-0.6,0.8-1.2,1-2s0.3-1.6,0.3-2.4
		C59.3,432.9,59.3,431.6,59.3,430.2z M0.1,431.9c0.2,0.4,0.4,0.8,0.9,0.9c0.8,0.2,1.7-0.3,1.7-1.4c0-6.5,0-13.1,0-19.6
		c0-0.1,0-0.3,0-0.4c-0.1-0.6-0.6-1-1.2-1.1c-0.7,0-1.1,0.4-1.4,1C0.1,418.2,0.1,425,0.1,431.9z M123.1,429.9
		c-0.4,0.7-0.9,1.3-1.5,1.8c-2.9,2.3-7.1,1-8.4-2.6c-0.6-1.7-0.7-3.5-0.5-5.3c0.1-1.3,0.4-2.6,1.1-3.8c1.1-2,2.8-3,4.9-3.4
		c1.9-0.3,3.8,0,5.6,0.5c0.8,0.2,1.1,0.6,1.1,1.4c0,0.2,0,0.4,0,0.6c0,4,0,8,0,11.9c0,0.2,0,0.4-0.1,0.6c-0.2,0.6-0.7,0.9-1.4,0.9
		c-0.6-0.1-1-0.6-1-1.2c0-0.2,0-0.5,0-0.7C123.1,430.5,123.1,430.3,123.1,429.9z M122.9,422.6c0-1.1,0-2.1,0-3.2
		c0-0.2-0.1-0.3-0.3-0.4c-1-0.3-2-0.4-3-0.4c-0.6,0-1.2,0.1-1.7,0.4c-1.3,0.6-1.9,1.7-2.3,3c-0.5,1.6-0.5,3.3-0.3,5
		c0.1,0.9,0.3,1.8,0.8,2.5c0.4,0.7,1,1.1,1.8,1.2c0.9,0.1,1.8-0.1,2.5-0.6c1.6-1.1,2.3-2.7,2.4-4.6
		C123,424.6,122.9,423.6,122.9,422.6z M77,424.7c0-1.6,0.2-3.1,0.8-4.4c0.9-2,2.5-3.2,4.7-3.6c1.5-0.3,2.9-0.2,4.3,0.3
		c1.7,0.7,2.7,1.9,3.2,3.6c0.8,2.7,0.8,5.5-0.3,8.1c-1,2.5-3.3,4-6,4c-1.4,0-2.8-0.2-4-1.1c-1.4-1-2.1-2.3-2.5-3.9
		C77.1,426.8,77,425.7,77,424.7z M79.6,424.2c0,1.6,0.2,3,0.6,4c0.9,2.5,3,2.9,4.7,2.4c1.3-0.4,2.1-1.4,2.5-2.6
		c0.8-2.1,0.7-4.3,0.1-6.4c-0.3-0.9-0.7-1.6-1.4-2.2c-1.4-1.1-4.3-1-5.6,1.3C79.8,421.8,79.6,423.1,79.6,424.2z M36.1,417.8
		c0-0.6-0.5-1.1-1-1.1c-0.7-0.1-1.2,0.2-1.4,0.8c-0.1,0.2-0.1,0.4-0.1,0.6c0,4.1,0,8.2,0,12.4c0,0.3,0,0.6,0,0.9
		c0,0.8,0.7,1.4,1.5,1.3c0.7-0.1,1.1-0.6,1.1-1.4c0-2.5,0-5,0-7.6c0-0.8,0.1-1.5,0.4-2.3c0.7-1.5,1.7-2.7,3.5-2.8
		c1.3-0.1,2.5,0.4,3.1,2c0.2,0.5,0.2,1.1,0.2,1.6c0,2.9,0,5.9,0,8.8c0,0.4,0,0.8,0.3,1.1c0.4,0.4,0.9,0.6,1.4,0.4
		c0.5-0.2,0.9-0.7,0.9-1.3c0-3,0-6.1,0-9.1c0-0.5,0-0.9-0.1-1.4c-0.2-1.8-1-3.1-2.8-3.8c-1-0.4-2-0.5-3-0.4c-1.6,0.1-3,0.8-3.9,2.2
		c0,0.1,0,0.1-0.2,0.1C36.1,418.5,36.1,418.2,36.1,417.8z M71.3,432.6c2-0.5,3.2-1.8,3.5-3.6c0.3-2.1-0.4-3.6-2.3-4.6
		c-0.7-0.4-1.6-0.7-2.4-1c-0.7-0.2-1.4-0.5-2.1-0.9c-0.8-0.5-1.1-1.3-0.9-2.2c0.2-0.9,0.8-1.4,1.6-1.6c1.4-0.3,2.7-0.1,3.9,0.6
		c0.2,0.1,0.4,0.2,0.6,0.3c0.7,0.2,1.3-0.2,1.3-0.9c0-0.5-0.2-0.9-0.7-1.1c-1.8-1.1-3.7-1.3-5.8-0.9c-1.8,0.4-3.4,1.6-3.5,4
		c-0.1,1.6,0.4,2.8,1.8,3.6c0.7,0.5,1.6,0.7,2.4,1c0.8,0.3,1.7,0.5,2.4,1c0.9,0.5,1.2,1.3,1.1,2.3c-0.1,1-0.7,1.7-1.7,1.9
		c-1.1,0.3-2.2,0.2-3.2-0.2c-0.6-0.2-1.2-0.5-1.8-0.8c-0.8-0.3-1.5,0.1-1.5,1c0,0.5,0.3,0.8,0.8,1.1c1.4,0.8,2.9,1.2,4.5,1.1
		C70.1,432.8,70.7,432.7,71.3,432.6z M95.7,421.8c0.4-1.4,1.2-2.6,2.8-3c1.4-0.4,2.8-0.1,4,0.9c0.2,0.2,0.5,0.4,0.7,0.5
		c0.8,0.3,1.5-0.2,1.5-1c0-0.4-0.2-0.8-0.5-1c-1.3-1.1-2.8-1.5-4.5-1.6c-3-0.1-5.4,1.5-6.4,4.3c-0.9,2.7-0.9,5.5,0.1,8.2
		c0.7,1.8,2,3,3.9,3.5c2.1,0.5,4.1,0.3,6.1-0.6c0.4-0.2,0.8-0.4,1.1-0.7c0.4-0.4,0.4-0.9,0.2-1.3c-0.2-0.4-0.6-0.5-1.1-0.4
		c-0.3,0.1-0.6,0.2-0.9,0.4c-0.8,0.5-1.7,0.7-2.6,0.8c-2,0.1-3.5-0.8-4.2-2.7c-0.4-1.1-0.5-2.2-0.5-3.4
		C95.3,423.7,95.4,422.7,95.7,421.8z M18,427.3c-0.9-2.4-1.8-4.9-2.7-7.3c-0.3-0.8-0.6-1.7-0.9-2.5c-0.3-0.6-0.9-0.9-1.6-0.7
		c-0.6,0.2-0.9,0.7-0.8,1.4c0,0.2,0.1,0.4,0.2,0.5c1.5,4.1,3,8.1,4.5,12.2c0.2,0.4,0.3,0.9,0.5,1.3c0.4,0.6,1.2,0.6,1.7,0.1
		c0.2-0.2,0.3-0.5,0.4-0.7c1.2-3.3,2.5-6.7,3.7-10c0.4-1.1,0.8-2.1,1.2-3.2c0.3-0.9-0.1-1.6-1-1.7c-0.6-0.1-1.1,0.3-1.3,0.9
		c-0.5,1.5-1.1,3-1.6,4.5c-0.6,1.8-1.3,3.6-2,5.5C18.1,427.4,18.1,427.3,18,427.3z M132.1,411.8c0-0.8-0.5-1.4-1.3-1.4
		s-1.3,0.6-1.3,1.4c0,6.6,0,13.1,0,19.7c0,0.2,0,0.5,0.2,0.7c0.3,0.5,0.9,0.8,1.4,0.7c0.6-0.1,1-0.6,1-1.3c0-3.3,0-6.6,0-9.9
		C132.1,418.3,132.1,415,132.1,411.8z M9.6,418.1c0-0.9-0.5-1.4-1.3-1.4S7,417.3,7,418.1c0,4.4,0,8.8,0,13.2c0,0.8,0.6,1.4,1.3,1.4
		c0.8,0,1.3-0.6,1.3-1.4c0-2.2,0-4.4,0-6.6S9.6,420.3,9.6,418.1z M29.7,419.9c0-0.7,0-1.4,0-2.1c0-0.8-0.8-1.4-1.6-1.2
		c-0.6,0.2-1,0.7-1,1.4c0,4.4,0,8.8,0,13.2c0,0.1,0,0.3,0,0.4c0.1,0.7,0.8,1.1,1.5,1c0.7-0.2,1-0.6,1-1.4c0-2.2,0-4.4,0-6.5
		C29.7,423.1,29.7,421.5,29.7,419.9z M106.9,431.3c0,0.1,0,0.3,0,0.4c0.2,0.7,0.7,1.1,1.4,1s1.1-0.6,1.1-1.4c0-4.4,0-8.8,0-13.2
		c0-0.9-0.5-1.4-1.3-1.4c-0.8,0-1.3,0.6-1.3,1.4c0,2.2,0,4.4,0,6.6S106.9,429.1,106.9,431.3z"/>
</g>
<g id="SendGrid_1_">
	<path fill="#981D25" d="M53.9,468.8c-0.2,0.5-0.4,0.9-0.6,1.4c-0.4-0.2-0.9-0.4-1.4-0.5s-1.1-0.2-1.8-0.2c-0.3,0-0.6,0-0.9,0.1
		s-0.6,0.1-0.9,0.3c-0.3,0.1-0.5,0.3-0.6,0.5c-0.2,0.2-0.3,0.5-0.3,0.9c0,0.5,0.2,1,0.6,1.3c0.4,0.3,0.9,0.7,1.5,1
		c0.5,0.3,1,0.6,1.5,0.9c0.4,0.3,0.8,0.6,1.2,1c0.3,0.3,0.6,0.7,0.8,1.1c0.2,0.4,0.3,0.9,0.3,1.5c0,0.8-0.1,1.5-0.4,2.3
		c-0.3,0.7-0.7,1.4-1.3,1.9c-0.6,0.5-1.4,1-2.3,1.3c-0.9,0.3-2,0.5-3.3,0.5c-1.5,0-2.9-0.3-4.3-0.8c0.1-0.5,0.2-0.9,0.3-1.4
		c0.2-0.5,0.4-1,0.6-1.5c0.6,0.2,1.2,0.4,1.8,0.6c0.6,0.2,1.2,0.2,1.8,0.2c0.5,0,0.9-0.1,1.3-0.2c0.4-0.1,0.8-0.3,1.1-0.5
		c0.3-0.2,0.5-0.5,0.7-0.8s0.3-0.7,0.3-1.1c0-0.3-0.1-0.6-0.2-0.8c-0.1-0.2-0.3-0.4-0.5-0.6s-0.5-0.4-0.8-0.5
		c-0.3-0.2-0.6-0.3-0.9-0.5c-1-0.6-1.8-1.2-2.4-1.8c-0.6-0.6-0.9-1.4-0.9-2.2c0-0.8,0.1-1.6,0.4-2.2c0.3-0.7,0.7-1.2,1.3-1.7
		c0.5-0.4,1.2-0.8,2-1c0.8-0.2,1.6-0.4,2.6-0.4c0.9,0,1.6,0.1,2.2,0.2c0.6,0.1,1.3,0.3,2,0.6C54.2,467.9,54.1,468.4,53.9,468.8
		L53.9,468.8z M64.6,476.2c-0.3,0.5-0.8,0.9-1.3,1.3c-0.5,0.4-1.2,0.6-1.9,0.9c-0.7,0.2-1.4,0.4-2.1,0.5l-1.6,0.3
		c0.1,0.7,0.3,1.3,0.7,1.7c0.4,0.4,1,0.5,1.8,0.5c0.6,0,1.2-0.1,1.6-0.2c0.5-0.1,1-0.3,1.5-0.5c0.2,0.3,0.4,0.7,0.5,1.1
		c0.1,0.4,0.1,0.9,0.1,1.4c-0.3,0.1-0.6,0.2-0.9,0.3c-0.3,0.1-0.7,0.2-1.1,0.3c-0.4,0.1-0.7,0.1-1.1,0.2c-0.4,0-0.7,0.1-1,0.1
		c-0.9,0-1.8-0.1-2.4-0.3c-0.7-0.2-1.2-0.6-1.7-1c-0.4-0.4-0.8-0.9-1-1.6c-0.2-0.6-0.3-1.3-0.3-2c0-0.9,0.2-1.9,0.5-2.8
		s0.8-1.7,1.4-2.5c0.6-0.7,1.3-1.3,2.2-1.7c0.9-0.4,1.8-0.7,2.9-0.7c0.5,0,1,0.1,1.4,0.2s0.8,0.3,1.1,0.6c0.3,0.3,0.6,0.6,0.8,0.9
		c0.2,0.4,0.3,0.8,0.3,1.3C65,475.1,64.9,475.7,64.6,476.2L64.6,476.2z M61.6,474.1c-0.2-0.2-0.5-0.3-0.8-0.3
		c-0.4,0-0.8,0.1-1.1,0.3c-0.3,0.2-0.6,0.4-0.9,0.7c-0.2,0.3-0.5,0.6-0.6,1c-0.2,0.4-0.3,0.8-0.4,1.1l1.2-0.2
		c0.6-0.1,1.1-0.2,1.4-0.4c0.4-0.1,0.7-0.3,0.9-0.5c0.2-0.2,0.4-0.4,0.4-0.5c0.1-0.2,0.1-0.4,0.1-0.6
		C61.9,474.6,61.8,474.3,61.6,474.1L61.6,474.1z M77.2,475.3c0,0.3-0.1,0.5-0.1,0.8l-1.4,7.6c-0.6,0.1-1.2,0.1-1.7,0.1
		c-0.5,0-1.1,0-1.6-0.1l1.3-7.4c0.1-0.3,0.1-0.6,0.1-0.9c0-0.5-0.1-0.8-0.3-1c-0.2-0.2-0.5-0.3-0.9-0.3c-0.2,0-0.5,0.1-0.7,0.2
		c-0.3,0.1-0.5,0.3-0.8,0.7c-0.3,0.4-0.6,0.8-0.8,1.5c-0.3,0.6-0.5,1.5-0.7,2.5l-0.9,4.7c-0.6,0.1-1.2,0.1-1.7,0.1
		c-0.5,0-1.1,0-1.6-0.1l1.3-6.9c0.2-1,0.3-1.8,0.4-2.6c0.1-0.8,0.1-1.3,0.1-1.8c0-0.2,0-0.3,0-0.4s0-0.2,0-0.4
		c0.5-0.1,1-0.1,1.5-0.1c0.2,0,0.5,0,0.7,0s0.5,0.1,0.7,0.1c0,0.1,0.1,0.3,0.1,0.4c0,0.2,0,0.4,0,0.8c0,0.1,0,0.3,0,0.4
		c0,0.1,0,0.3-0.1,0.5c0.2-0.3,0.4-0.6,0.7-0.9s0.6-0.6,1-0.8c0.4-0.2,0.7-0.4,1.1-0.5c0.4-0.1,0.8-0.2,1.2-0.2
		c0.9,0,1.7,0.2,2.2,0.7c0.5,0.5,0.8,1.3,0.8,2.4C77.3,474.8,77.3,475,77.2,475.3L77.2,475.3z M90.4,470.1l-1.5,8.4
		c-0.2,1-0.3,1.8-0.4,2.6c-0.1,0.8-0.1,1.3-0.1,1.8c0,0.2,0,0.3,0,0.4s0,0.2,0,0.4c-0.5,0.1-1,0.1-1.5,0.1c-0.4,0-0.9,0-1.4-0.1
		c0-0.1-0.1-0.3-0.1-0.4c0-0.2,0-0.4,0-0.8c0-0.1,0-0.3,0-0.5s0-0.4,0.1-0.6c-0.2,0.4-0.5,0.7-0.8,1c-0.3,0.3-0.6,0.6-1,0.8
		c-0.4,0.2-0.8,0.4-1.2,0.6c-0.4,0.1-0.9,0.2-1.3,0.2c-1,0-1.8-0.3-2.3-1c-0.5-0.6-0.8-1.5-0.8-2.6c0-1.2,0.2-2.3,0.5-3.4
		c0.3-1.1,0.9-2,1.6-2.9c0.7-0.8,1.5-1.5,2.6-2c1-0.5,2.2-0.8,3.6-0.8c0.1,0,0.2,0,0.3,0s0.2,0,0.3,0c0.2-0.9,0.3-1.7,0.4-2.3
		c0.1-0.6,0.1-1.2,0.1-1.6c0-0.2,0-0.3,0-0.4c0-0.1,0-0.2,0-0.4c0.3,0,0.6-0.1,0.9-0.1c0.3,0,0.6,0,0.9,0c0.4,0,0.9,0,1.5,0.1
		c0.1,0.2,0.1,0.5,0.1,0.9C90.7,468.3,90.6,469.1,90.4,470.1L90.4,470.1z M86,474.1c-0.1,0-0.3,0-0.4,0c-0.8,0-1.4,0.2-1.9,0.6
		c-0.5,0.4-0.9,0.8-1.3,1.4c-0.3,0.6-0.6,1.2-0.7,1.8c-0.2,0.6-0.2,1.2-0.2,1.8c0,1.1,0.4,1.7,1.1,1.7c0.7,0,1.4-0.4,2.1-1.4
		c0.6-0.9,1.1-2.2,1.4-3.8l0.3-2C86.2,474.2,86.1,474.1,86,474.1L86,474.1z M103.7,468.8c-0.1,0.4-0.4,0.9-0.6,1.4
		c-0.5-0.2-0.9-0.3-1.3-0.4c-0.4-0.1-0.8-0.1-1.2-0.1c-1,0-1.9,0.2-2.7,0.7c-0.7,0.4-1.3,1-1.8,1.8c-0.5,0.7-0.8,1.5-1,2.5
		c-0.2,0.9-0.3,1.8-0.3,2.8c0,1.4,0.3,2.3,1,2.9s1.5,0.9,2.6,0.9c0.2,0,0.5,0,0.7,0c0.3,0,0.5-0.1,0.6-0.1l1-5.8
		c0.3-0.1,0.6-0.1,0.9-0.1s0.6,0,0.8,0c0.2,0,0.5,0,0.8,0s0.6,0.1,0.9,0.1l-1.5,8.3c-0.7,0.2-1.4,0.4-2.3,0.5
		c-0.9,0.1-1.6,0.1-2.4,0.1c-1.1,0-2.1-0.2-3-0.5c-0.9-0.3-1.6-0.8-2.1-1.3c-0.6-0.6-1-1.3-1.3-2c-0.3-0.8-0.4-1.6-0.4-2.5
		c0-1.5,0.2-2.9,0.7-4.2c0.4-1.3,1.1-2.5,1.9-3.5c0.8-1,1.8-1.8,2.9-2.3c1.1-0.6,2.4-0.8,3.8-0.8c0.7,0,1.4,0,2,0.1s1.2,0.3,1.7,0.5
		C104,467.9,103.8,468.3,103.7,468.8L103.7,468.8z M113.2,473.4c-0.1,0.5-0.3,0.9-0.4,1.2c-0.1,0-0.2,0-0.3,0c-0.1,0-0.2,0-0.4,0
		c-0.6,0-1.2,0.1-1.6,0.3c-0.4,0.2-0.8,0.5-1,0.9c-0.3,0.4-0.5,0.9-0.6,1.4c-0.2,0.6-0.3,1.2-0.4,1.9l-0.9,4.7
		c-0.6,0.1-1.2,0.1-1.7,0.1c-0.5,0-1.1,0-1.6-0.1l1.3-6.9c0.2-1,0.3-1.8,0.4-2.6c0.1-0.8,0.1-1.3,0.1-1.8c0-0.2,0-0.3,0-0.4
		s0-0.2,0-0.4c0.5-0.1,1-0.1,1.5-0.1c0.2,0,0.5,0,0.7,0s0.5,0.1,0.7,0.1c0,0.1,0.1,0.3,0.1,0.4c0,0.2,0,0.4,0,0.8c0,0.1,0,0.3,0,0.4
		s0,0.3-0.1,0.5c0.2-0.3,0.4-0.6,0.6-0.8c0.2-0.3,0.5-0.5,0.8-0.7c0.3-0.2,0.6-0.4,1-0.5c0.3-0.1,0.7-0.2,1.1-0.2
		c0.3,0,0.6,0,0.8,0.1c0,0.1,0,0.1,0,0.2s0,0.1,0,0.2C113.4,472.5,113.3,473,113.2,473.4L113.2,473.4z M117.2,483.7
		c-0.6,0.1-1.1,0.1-1.7,0.1c-0.5,0-1,0-1.6-0.1l1.7-9.5h-1.5v-0.1c0,0,0-0.1,0-0.2c0-0.4,0-0.8,0.1-1.1c0.1-0.3,0.2-0.7,0.4-1.1h4.7
		L117.2,483.7L117.2,483.7z M131.8,470.1l-1.5,8.4c-0.2,1-0.3,1.8-0.4,2.6c-0.1,0.8-0.1,1.3-0.1,1.8c0,0.2,0,0.3,0,0.4s0,0.2,0,0.4
		c-0.5,0.1-1,0.1-1.5,0.1c-0.4,0-0.9,0-1.4-0.1c0-0.1-0.1-0.3-0.1-0.4c0-0.2,0-0.4,0-0.8c0-0.1,0-0.3,0-0.5s0-0.4,0.1-0.6
		c-0.2,0.4-0.5,0.7-0.8,1c-0.3,0.3-0.6,0.6-1,0.8c-0.4,0.2-0.8,0.4-1.2,0.6c-0.4,0.1-0.9,0.2-1.3,0.2c-1,0-1.8-0.3-2.3-1
		c-0.5-0.6-0.8-1.5-0.8-2.6c0-1.2,0.2-2.3,0.5-3.4c0.4-1.1,0.9-2,1.6-2.9c0.7-0.8,1.5-1.5,2.6-2c1-0.5,2.2-0.8,3.6-0.8
		c0.1,0,0.2,0,0.3,0s0.2,0,0.3,0c0.2-0.9,0.3-1.7,0.4-2.3c0.1-0.6,0.1-1.2,0.1-1.6c0-0.2,0-0.3,0-0.4c0-0.1,0-0.2,0-0.4
		c0.3,0,0.6-0.1,0.9-0.1s0.6,0,0.9,0c0.4,0,0.9,0,1.5,0.1c0.1,0.2,0.1,0.5,0.1,0.9C132.1,468.3,132,469.1,131.8,470.1L131.8,470.1z
		 M127.4,474.1c-0.1,0-0.3,0-0.4,0c-0.7,0-1.4,0.2-1.9,0.6c-0.5,0.4-0.9,0.8-1.3,1.4c-0.3,0.6-0.6,1.2-0.7,1.8
		c-0.1,0.6-0.2,1.2-0.2,1.8c0,1.1,0.4,1.7,1.1,1.7s1.4-0.4,2.1-1.4c0.6-0.9,1.1-2.2,1.4-3.8l0.4-2
		C127.7,474.2,127.5,474.1,127.4,474.1L127.4,474.1z"/>
	<g>
		<path fill="#981D25" d="M38,472.6L38,472.6c-0.1-0.3-0.2-0.5-0.3-0.7c-0.2-0.2-0.4-0.4-0.6-0.5c-0.1-0.1-0.2-0.1-0.3-0.2
			c-0.1,0-0.1-0.1-0.2-0.1c-0.4-0.1-0.8-0.2-1.2-0.2c-1,0-2.1,0.3-3.1,0.9c-3.2,1.9-6.3,6.4-7.7,8.6l0.1-0.1l-0.6,1
			c2.5-0.1,8.2-0.3,11.3-2.4C38.9,476.3,38.3,473.5,38,472.6z"/>
		<path fill="#981D25" d="M6,476.9c3.5-2.1,7.1-7.5,8.3-9.5c-3.2,0.1-8.5,0.5-11.4,2.4c-2,1.2-3.5,4.1-2.6,6.3c0,0,0,0,0,0.1
			c0.1,0.2,0.2,0.4,0.3,0.7c0.6,0.8,1.6,1,2.3,1C3.9,477.8,5.1,477.4,6,476.9z"/>
		<path fill="#981D25" d="M26.9,476.1c-2.6-0.9-5.5-1.7-7.9-2.6c0-1.9-0.1-4.3-0.1-6.4c0-0.1,0-0.2,0-0.3c0-0.1,0-0.2,0-0.3
			c-0.1-1.8-0.1-3.5-0.2-4.4c-1.3,1.6-2.4,3.3-3.2,4.6c-0.1,0.1-0.1,0.2-0.2,0.3c0,0-0.1,0.1-0.1,0.2c0,0,0,0.1-0.1,0.1
			c-0.4,0.6-1.7,2.9-3.6,5.3c0.1,0.1,3.1,5.2,5.5,9.2c0.1,0.1,0.1,0.2,0.2,0.3c0.1,0.1,0.1,0.2,0.2,0.3c1.2,2.1,2.2,3.7,2.5,4.1
			l-8.3-2.6l-0.4-0.1l-0.4-0.1l-0.4-0.1c0.4-3.2,0.9-9.9,1.2-10.9c-1.5,1.8-3.2,3.7-5.1,4.8c-1.1,0.6-2.3,1-3.4,1
			c-0.7,0-1.3-0.1-1.8-0.4c-0.1,0-0.1-0.1-0.2-0.1c1.7,3.6,4.2,7.9,6.5,11c0.2,0.3,0.4,0.6,0.6,0.9l0,0c0.9,1.1,2.2,1.7,3.8,1.7
			c1,0,2-0.2,3.1-0.7c3.4-1.6,6.5-6.6,7.8-8.7l0,0c0.1-0.1,0.1-0.2,0.2-0.3c0,0,0-0.1,0.1-0.1l0,0c0-0.1,0.1-0.1,0.1-0.2
			c0.1-0.2,0.3-0.5,0.6-1c0.4-0.7,1.1-1.7,2-2.9C26.2,477,26.5,476.6,26.9,476.1z"/>
		<path fill="#981D25" d="M21.3,466.5c0.1,0.1,0.1,0.2,0.2,0.3c2,3.5,4.6,7.8,5.4,9.3c1.4-1.8,3.2-3.7,5.1-4.8c1.1-0.6,2.3-1,3.4-1
			c0.3,0,0.6,0,0.9,0.1l0,0l0,0c-2.4-1.5-5.8-3.5-7.6-4.6c0.1-0.4,0.1-0.9,0.2-1.4c0-0.1,0-0.3,0.1-0.4c0-0.1,0-0.3,0.1-0.4
			c0.2-1.6,0.4-3.1,0.5-4.2c0.4,0.5,0.8,1,1.1,1.6c0.1,0.1,0.2,0.2,0.2,0.4c0.1,0.1,0.1,0.2,0.2,0.3c0,0.1,0.1,0.1,0.1,0.2
			c1.7,2.5,5.1,8.7,5.1,8.7l0.4,0.1c0.2,0.1,0.3,0.1,0.5,0.2l0,0c-0.7-1.4-1.5-3-2.3-4.5c-1.1-2-2.3-3.9-3.6-5.7
			c-0.1-0.2-0.2-0.3-0.3-0.5c-0.3-0.4-0.5-0.7-0.8-1.1c-0.2-0.2-0.3-0.4-0.5-0.6c0,0,0,0-0.1-0.1l0,0c-0.8-0.7-2-1-3.3-1
			c-1.1,0-2.2,0.2-3,0.7c-1.6,0.8-3.2,2.4-4.6,4.1c0.3,0.5,1.3,2.2,2.5,4.2C21.2,466.3,21.3,466.4,21.3,466.5z"/>
	</g>
	<path fill="#981D25" d="M120,468.1c-0.1,0.5-0.2,1-0.4,1.5c-0.3,0-0.6,0.1-0.9,0.1s-0.6,0-0.8,0c-0.2,0-0.5,0-0.8,0s-0.6,0-0.8-0.1
		c0-0.5,0-1.1,0.1-1.5c0.1-0.5,0.2-1,0.4-1.5c0.3-0.1,0.6-0.1,0.9-0.1s0.6,0,0.8,0c0.2,0,0.5,0,0.8,0s0.6,0.1,0.9,0.1
		C120.1,467.1,120,467.6,120,468.1L120,468.1z"/>
</g>
<g id="Shopify">
	<path fill="#981D25" d="M39.1,533.2c0.8,0.4,2.3,1,3.6,1c1.3,0,1.9-0.7,1.9-1.5c0-0.8-0.5-1.4-1.8-2.1c-1.7-1-2.9-2.3-2.9-4.1
		c0-3.1,2.7-5.4,6.6-5.4c1.7,0,3,0.3,3.7,0.7l-1,3.2c-0.6-0.3-1.6-0.6-2.8-0.6c-1.3,0-2.1,0.6-2.1,1.5c0,0.7,0.6,1.2,1.7,1.8
		c1.7,1,3.2,2.4,3.2,4.3c0,3.6-2.9,5.6-6.9,5.5c-1.8,0-3.6-0.5-4.4-1.1L39.1,533.2"/>
	<path fill="#981D25" d="M50.2,537.2l4.3-22.8H59l-1.7,8.9h0.1c1.2-1.4,2.7-2.4,4.7-2.4c2.3,0,3.6,1.5,3.6,4c0,0.8-0.1,1.9-0.3,2.9
		l-1.7,9.2h-4.6l1.7-8.9c0.1-0.6,0.2-1.4,0.2-2c0-1-0.4-1.6-1.4-1.6c-1.4,0-2.9,1.8-3.5,4.7l-1.5,7.8L50.2,537.2"/>
	<path fill="#981D25" d="M81.8,527.3c0,5.5-3.6,10.2-8.8,10.2c-4,0-6.1-2.8-6.1-6.2c0-5.4,3.6-10.2,8.9-10.2
		C79.9,521,81.8,524.1,81.8,527.3 M71.4,531.2c0,1.6,0.6,2.9,2.2,2.9c2.4,0,3.7-4.2,3.7-6.9c0-1.3-0.5-2.7-2.1-2.7
		C72.7,524.5,71.4,528.6,71.4,531.2z"/>
	<path fill="#981D25" d="M80.7,543.5l3.1-16.3c0.4-1.8,0.7-4.3,0.9-5.9h3.9l-0.3,2.4h0.1c1.2-1.7,2.9-2.6,4.7-2.6
		c3.3,0,4.6,2.7,4.6,5.7c0,5.4-3.4,10.8-8.7,10.8c-1.1,0-2.1-0.3-2.6-0.6h-0.1l-1.2,6.6L80.7,543.5 M87.1,533.5
		c0.5,0.4,1,0.6,1.8,0.6c2.5,0,4.2-4.1,4.2-7c0-1.2-0.4-2.5-1.8-2.5c-1.6,0-3,1.8-3.5,4.6L87.1,533.5z"/>
	<path fill="#981D25" d="M97.9,537.2l3-15.8h4.5l-3,15.8H97.9 M103.7,519.4c-1.3,0-2.1-0.9-2.1-2.2c0-1.5,1.1-2.6,2.6-2.6
		c1.4,0,2.2,0.9,2.2,2.2C106.3,518.5,105.1,519.4,103.7,519.4L103.7,519.4z"/>
	<path fill="#981D25" d="M106.2,537.2l2.4-12.5h-2.1l0.6-3.4h2.1l0.1-0.7c0.4-1.9,1.1-3.7,2.6-5c1.2-1,2.8-1.5,4.4-1.5
		c1.1,0,1.9,0.2,2.4,0.4l-0.9,3.5c-0.4-0.1-0.8-0.2-1.4-0.2c-1.5,0-2.4,1.4-2.6,2.9l-0.2,0.7h3.1l-0.6,3.4h-3l-2.4,12.5L106.2,537.2
		"/>
	<path fill="#981D25" d="M122.3,521.4l0.7,7.1c0.2,1.6,0.3,2.7,0.4,3.7h0.1c0.4-1.1,0.7-2.1,1.3-3.8l2.7-7.1h4.6l-5.5,11.7
		c-1.9,4-3.8,6.9-5.8,8.8c-1.6,1.5-3.5,2.2-4.4,2.4l-1.2-3.8c0.7-0.3,1.7-0.6,2.5-1.3c1-0.7,1.9-1.7,2.4-2.7
		c0.1-0.2,0.2-0.4,0.1-0.7l-2.7-14.5L122.3,521.4"/>
	<path fill="#981D25" d="M22.1,511.2l-1.1,0.3c-0.5-1.4-1.2-2.5-2-3.1c-0.6-0.4-1.3-0.6-2-0.6c-0.2-0.2-0.3-0.4-0.5-0.5
		c-0.8-0.7-1.9-0.8-3.1-0.3c-3.8,1.4-5.4,6.2-5.9,8.7l-3.3,1c0,0-0.8,0.2-1,0.4C3,517.3,3,518,3,518l-2.8,21.5l20.9,3.9l1.6-32.3
		C22.4,511.1,22.1,511.2,22.1,511.2 M16.8,512.8l-3.6,1.1c0.5-1.9,1.4-3.8,3.2-4.6C16.7,510.4,16.8,511.7,16.8,512.8z M13.7,508.3
		c0.8-0.3,1.4-0.3,1.8,0c-2.4,1.1-3.4,3.8-3.8,6.1l-2.9,0.9C9.4,513,10.9,509.3,13.7,508.3z M15.8,524.1c-0.2-0.1-0.4-0.2-0.6-0.2
		c-0.2-0.1-0.5-0.2-0.7-0.2c-0.3-0.1-0.5-0.1-0.8-0.1c-0.3,0-0.6,0-0.9,0c-0.3,0-0.6,0.1-0.8,0.2c-0.2,0.1-0.4,0.2-0.6,0.3
		c-0.2,0.1-0.3,0.3-0.4,0.5s-0.1,0.4-0.2,0.7c0,0.2,0,0.4,0.1,0.5c0.1,0.2,0.2,0.3,0.3,0.5c0.1,0.2,0.3,0.3,0.5,0.5
		c0.2,0.2,0.5,0.3,0.7,0.5c0.4,0.3,0.8,0.5,1.2,0.9c0.4,0.3,0.8,0.7,1.1,1.1c0.3,0.4,0.6,0.9,0.8,1.5c0.2,0.6,0.3,1.2,0.2,1.8
		c0,1.1-0.3,2-0.7,2.8c-0.4,0.8-0.9,1.4-1.6,1.8c-0.6,0.4-1.4,0.7-2.2,0.8c-0.8,0.1-1.6,0.1-2.5-0.1l0,0l0,0l0,0l0,0
		c-0.4-0.1-0.8-0.2-1.2-0.4c-0.4-0.1-0.7-0.3-1-0.5s-0.6-0.4-0.8-0.6c-0.2-0.2-0.4-0.4-0.6-0.6l1-3.2c0.2,0.1,0.4,0.3,0.6,0.4
		c0.2,0.2,0.5,0.3,0.8,0.5c0.3,0.2,0.6,0.3,0.9,0.4c0.3,0.1,0.6,0.2,0.9,0.3c0.3,0,0.5,0,0.7,0c0.2-0.1,0.4-0.1,0.6-0.3
		c0.2-0.1,0.3-0.3,0.4-0.5s0.1-0.4,0.1-0.6c0-0.2,0-0.4-0.1-0.6s-0.1-0.4-0.3-0.6c-0.1-0.2-0.3-0.4-0.5-0.6s-0.5-0.4-0.8-0.6
		c-0.4-0.3-0.7-0.6-1-0.9c-0.3-0.3-0.6-0.7-0.8-1c-0.2-0.4-0.4-0.8-0.5-1.2c-0.1-0.4-0.2-0.9-0.1-1.4c0-0.9,0.2-1.6,0.5-2.3
		c0.3-0.7,0.7-1.4,1.2-1.9c0.5-0.6,1.2-1,1.9-1.4c0.8-0.4,1.6-0.6,2.6-0.8c0.4-0.1,0.9-0.1,1.3-0.1c0.4,0,0.8,0,1.1,0.1
		c0.4,0,0.7,0.1,1,0.2c0.3,0.1,0.5,0.2,0.7,0.3L15.8,524.1z M18,512.4c0-0.1,0-0.3,0-0.4c0-1.1-0.2-2.1-0.5-2.8
		c0.3,0,0.5,0.1,0.8,0.3c0.7,0.5,1.1,1.4,1.5,2.4L18,512.4z"/>
	<path fill="#981D25" d="M28.8,514c0,0,0-0.2-0.1-0.2c-0.1-0.1-0.2-0.1-0.2-0.1l-2.9-0.2l-2.2-2.2c-0.1-0.1-0.2-0.1-0.3-0.1
		l-1.6,32.3l11.3-2.4L28.8,514"/>
</g>
<g id="Locaweb">
	<path fill="#981D25" d="M274.9,758.5c-0.6-11.1-8.7-16.8-24-16.8c-0.5,0-1.1,0-1.6,0H107.8h-0.3c-5.7,0.1-12.6,0.2-18.1,3.7
		c-4.2-2.4-10.4-3.7-17.3-3.7c-7.1,0-13.7,1.4-18.2,3.8c-0.2-0.4-0.4-0.7-0.6-1.1c-1.4-1.8-4-2.7-7.6-2.7h-11
		c-7.3,0-12.1,2.8-14.1,8.4l-0.1,0.2c-0.1,0.6-3.6,15-4.9,22.4c-1.1,6.5-0.5,11.1,2.1,16l0.1,0.1c6,9.7,15.1,11.1,24,11.1h20.7l0,0
		c2.6,0,14.9-0.4,20.3-3.8c4,3.2,9.7,3.7,13,3.7h90.5c3.1,0,6.4-1.4,8.2-3.7c4.5,3.3,9.4,3.5,14.2,3.7h37.3
		c6.6-0.3,15.9-1.6,21.6-8.6c3.5-4.7,5.1-11.1,4.7-18.6C275.7,766.4,275,759.3,274.9,758.5z M268.9,771.5l-0.3,0.5v0.5
		c0.3,4.8-0.1,11.5-3.9,16.7c-4.7,5.8-12.6,6.9-18.9,7.3h-37.2c-5.2-0.2-9.7-0.4-13.7-4.3l-2.4-2.3l-0.6,3.3
		c-0.3,1.9-3.4,3.3-5.9,3.3h-90h-0.3c-2.5,0-8.5-0.4-11.6-3.7l-1.2-1.3l-1.3,1.2c-2.6,2.6-13,3.7-19.3,3.8H41.8
		c-9.1-0.1-16.1-1.7-21-9.4c-2.2-4.2-2.7-8.1-1.7-13.8c1.2-7,4.5-20.8,4.8-22.1c1.5-4.1,5.1-6,10.8-6h11c2.4,0,4.1,0.5,4.8,1.4
		c0.5,0.6,0.3,1.3,0.3,1.4l-1.1,4.7l3.9-2.9c3.8-2.9,10.9-4.6,18.5-4.6c6.7,0,12.9,1.4,16.4,3.7l1,0.7l1-0.7
		c4.7-3.5,11.6-3.6,17.1-3.6h141.8c0.5,0,1.1,0,1.6,0c8.5,0,19.9,1.4,20.6,13.6v0.1C271.4,758.9,272.2,765.7,268.9,771.5z"/>
	<path fill="#981D25" d="M249.7,774.4c-0.6-0.5-1.6-0.7-3.1-0.7h-0.7l0,0h-8.8l-1.5,7.5h9.2h1l0,0c0.5-0.1,0.8-0.1,1-0.1
		c0.6-0.1,1-0.3,1.4-0.7c1.2-0.7,1.9-1.7,2.2-3.1C250.8,775.9,250.6,775,249.7,774.4z"/>
	<path fill="#981D25" d="M71.6,760.2c-0.8,0-1.5,0-2.3,0.1l0,0c-2,0.5-3.8,1.4-5,2.9c-1.4,1.6-2.5,4.1-3.2,7.6
		c-0.8,3.7-0.7,6.5,0.2,8.3c0.9,1.8,2.9,2.6,5.8,2.6c0.8,0,1.5,0,2.2-0.2l0,0c1.8-0.3,3.4-1.2,4.5-2.3c1.8-1.8,3.1-4.6,3.8-8.2
		c0.7-3.3,0.7-5.8,0-7.6C76.7,761.2,74.7,760.2,71.6,760.2z M73.9,771.2c-0.6,2.3-1.5,4.2-2.6,5.2c-0.5,0.6-1.2,1-2,1.2
		c-0.2,0-0.4,0.1-0.7,0.1c-0.4,0.1-0.8,0.1-1.2,0.1c-1.6-0.1-2.6-0.8-3-2c-0.4-1.2-0.3-3.1,0.4-5.5c0.6-2.2,1.3-3.9,2.2-4.8
		c0.7-0.8,1.4-1.3,2.3-1.6c0.2-0.1,0.4-0.1,0.6-0.2c0.5,0,0.8,0,1.3,0c1.7,0.1,2.8,0.9,3.1,2.4C74.7,767.4,74.5,769.1,73.9,771.2z"
		/>
	<polygon fill="#981D25" points="133,766.5 128.5,773.8 133,773.8 137.6,773.8 135.4,762.6 	"/>
	<path fill="#981D25" d="M252.6,761.3c-0.6-0.5-1.6-0.7-3.3-0.7h-3.4l0,0h-6l-1.5,7.5h7.5l0,0h1.7c1,0,1.6-0.1,2.1-0.2
		c0.5-0.1,1-0.2,1.4-0.6c1.2-0.8,1.9-1.9,2.2-3.1C253.6,762.8,253.4,761.9,252.6,761.3z"/>
	<path fill="#981D25" d="M253.9,750.7h-19.1c-1.3,0-2.4,0.3-3.1,1c-0.9-0.6-1.8-1-2.9-1h-8.9c-6.5,0-10.7,0.8-14.7,3.7
		c-0.5-2.4-2.1-3.7-4.5-3.7h-5.2c-3.3,0-4.7,1.3-5.9,4l-4.4,8.9l-0.5-8.5c-0.3-2.9-1.8-4.4-4.5-4.4h-7.1c-2.1,0-3.7,1.3-4.9,3.9
		l-4.3,9l-0.8-8.3c-0.5-3.1-2.1-4.7-4.7-4.7h-6.7c-3,0-4.5,2.8-4,5.7l2.9,24.3l-5.2-25.6c-0.8-3.3-2.1-4.2-4.7-4.3H134
		c-3.2,0-3.9,1.2-5.5,3.9l-14.4,23c-0.3-0.3-1.8-0.6-3.2-0.6c-4,0.1-7.1,0.2-9.1,0c-1,0-2.3-0.3-2.3-1.8c0-1.4,0-2.9,0.5-4.4
		c1-3.9,0.9-6,8.5-6h6.1c3.6,0,5.2-0.5,6-3.5l1-5c0.5-3.1-1-5.5-4-5.5h-10.8c-8.2-0.1-14.2,2.7-18,8.4c-2.6-6.5-10.4-9.5-19.3-8.4
		c-1.3,0.2-2.6,0.4-4,0.8c-10.9,2.8-16.4,11.6-16.7,25.6l-8.6-0.1l4.3-21.2c0.5-2.8-1.7-4.9-4.1-4.9h-6c-2.8-0.1-4.5,1.3-5.1,4
		l-4.2,20.9c-1.9,9.3,3.7,15.3,13,15.3H48c2.9,0,4.6-1.3,5.1-4c3.3,3.1,8.1,4.7,14.5,4.3c0.6,0,1.3-0.1,1.8-0.2
		c6.9-0.8,11.7-3.6,15-8.2c2.1,5.2,6.3,7.9,12.7,8h23c3.4,0,3.7-0.6,5.7-3.7l2.5-3.7h6.3l0.7,3.7c0.5,2.5,2.1,3.7,4.7,3.7h7.1
		c2.3,0,3.8-0.9,4.4-2.8c0.6,1.9,2.1,2.8,4.4,2.8h6.7c2.5,0,4.2-1.3,5.2-3.9l3.9-7.8l0.6,7.6c0.3,2.7,1.8,4.1,4.5,4.2h7.7
		c2.1,0,3.1-1.4,4.4-4.1l6.3-11.8c-0.1,10.6,5.2,15.9,16,15.9h10.5c1.5,0,2.6-0.3,3.2-1c0.5,0.6,1.5,1,2.9,1h16.7
		c16.5,0.4,19.9-12.3,16.7-19.5C269.3,762.3,265.2,750.7,253.9,750.7z M48.7,786.8h-7.3c-3.4,0.1-5.8-0.1-7.3-0.6
		c-3.3-0.9-5-3.1-5.3-6.7c0-1.3,0.3-3.5,0.9-6.7l3.8-18h6.8l-3.7,18c-0.5,2.2-0.7,3.7-0.7,4.4c-0.1,1.5,0.4,2.4,1.6,3
		c1,0.5,3,0.8,6,0.8H50L48.7,786.8z M84.9,771.4c-0.6,3.3-1.7,6.1-3.4,8.4c-2,2.9-4.5,5-7.6,6c-1.4,0.6-2.9,0.9-4.6,1.1l0,0
		c-1,0.1-1.9,0.1-2.9,0.1c-3.5,0-6.6-0.7-8.9-2c-2-1.2-3.4-2.9-4.1-5.3c-0.6-2.4-0.6-5.4,0.1-8.8c1.3-6,3.7-10.4,7.4-12.9
		c2.2-1.7,5-2.7,8.4-3.2l0,0c1.1-0.1,2.2-0.1,3.4-0.2c3.2,0,5.9,0.6,8.1,1.6c2.6,1.4,4.1,3.5,4.6,6.5
		C85.9,765.3,85.6,768.1,84.9,771.4z M110.8,786.8H99.7c-2.1,0-3.7-0.1-4.8-0.3c-3.8-0.8-6.1-3-7.1-6.7c-0.6-2.3-0.5-5.4,0.2-8.9
		c0.9-4.3,2.6-7.8,4.8-10.5c1.6-2,3.5-3.4,5.7-4.2c2.2-1,4.9-1.4,8.1-1.4h10.9l-1.2,5.8h-10.1c-3.1,0-5.5,0.8-7.3,2.4
		c-1.4,1.3-2.6,3.8-3.3,7.2c-1,4.7-0.7,7.8,0.7,9.4c1.2,0.9,3,1.5,5.7,1.5h9.7L110.8,786.8z M139.5,786.8l-1.6-7.4H133h-7.3
		l-4.7,7.4h-8l19.9-31.8l8-0.1l6.4,31.9H139.5z M184.1,786.8h-7.8l-1.7-23l-11.6,23h-7.7l-3.7-31.9h7.1l2.1,24.1l11.8-24.1h7.6
		l1.6,24.1l12.3-24.1h6.9L184.1,786.8z M224.9,773.8h-18c-0.3,2.7,0.1,4.7,1.2,5.8c1.2,1,3.4,1.6,6.7,1.6h8.7l-1.3,5.6h-8.8
		c-2.5,0-4.6-0.1-6.3-0.4c-2.8-0.5-4.8-1.7-6.1-3.9c-1.8-2.9-2.1-6.9-1-11.9c1.2-5.5,3.7-9.8,7.8-13c1.4-1,2.8-1.8,4.2-2.1
		c1.4-0.5,3.3-0.7,5.5-0.7H229l-1.2,5.8h-8.9c-2.3,0-4.1,0.1-5.2,0.5c-1.2,0.3-2.1,0.9-3,1.9c-0.6,0.6-1.1,1.3-1.4,1.8
		c-0.2,0.7-0.7,1.8-1,3.3h17.9L224.9,773.8z M261,763.3c-0.3,1.6-1.1,3.1-2.2,4.7c-1.2,1.3-2.6,2.3-4,2.9c2.8,1.4,3.8,4,3.1,7.5
		c-0.5,2.1-1.3,3.9-2.6,5.3c-1.2,1.1-2.5,2.1-3.9,2.6c-1.3,0.3-3.1,0.6-5.5,0.6l0,0h-0.7h-17.7l6.8-31.9h11.6l0,0h6.5
		c2.8,0,4.8,0.4,6,1c1.3,0.8,2.2,2.1,2.6,3.7C261.4,760.8,261.4,762,261,763.3z"/>
</g>
<g id="Rackspace">
	<g>
		<g>
			<path fill="#981D25" d="M164.2,519.4c-0.5,1.1-0.3,2.1,0.5,2.1s1.9-0.9,2.4-2c0.5-1.1,0.3-2.1-0.5-2.1
				C165.9,517.4,164.8,518.3,164.2,519.4z M170.8,515.4L170.8,515.4L170.8,515.4c-0.5,1.4-1.3,2.9-2.1,4.1c-1.7,2.5-4,4-5.3,3.5
				c-1.3-0.5-1-3,0.7-5.5c0.4-0.6,0.8-1.1,1.2-1.5l0,0l0,0l0,0c-0.5,0.1-1.1,0.2-1.6,0.3l0,0c-5.6,6.9-8,15.8-7.7,23.8l0,0l0,0l0,0
				c-3.3-1.3-5.7-4.5-6-8.6l0,0c-0.4-7.2,5.3-14.6,12.8-16.5C165.7,514.2,168.5,514.4,170.8,515.4z"/>
			<path fill="#981D25" d="M168.7,534.8c-0.5,0.4-1.1,0.7-1.7,1l0,0l0,0c-0.1-1.7-0.5-3.4-1.1-4.8c-1.7-3.7-4.7-4-6.7-0.6
				c-1.2,2.1-1.8,5-1.6,7.8l0,0c2.1,0.7,4.5,0.7,7.1,0.1c7.5-1.9,13.2-9.3,12.8-16.5c-0.4-6.3-5.3-10.4-11.6-10l0,0
				c-0.6,0.6-1.2,1.2-1.7,1.9l0,0l0,0l0,0c3.7-0.5,6.6,0.3,8.6,1.8l0,0l0,0C166,524.9,166.8,530.2,168.7,534.8
				C168.7,534.7,168.7,534.7,168.7,534.8L168.7,534.8z"/>
		</g>
		<g>
			<g>
				<path fill="#981D25" d="M252.7,527.7c-1,1-1.8,2.9-1.8,4.5c0,1.3,0.5,2.2,1.4,2.2c1.4,0,2.6-1.4,3-3.6c0.1-0.5,0.2-1,0.3-1.4
					c0.1-0.4,0.1-0.8,0.1-1.1c0-0.9-0.5-1.4-1.4-1.4C253.8,527,253.2,527.2,252.7,527.7z M254.1,537.2L254.1,537.2l0.3-1.6l0,0l0,0
					c-0.7,1.2-2.1,1.9-3.6,1.9c-2.5,0-3.7-2.2-3.7-4.5c0-2.6,1-5.1,2.7-6.8c1.4-1.4,3.2-2.2,5.3-2.2c1.5,0,2.7,0.5,3.4,1.3
					c1.1,1.3,1,3.2,0.7,4.6l-1.4,7.2l0,0L254.1,537.2C254.2,537.2,254.1,537.2,254.1,537.2z"/>
				<path fill="#981D25" d="M230.5,524.1c1.6,0,2.7,0.3,3.3,0.7l0,0l-0.5,2.8l0,0l0,0c-0.6-0.3-1.7-0.7-2.9-0.7
					c-1,0-1.6,0.4-1.6,1.1c0,0.5,0.5,0.9,1.5,1.4c1.4,0.7,2.9,1.7,2.9,3.5c0,1.2-0.4,2.2-1.2,2.9c-1,1-2.7,1.6-4.7,1.6
					c-1.6,0-3.1-0.4-3.9-1l0,0l0.5-2.9l0,0l0,0c0.8,0.5,2.5,1.1,3.7,1.1c0.9,0,1.6-0.4,1.6-1.1c0-0.6-0.4-1.1-1.6-1.6
					c-1.8-0.9-2.7-2-2.7-3.4C224.9,525.9,227.1,524.1,230.5,524.1z"/>
				<path fill="#981D25" d="M268.1,524.1c1,0,1.9,0.2,2.6,0.4l0,0l-0.6,3.1l0,0l0,0c-0.6-0.3-1.3-0.5-2.1-0.5
					c-2.7,0-4.3,2.4-4.3,4.6c0,1.9,1.3,2.6,2.5,2.6c1.1,0,2-0.2,3.1-0.8l0,0l0,0l-0.6,3.1l0,0c-0.9,0.4-2.2,0.7-3.6,0.7
					c-3.3,0-5.4-2.1-5.4-5.3C259.8,527.6,263.4,524.1,268.1,524.1z"/>
				<path fill="#981D25" d="M209.4,524.1c1,0,1.9,0.2,2.6,0.4l0,0l-0.6,3.1l0,0l0,0c-0.6-0.3-1.3-0.5-2.1-0.5
					c-2.7,0-4.3,2.4-4.3,4.6c0,1.9,1.3,2.6,2.5,2.6c1.1,0,2-0.2,3.1-0.8l0,0l0,0l-0.6,3.1l0,0c-0.9,0.4-2.2,0.7-3.6,0.7
					c-3.3,0-5.4-2.1-5.4-5.3C201,527.6,204.6,524.1,209.4,524.1z"/>
				<path fill="#981D25" d="M189,524c0.2,0,0.5,0,0.7,0.1l0,0l0,0l-0.7,3.7l0,0l0,0c-0.1,0-0.3-0.1-0.6-0.1c-2.6,0-3.6,2.5-4,4.6
					l-0.9,4.9l0,0h-3.8l0,0l0,0l2.5-12.9l0,0h3.3l0,0l0,0l-0.4,2.2l0,0c0,0,0,0,0.1,0C186.1,525,187.5,524,189,524z"/>
				<path fill="#981D25" d="M194,527.7c-1,1-1.8,2.9-1.8,4.5c0,1.3,0.5,2.2,1.4,2.2c1.4,0,2.6-1.4,3-3.6c0.1-0.5,0.2-1,0.3-1.4
					s0.1-0.8,0.1-1.1c0-0.9-0.5-1.4-1.4-1.4C195,527,194.5,527.2,194,527.7z M195.4,537.2L195.4,537.2l0.3-1.6l0,0l0,0
					c-0.7,1.2-2.1,1.9-3.6,1.9c-2.5,0-3.7-2.2-3.7-4.5c0-2.6,1-5.1,2.7-6.8c1.4-1.4,3.2-2.2,5.3-2.2c1.5,0,2.7,0.5,3.4,1.3
					c1.1,1.3,1,3.2,0.7,4.6l-1.4,7.2l0,0L195.4,537.2L195.4,537.2z"/>
				<path fill="#981D25" d="M239.4,534.6c2,0,3.5-2.8,3.5-5.3c0-0.6-0.1-2.1-1.5-2.1c-1.4,0-2.6,1.6-3.1,4.1
					C238.1,532.1,237.7,534.6,239.4,534.6z M242.7,524.1c2.5,0,4.2,1.9,4.2,4.9c0,3.1-1.5,6.3-4.2,7.8c-2.5,1.3-4.7,0.7-5.3-0.3l0,0
					l-0.9,4.9l0,0h-3.8l0,0l0,0l3.2-17l0,0h3.3l0,0l0,0l-0.3,1.7c0,0,0,0,0,0.1c0,0,0,0,0.1,0l0,0
					C239.9,524.8,241.2,524.1,242.7,524.1z"/>
				<path fill="#981D25" d="M214.5,519.8h3.7l0,0l0,0l-2,10.3l0,0l0,0l5-5.8l0,0h4.1l0,0l0,0l0,0l-5.2,5.9l3.2,6.9l0,0l0,0l0,0h-4.1
					l0,0l-3.1-6.8l0,0l0,0l-1.3,6.8l0,0h-3.7l0,0l0,0L214.5,519.8C214.4,519.8,214.4,519.8,214.5,519.8z"/>
				<path fill="#981D25" d="M278.4,527.9c0-0.7-0.5-1.1-1.4-1.1c-1.6,0-2.7,1.3-3,2.6l0,0l0,0l0,0l0,0c2.2,0,3.4-0.2,4-0.8
					C278.3,528.5,278.4,528.2,278.4,527.9z M277.5,524.1c2.7,0,4.5,1.6,4.5,3.9c0,1.1-0.3,1.9-1,2.6c-1.3,1.2-3.6,1.8-7.2,1.7l0,0
					l0,0l0,0l0,0c0,0.4,0.1,0.9,0.4,1.2c0.5,0.6,1.4,1,2.4,1c1.6,0,2.9-0.4,4.4-1.2l0,0l0,0l-0.6,3.2l0,0c-1.8,0.9-3.9,1-4.8,1
					c-3.5,0-5.6-2-5.6-5.4c0-2,0.7-4,2-5.5C273.4,525,275.4,524.1,277.5,524.1z"/>
			</g>
		</g>
	</g>
</g>
<path fill="#981D25" d="M150,462.3c1.5,0,2.9,0,4.6,0c0,1.7,0,3.3,0,4.9c0,1.6,0,3.1,0,4.8c2.2,0,4.3,0,6.5,0c0-3.1,0-6.3,0-9.5
	c1.6,0,3.1,0,4.7,0c0,8,0,16,0,24c-1.5,0-3,0-4.6,0c0-3.5,0-6.8,0-10.3c-2.2,0-4.3,0-6.5,0c0,3.4,0,10.3,0,10.3H150
	C150,486.5,150,470.3,150,462.3z M258.3,486.9c0.3-0.1,0.5-0.1,0.7-0.2c2.7-0.5,4.7-1.9,5.4-4.7c0.7-2.9,0.1-5.4-2.2-7.5
	c-1.2-1.1-2.6-1.8-4-2.6c-1-0.5-1.9-1-2.8-1.7c-0.5-0.4-1-1-1-1.7c0-1,0.2-2,1.2-2.5c1-0.5,2.4-0.3,3.3,0.5c0.7,0.6,1,1.6,1.4,2.4
	c1.4-0.2,3.4-0.8,4.1-1.2c-0.9-4.1-4.5-6.3-8.9-5.6c-2.8,0.4-4.8,1.8-5.5,4.6c-0.8,3.1,0.1,5.3,2.7,7.2c1.2,0.8,2.4,1.5,3.7,2.2
	c0.9,0.5,1.8,1,2.6,1.8c1,0.9,1.4,2,0.9,3.4c-0.4,1.1-1.2,1.6-2.3,1.8c-1.3,0.2-2.3-0.5-3.1-1.6c-0.5-0.7-0.6-1.5-1-2.3
	c-1.5,0.3-2.9,0.6-4.3,0.9c-0.1,0.2-0.1,0.2-0.1,0.2c0,0.1,0,0.2,0.1,0.3c1,3.4,3.1,5.6,6.6,6.3C256.8,487,257.4,487,258.3,486.9z
	 M284,462.3c-5.1,0-10.1,0-15.3,0c0,1.5,0,2.8,0,4.2c1.8,0,3.5,0,5.3,0c0,6.7,0,13.3,0,20c1.6,0,3.1,0,4.7,0c0-6.7,0-13.3,0-19.9
	c1.8,0,3.5,0,5.2,0C284,465.1,284,463.7,284,462.3z M191.9,486.5c1.5,0,3,0,4.6,0c0-3.3,0-6.5,0-9.7c0.8-0.1,1.5-0.1,2.2,0
	c1.3,3.2,2.7,6.4,4,9.6c1.7,0,3.3,0,5,0c-0.8-1.9-1.5-3.6-2.3-5.4c-0.7-1.7-1.5-3.5-2.2-5.3c2.1-0.9,3.2-2.4,3.5-4.5
	c0.8-4.5-1.4-8-5.7-8.7c-3-0.5-6-0.2-9.1-0.2C191.9,470.5,191.9,478.5,191.9,486.5z M196.5,466.3c1.8,0,3.6-0.5,5,1.1
	c0.8,0.9,0.8,3.1,0.2,4.2c-0.7,1.3-2.1,1.6-5.2,1.3C196.5,470.7,196.5,468.6,196.5,466.3z M170,486.5c1.6,0,3,0,4.5,0
	c0.5-1.7,0.9-3.3,1.3-4.9c2.2,0,4.3,0,6.4,0c0.4,1.7,0.8,3.3,1.2,4.9c1.5,0,2.9,0,4.4,0c-2-8.1-3.9-16.1-5.8-24.1c-2,0-3.9,0-6,0
	C174,470.4,172,478.4,170,486.5z M181.2,477.3c-1.5,0-3,0-4.5,0c0.7-3.1,1.4-6.2,2.1-9.2c0.1,0,0.2,0,0.3,0
	C179.8,471.2,180.5,474.2,181.2,477.3z M231.9,486.5c4.3,0,8.6,0,12.9,0c0.1-1.4,0.1-2.6,0-4c-2.8,0-5.5,0-8.3,0c0-2.2,0-4.2,0-6.4
	c2.1,0,4,0,6,0c0-1.4,0-2.7,0-4c-2,0-4,0-6.1,0c0-1.9,0-3.6,0-5.5c2.7,0,5.3,0,7.9,0c0-1.4,0-2.7,0-4.1c-4.2,0-8.3,0-12.5,0
	C231.9,470.5,231.9,478.5,231.9,486.5z M218.9,479.2c-1.4-5.6-2.8-11.2-4.2-16.8c-1.6,0-3,0-4.6,0c2.1,8.1,4.1,16.1,6.2,24.1
	c1.8,0,3.6,0,5.3,0c2.1-8,4.1-16,6.2-24.1c-1.6,0-3,0-4.5,0c-1.4,5.6-2.8,11.2-4.1,16.8C219.1,479.2,219,479.2,218.9,479.2z"/>
</svg>
