<?xml version="1.0" encoding="utf-8"?>
<!-- Generator: Adobe Illustrator 16.0.0, SVG Export Plug-In . SVG Version: 6.00 Build 0)  -->
<!DOCTYPE svg PUBLIC "-//W3C//DTD SVG 1.1//EN" "http://www.w3.org/Graphics/SVG/1.1/DTD/svg11.dtd">
<svg version="1.1" id="Layer_1" xmlns="http://www.w3.org/2000/svg" xmlns:xlink="http://www.w3.org/1999/xlink" x="0px" y="0px"
	 width="300px" height="597px" viewBox="50.5 399 300 597" enable-background="new 50.5 399 300 597" xml:space="preserve">
<g id="Landing">
	<g>
		<g id="APRb">
			<g>
				<path fill="#981D25" d="M73.756,421.592h28.655l22.334,93.103h-15.067l-5.517-19.238H71.063l-4.844,19.238H51.153
					L73.756,421.592z M74.294,481.461h27.041l-10.896-46.684H85.46L74.294,481.461z"/>
				<path fill="#981D25" d="M148.289,486.17v28.521h-15.203V421.59h32.424c20.047,0,31.482,10.631,31.482,31.35
					c0,20.72-11.439,33.229-31.482,33.229L148.289,486.17L148.289,486.17z M165.51,472.312c11.033,0,16.01-8.072,16.01-19.373
					c0-11.166-4.977-17.49-16.01-17.49h-17.221v36.863H165.51L165.51,472.312z"/>
				<path fill="#981D25" d="M187.371,501.104h8.881v13.591h-8.881V501.104z"/>
				<path fill="#981D25" d="M240.809,482h-17.221v32.691h-14.936V421.59h33.498c20.184,0,31.213,9.016,31.213,29.734
					c0,13.723-4.979,22.332-14.799,26.906l14.936,36.459h-16.551l-13.184-32.826L240.809,482z M242.152,435.449H223.59v33.098
					h18.834c10.357,0,15.473-7.398,15.473-16.953C257.895,441.369,251.84,435.449,242.152,435.449z"/>
				<path fill="#981D25" d="M340.77,480.25c0,24.756-9.281,35.922-32.289,35.922c-7.131,0-23.811-1.615-23.811-1.615v-94.979h14.664
					v30.002c0,0,8.342-3.498,15.875-3.498C332.428,446.078,340.77,458.188,340.77,480.25z M325.836,480.25
					c0-13.049-4.037-20.986-12.514-20.986c-7.266,0-13.99,2.287-13.99,2.287v41.168c0,0,6.457,0.672,9.146,0.672
					C322.875,503.391,325.836,493.436,325.836,480.25z"/>
			</g>
		</g>
		<g>
			<path fill="#981D25" d="M81.208,399.221h3.828l4.004,15.293h-1.914l-1.077-3.676h-5.94l-1.033,3.676h-1.914L81.208,399.221z
				 M80.527,409.078h5.127l-2.111-8.164h-0.857L80.527,409.078z"/>
			<path fill="#981D25" d="M103.469,399.221c2.729,0,4.555,1.232,4.555,3.807c0,1.959-0.683,3.037-1.894,3.634
				c1.363,0.481,2.332,1.496,2.332,3.562c0,3.062-1.979,4.291-4.752,4.291h-5.59v-15.293H103.469L103.469,399.221z M100.014,400.959
				v4.994h3.498c1.694,0,2.553-1.057,2.553-2.662c0-1.518-0.989-2.332-2.685-2.332H100.014z M100.014,407.604v5.193h3.631
				c1.629,0,2.839-0.814,2.839-2.707c0-2.045-1.869-2.486-2.927-2.486H100.014z"/>
			<path fill="#981D25" d="M123.268,408.836h-3.39v5.678h-1.891v-15.293h5.434c3.214,0,4.93,1.496,4.93,4.73
				c0,2.223-0.836,3.785-2.686,4.424l2.795,6.139h-2.112l-2.573-5.699L123.268,408.836z M123.421,401.004h-3.543v6.094h3.563
				c2.093,0,2.929-1.387,2.929-3.125C126.371,402.082,125.315,401.004,123.421,401.004z"/>
			<path fill="#981D25" d="M137.8,399.221h1.915v15.293H137.8V399.221z"/>
			<path fill="#981D25" d="M149.799,414.514v-15.293h1.894v13.51h6.271v1.783H149.799L149.799,414.514z"/>
			<path fill="#981D25" d="M169.086,409.518v4.996h-1.914v-15.293h5.348c3.234,0,4.93,1.738,4.93,4.973
				c0,3.259-1.691,5.324-4.93,5.324H169.086z M172.498,407.758c2.09,0,2.992-1.52,2.992-3.564c0-2.021-0.902-3.213-2.992-3.213
				h-3.412v6.777H172.498z"/>
			<path fill="#981D25" d="M191.938,408.836h-3.389v5.678h-1.891v-15.293h5.434c3.213,0,4.93,1.496,4.93,4.73
				c0,2.223-0.836,3.785-2.686,4.424l2.795,6.139h-2.113l-2.572-5.699L191.938,408.836z M192.092,401.004h-3.543v6.094h3.564
				c2.092,0,2.928-1.387,2.928-3.125C195.041,402.082,193.984,401.004,192.092,401.004z"/>
			<path fill="#981D25" d="M205.947,406.967c0-5.172,1.562-7.967,5.939-7.967c4.379,0,5.939,2.773,5.939,7.967
				c0,5.324-1.562,7.789-5.939,7.789C207.486,414.756,205.947,412.18,205.947,406.967z M215.848,406.967
				c0-4.137-0.99-6.205-3.961-6.205c-2.992,0-3.959,2.045-3.959,6.205c0,4.158,0.924,6.006,3.959,6.006
				C214.902,412.973,215.848,411.234,215.848,406.967z"/>
			<path fill="#981D25" d="M232.68,408.836h-3.389v5.678h-1.895v-15.293h5.438c3.213,0,4.928,1.496,4.928,4.73
				c0,2.223-0.836,3.785-2.686,4.424l2.797,6.139h-2.113l-2.574-5.699L232.68,408.836z M232.834,401.004h-3.543v6.094h3.562
				c2.09,0,2.926-1.387,2.926-3.125C235.781,402.082,234.727,401.004,232.834,401.004z"/>
			<path fill="#981D25" d="M252.33,412.906c2.287,0,3.477-0.902,3.477-3.08v-10.605h1.893v10.605c0,3.41-1.736,4.885-5.367,4.885
				c-3.521,0-5.26-1.475-5.26-4.885v-10.605h1.914v10.605C248.984,412.004,250.15,412.906,252.33,412.906z"/>
			<path fill="#981D25" d="M273.121,399.221c2.729,0,4.555,1.232,4.555,3.807c0,1.959-0.684,3.037-1.895,3.634
				c1.365,0.481,2.332,1.496,2.332,3.562c0,3.062-1.979,4.291-4.752,4.291h-5.59v-15.293H273.121L273.121,399.221z M269.664,400.959
				v4.994h3.5c1.691,0,2.551-1.057,2.551-2.662c0-1.518-0.99-2.332-2.686-2.332H269.664z M269.664,407.604v5.193h3.631
				c1.629,0,2.838-0.814,2.838-2.707c0-2.045-1.869-2.486-2.926-2.486H269.664z"/>
			<path fill="#981D25" d="M292.449,414.514h-1.893v-6.559l-4.709-8.734h2.135l3.498,6.711l3.455-6.711h2.156l-4.645,8.734
				L292.449,414.514L292.449,414.514z"/>
		</g>
	</g>
	<g id="_x3C_img_x3E__Porto">
		<g>
			<g>
				<path d="M50.5,973.125l13.156,1.293l-4.814,11.396l-4.32-0.332l-1.597,5.612l-1.459-0.137L50.5,973.125z M57.41,982.346
					l1.898-4.873h-5.944l0.854,4.652L57.41,982.346z"/>
				<path d="M83.447,975.713l-6.109,0.412l-0.659,4.707l6.771,0.494v1.897l-6.222,0.824l0.604,4.24l5.836,0.137l0.138,2.092
					l-9.331,0.688l-1.045-18.082l10.434,0.19L83.447,975.713z"/>
				<path d="M107.914,973.812l-3.771,9.688l2.753,7.02l-1.021,0.494l-6.715-5.776l-1.598,5.528l-1.927-0.106l-0.826-17.533
					L107.914,973.812z M101.253,981.354l2.34-4.896l-5.614,0.496l0.825,4.541L101.253,981.354z"/>
				<path d="M129.272,991.043l-6.716-10.211l-0.716,10.375h-1.568l-1.733-18.055h4.516l5.727,11.612l0.824-10.897l1.6-0.191
					l1.045,17.174L129.272,991.043z"/>
				<path d="M154.236,973.621l0.854,17.229l-1.514,0.357l-1.846-5.504l-5.01,0.496l-1.155,4.647l-1.155-0.137l-1.154-17.588
					L154.236,973.621z M146.721,982.84l4.515,0.193l-1.515-6.275l-1.706,0.166L146.721,982.84z"/>
				<path d="M174.52,991.098l-4.35-10.293l-0.689,10.457h-1.598l-1.732-18.137h4.541l4.871,11.531l2.119-11.201l4.32-0.33
					l1.598,17.449h-2.146l-1.955-11.531l-2.201,11.697L174.52,991.098z"/>
				<path d="M203.391,980.996l4.652,2.229l-1.68,8.146l-10.623-0.441l-1.104-17.807l10.814,0.164L203.391,980.996z M202.262,976.07
					l-5.367,0.576l1.27,3.799h2.367L202.262,976.07z M203.391,989.006l1.486-4.293l-7.129-0.908l1.236,5.062L203.391,989.006z"/>
				<path d="M229.098,973.234l0.99,17.942l-10.682-0.494l-0.688-17.53l2.146-0.027l1.898,13.734l3.275,0.575l0.492-14.2H229.098
					L229.098,973.234z"/>
				<path d="M251.887,976.621l-7.568,0.412l1.129,10.707l6.553-0.111v2.23l-9.082,1.348l-2.012-18.082l11.365,1.102L251.887,976.621
					z"/>
				<path d="M262.676,973.125h13.32l-1.871,17.258l-9.744,0.688L262.676,973.125z M267.299,987.822l4.623-0.689l1.184-10.514
					l-7.348,0.551L267.299,987.822z"/>
				<path d="M286.758,981.408c0-0.99,0.688-1.732,1.65-1.732c0.965,0,1.623,0.715,1.623,1.732c0,0.992-0.658,1.731-1.678,1.731
					C287.418,983.143,286.758,982.4,286.758,981.408z"/>
				<path d="M309.299,980.996l4.65,2.229l-1.68,8.146l-10.623-0.441l-1.102-17.807l10.812,0.164L309.299,980.996z M308.17,976.07
					l-5.367,0.576l1.27,3.799h2.365L308.17,976.07z M309.299,989.006l1.484-4.293l-7.129-0.908l1.238,5.062L309.299,989.006z"/>
				<path d="M337.701,973.812l-3.77,9.688l2.752,7.02l-1.018,0.494l-6.719-5.776l-1.598,5.528l-1.928-0.106l-0.824-17.533
					L337.701,973.812z M331.041,981.354l2.34-4.896l-5.615,0.496l0.826,4.541L331.041,981.354z"/>
			</g>
			<g id="Porto_2_">
				<path fill="none" stroke="#000000" stroke-width="3" stroke-miterlimit="10" d="M52.131,828.553l35.521,3.492l-13.006,30.766
					L62.98,861.92l-4.312,15.16l-3.938-0.373L52.131,828.553z M70.785,853.447l5.127-13.152H59.86l2.304,12.56L70.785,853.447z"/>
				<path fill="none" stroke="#000000" stroke-width="3" stroke-miterlimit="10" d="M91.516,828.553h35.967l-5.053,46.594
					l-26.308,1.859L91.516,828.553z M104,868.236l12.483-1.857l3.194-28.389l-19.842,1.483L104,868.236z"/>
				<path fill="none" stroke="#000000" stroke-width="3" stroke-miterlimit="10" d="M170.064,830.41l-10.182,26.158l7.432,18.948
					l-2.75,1.339l-18.132-15.605l-4.312,14.938l-5.201-0.297l-2.229-47.338L170.064,830.41z M152.08,850.771l6.314-13.229
					l-15.16,1.338l2.229,12.262L152.08,850.771z"/>
				<path fill="none" stroke="#000000" stroke-width="3" stroke-miterlimit="10" d="M175.043,838.438l1.41-9.659L203.801,829v6.986
					l-9.883,0.967l0.965,40.203h-11.592l3.195-39.609L175.043,838.438z"/>
				<path fill="none" stroke="#000000" stroke-width="3" stroke-miterlimit="10" d="M209.375,828.553h35.967l-5.053,46.594
					l-26.309,1.859L209.375,828.553z M221.859,868.236l12.484-1.857l3.195-28.389l-19.844,1.483L221.859,868.236z"/>
				<path fill="none" stroke="#000000" stroke-width="3" stroke-miterlimit="10" d="M270.607,824.912l35.148,17.611l-1.857,22.145
					l-31.062,15.828L270.607,824.912z M279.227,839.18l2.156,27.646l14.49-8.396l0.072-9.291L279.227,839.18z"/>
				<path fill="none" stroke="#000000" stroke-width="3" stroke-miterlimit="10" d="M337.264,835.539l-16.496,1.113l-1.781,12.709
					l18.277,1.336v5.129l-16.793,2.229l1.637,11.443l15.754,0.371l0.371,5.646l-25.189,1.857l-2.824-48.824l28.164,0.521
					L337.264,835.539z"/>
				<path fill="none" stroke="#000000" stroke-width="3" stroke-miterlimit="10" d="M85.46,896.477l-22.069,3.197l2.006,30.541
					l11.072-1.039l3.716-10.772l-9.512-1.562l-0.817-5.203h18.578l-4.015,26.011l-28.015,1.041l-4.979-48.974l34.035,0.744V896.477
					L85.46,896.477z"/>
				<path fill="none" stroke="#000000" stroke-width="3" stroke-miterlimit="10" d="M126.037,891.127l2.304,46.521l-4.087,0.969
					l-4.979-14.863l-13.523,1.338l-3.121,12.562l-3.121-0.371l-3.121-47.486L126.037,891.127z M105.748,916.021l12.188,0.521
					l-4.087-16.943l-4.606,0.445L105.748,916.021z"/>
				<path fill="none" stroke="#000000" stroke-width="3" stroke-miterlimit="10" d="M138.445,889.863h8.99l-2.822,41.541
					l13.897-2.898l0.893,8.621l-21.849,1.783L138.445,889.863z"/>
				<path fill="none" stroke="#000000" stroke-width="3" stroke-miterlimit="10" d="M171.885,889.789l2.748,48.75l-9.512-0.447
					l0.443-47.854L171.885,889.789z"/>
				<path fill="none" stroke="#000000" stroke-width="3" stroke-miterlimit="10" d="M210.674,938.166l-18.131-27.568l-1.936,28.019
					h-4.232l-4.684-48.75h12.188l15.457,31.358l2.229-29.43l4.311-0.52l2.822,46.369L210.674,938.166z"/>
				<path fill="none" stroke="#000000" stroke-width="3" stroke-miterlimit="10" d="M258.234,891.053l1.783,47.267l-4.088-0.074
					l-4.98-18.062l-14.045,1.341l-1.709,15.604l-5.127,0.224l-2.676-47.562l6.91,0.445l3.643,22.146l10.701,0.445l3.271-22.219
					L258.234,891.053z"/>
				<path fill="none" stroke="#000000" stroke-width="3" stroke-miterlimit="10" d="M298.438,891.127l2.305,46.521l-4.088,0.969
					l-4.979-14.863l-13.525,1.338l-3.121,12.562l-3.121-0.371l-3.119-47.486L298.438,891.127z M278.148,916.021l12.189,0.521
					l-4.086-16.943l-4.607,0.445L278.148,916.021z"/>
				<path fill="none" stroke="#000000" stroke-width="3" stroke-miterlimit="10" d="M319.168,912.455l18.279-1.562l0.969,27.271
					l-28.24,0.447l0.447-4.236l17.463-3.789l0.893-10.33l-17.908,1.486l-1.781-31.955l25.34,0.443l-0.445,6.614l-16.424,1.783
					L319.168,912.455z"/>
			</g>
			<g>
				<polygon points="50.692,958.164 180.049,959.604 178.604,956.852 51.514,956.852 				"/>
			</g>
			<g>
				<polygon points="336.391,958.291 207.031,956.852 208.479,959.604 335.568,959.604 				"/>
			</g>
			<g>
				<polygon points="185.709,955.633 190.043,953.578 198.521,953.578 200.578,956.852 193.244,965.139 				"/>
			</g>
			<g>
				<polygon points="50.692,809.164 180.049,810.604 178.604,807.852 51.514,807.852 				"/>
			</g>
			<g>
				<polygon points="336.391,809.293 207.031,807.852 208.479,810.604 335.568,810.604 				"/>
			</g>
			<g>
				<polygon points="185.709,806.633 190.043,804.578 198.521,804.578 200.578,807.852 193.244,816.139 				"/>
			</g>
			<g>
				<path d="M63.669,778.33l0.662,17.506l-1.516-0.027l-1.846-6.688l-5.2,0.494l-0.634,5.781l-1.898,0.082l-0.991-17.615
					l2.561,0.166l1.349,8.201l3.963,0.166l1.211-8.23L63.669,778.33z"/>
				<path d="M75.917,777.863H89.24l-1.873,17.258l-9.742,0.688L75.917,777.863z M80.542,792.561l4.623-0.688l1.185-10.514
					L79,781.908L80.542,792.561z"/>
				<path d="M100.055,781.521l0.522-3.576l10.129,0.082v2.588l-3.66,0.354l0.357,14.894h-4.295l1.186-14.67L100.055,781.521z"/>
				<path d="M131.68,780.451l-6.108,0.412l-0.66,4.707l6.771,0.494v1.897l-6.223,0.824l0.604,4.24l5.837,0.137l0.137,2.092
					l-9.33,0.688l-1.045-18.082l10.433,0.19L131.68,780.451z"/>
				<path d="M144.037,777.891h3.33l-1.045,15.388l5.147-1.072l0.33,3.188l-8.092,0.662L144.037,777.891z"/>
				<path d="M188.324,778.359l0.854,17.229l-1.516,0.357l-1.846-5.506l-5.01,0.495l-1.152,4.65l-1.156-0.137l-1.156-17.588
					L188.324,778.359z M180.809,787.578l4.516,0.19l-1.516-6.272l-1.707,0.166L180.809,787.578z"/>
				<path d="M213.973,778.551l-3.771,9.689l2.754,7.018l-1.02,0.496l-6.717-5.781l-1.598,5.533l-1.928-0.111l-0.824-17.528
					L213.973,778.551z M207.312,786.092l2.342-4.896l-5.615,0.494l0.826,4.541L207.312,786.092z"/>
				<path d="M233.57,795.836l-4.35-10.293L228.533,796h-1.598l-1.732-18.137h4.541l4.871,11.528l2.119-11.198l4.32-0.33
					l1.598,17.446h-2.146l-1.955-11.528l-2.201,11.694L233.57,795.836z"/>
				<path d="M265.166,778.359l0.854,17.229l-1.514,0.357l-1.846-5.506l-5.01,0.495l-1.156,4.65l-1.154-0.137l-1.156-17.588
					L265.166,778.359z M257.652,787.578l4.516,0.19l-1.516-6.272l-1.707,0.166L257.652,787.578z"/>
				<path d="M288.285,781.359l-7.566,0.409l1.127,10.707l6.551-0.108v2.229l-2.918,0.385l-0.164,2.48l-2.199,0.219l-0.604-2.311
					l-3.193,0.578l-2.01-18.084l11.367,1.102L288.285,781.359z"/>
				<path d="M311.018,795.588l-1.514,0.357l-1.846-5.506l-5.008,0.495l-1.156,4.65l-1.154-0.137l-1.156-17.095h10.982
					L311.018,795.588z M301.055,775.633l5.945,0.881l2.891-1.871L309.092,772l-2.615,1.762l-5.201,0.082L301.055,775.633z
					 M307.166,787.771l-1.516-6.275l-1.707,0.166l-1.293,5.918L307.166,787.771z"/>
				<path d="M322.414,777.863h13.318l-1.871,17.258l-9.744,0.688L322.414,777.863z M327.037,792.561l4.623-0.688l1.186-10.514
					l-7.35,0.549L327.037,792.561z"/>
			</g>
		</g>
		<g>
			<g>
				<path fill="#FFFFFF" d="M50.5,972.125l13.156,1.293l-4.814,11.396l-4.32-0.332l-1.597,5.612l-1.459-0.137L50.5,972.125z
					 M57.41,981.346l1.898-4.873h-5.944l0.854,4.652L57.41,981.346z"/>
				<path fill="#FFFFFF" d="M83.447,974.713l-6.109,0.412l-0.659,4.707l6.771,0.494v1.897l-6.222,0.824l0.604,4.24l5.836,0.137
					l0.138,2.092l-9.331,0.688l-1.045-18.082l10.434,0.19L83.447,974.713z"/>
				<path fill="#FFFFFF" d="M107.914,972.812l-3.771,9.688l2.753,7.02l-1.021,0.494l-6.715-5.776l-1.598,5.528l-1.927-0.106
					l-0.826-17.533L107.914,972.812z M101.253,980.354l2.34-4.896l-5.614,0.496l0.825,4.541L101.253,980.354z"/>
				<path fill="#FFFFFF" d="M129.272,990.043l-6.716-10.211l-0.716,10.375h-1.568l-1.733-18.055h4.516l5.727,11.612l0.824-10.897
					l1.6-0.191l1.045,17.174L129.272,990.043z"/>
				<path fill="#FFFFFF" d="M154.236,972.621l0.854,17.229l-1.514,0.357l-1.846-5.504l-5.01,0.496l-1.155,4.647l-1.155-0.137
					l-1.154-17.588L154.236,972.621z M146.721,981.84l4.515,0.193l-1.515-6.275l-1.706,0.166L146.721,981.84z"/>
				<path fill="#FFFFFF" d="M174.52,990.098l-4.35-10.293l-0.689,10.457h-1.598l-1.732-18.137h4.541l4.871,11.531l2.119-11.201
					l4.32-0.33l1.598,17.449h-2.146l-1.955-11.531l-2.201,11.697L174.52,990.098z"/>
				<path fill="#FFFFFF" d="M203.391,979.996l4.652,2.229l-1.68,8.146l-10.623-0.441l-1.104-17.807l10.814,0.164L203.391,979.996z
					 M202.262,975.07l-5.367,0.576l1.27,3.799h2.367L202.262,975.07z M203.391,988.006l1.486-4.293l-7.129-0.908l1.236,5.062
					L203.391,988.006z"/>
				<path fill="#FFFFFF" d="M229.098,972.234l0.99,17.942l-10.682-0.494l-0.688-17.53l2.146-0.027l1.898,13.734l3.275,0.575
					l0.492-14.2H229.098L229.098,972.234z"/>
				<path fill="#FFFFFF" d="M251.887,975.621l-7.568,0.412l1.129,10.707l6.553-0.111v2.23l-9.082,1.348l-2.012-18.082l11.365,1.102
					L251.887,975.621z"/>
				<path fill="#FFFFFF" d="M262.676,972.125h13.32l-1.871,17.258l-9.744,0.688L262.676,972.125z M267.299,986.822l4.623-0.689
					l1.184-10.514l-7.348,0.551L267.299,986.822z"/>
				<path fill="#FFFFFF" d="M286.758,980.408c0-0.99,0.688-1.732,1.65-1.732c0.965,0,1.623,0.715,1.623,1.732
					c0,0.992-0.658,1.731-1.678,1.731C287.418,982.143,286.758,981.4,286.758,980.408z"/>
				<path fill="#FFFFFF" d="M309.299,979.996l4.65,2.229l-1.68,8.146l-10.623-0.441l-1.102-17.807l10.812,0.164L309.299,979.996z
					 M308.17,975.07l-5.367,0.576l1.27,3.799h2.365L308.17,975.07z M309.299,988.006l1.484-4.293l-7.129-0.908l1.238,5.062
					L309.299,988.006z"/>
				<path fill="#FFFFFF" d="M337.701,972.812l-3.77,9.688l2.752,7.02l-1.018,0.494l-6.719-5.776l-1.598,5.528l-1.928-0.106
					l-0.824-17.533L337.701,972.812z M331.041,980.354l2.34-4.896l-5.615,0.496l0.826,4.541L331.041,980.354z"/>
			</g>
			<g id="Porto_1_">
				<path fill="none" stroke="#FFFFFF" stroke-width="3" stroke-miterlimit="10" d="M52.131,827.553l35.521,3.492l-13.006,30.766
					L62.98,860.92l-4.312,15.16l-3.938-0.373L52.131,827.553z M70.785,852.447l5.127-13.152H59.86l2.304,12.56L70.785,852.447z"/>
				<path fill="none" stroke="#FFFFFF" stroke-width="3" stroke-miterlimit="10" d="M91.516,827.553h35.967l-5.053,46.594
					l-26.308,1.859L91.516,827.553z M104,867.236l12.483-1.857l3.194-28.389l-19.842,1.483L104,867.236z"/>
				<path fill="none" stroke="#FFFFFF" stroke-width="3" stroke-miterlimit="10" d="M170.064,829.41l-10.182,26.158l7.432,18.948
					l-2.75,1.339l-18.132-15.605l-4.312,14.938l-5.201-0.297l-2.229-47.338L170.064,829.41z M152.08,849.771l6.314-13.229
					l-15.16,1.338l2.229,12.262L152.08,849.771z"/>
				<path fill="none" stroke="#FFFFFF" stroke-width="3" stroke-miterlimit="10" d="M175.043,837.438l1.41-9.659L203.801,828v6.986
					l-9.883,0.967l0.965,40.203h-11.592l3.195-39.609L175.043,837.438z"/>
				<path fill="none" stroke="#FFFFFF" stroke-width="3" stroke-miterlimit="10" d="M209.375,827.553h35.967l-5.053,46.594
					l-26.309,1.859L209.375,827.553z M221.859,867.236l12.484-1.857l3.195-28.389l-19.844,1.483L221.859,867.236z"/>
				<path fill="none" stroke="#FFFFFF" stroke-width="3" stroke-miterlimit="10" d="M270.607,823.912l35.148,17.611l-1.857,22.145
					l-31.062,15.828L270.607,823.912z M279.227,838.18l2.156,27.646l14.49-8.396l0.072-9.291L279.227,838.18z"/>
				<path fill="none" stroke="#FFFFFF" stroke-width="3" stroke-miterlimit="10" d="M337.264,834.539l-16.496,1.113l-1.781,12.709
					l18.277,1.336v5.129l-16.793,2.229l1.637,11.443l15.754,0.371l0.371,5.646l-25.189,1.857l-2.824-48.824l28.164,0.521
					L337.264,834.539z"/>
				<path fill="none" stroke="#FFFFFF" stroke-width="3" stroke-miterlimit="10" d="M85.46,895.477l-22.069,3.197l2.006,30.541
					l11.072-1.039l3.716-10.772l-9.512-1.562l-0.817-5.203h18.578l-4.015,26.011l-28.015,1.041l-4.979-48.974l34.035,0.744V895.477
					L85.46,895.477z"/>
				<path fill="none" stroke="#FFFFFF" stroke-width="3" stroke-miterlimit="10" d="M126.037,890.127l2.304,46.521l-4.087,0.969
					l-4.979-14.863l-13.523,1.338l-3.121,12.562l-3.121-0.371l-3.121-47.486L126.037,890.127z M105.748,915.021l12.188,0.521
					l-4.087-16.943l-4.606,0.445L105.748,915.021z"/>
				<path fill="none" stroke="#FFFFFF" stroke-width="3" stroke-miterlimit="10" d="M138.445,888.863h8.99l-2.822,41.541
					l13.897-2.898l0.893,8.621l-21.849,1.783L138.445,888.863z"/>
				<path fill="none" stroke="#FFFFFF" stroke-width="3" stroke-miterlimit="10" d="M171.885,888.789l2.748,48.75l-9.512-0.447
					l0.443-47.854L171.885,888.789z"/>
				<path fill="none" stroke="#FFFFFF" stroke-width="3" stroke-miterlimit="10" d="M210.674,937.166l-18.131-27.568l-1.936,28.019
					h-4.232l-4.684-48.75h12.188l15.457,31.358l2.229-29.43l4.311-0.52l2.822,46.369L210.674,937.166z"/>
				<path fill="none" stroke="#FFFFFF" stroke-width="3" stroke-miterlimit="10" d="M258.234,890.053l1.783,47.267l-4.088-0.074
					l-4.98-18.062l-14.045,1.341l-1.709,15.604l-5.127,0.224l-2.676-47.562l6.91,0.445l3.643,22.146l10.701,0.445l3.271-22.219
					L258.234,890.053z"/>
				<path fill="none" stroke="#FFFFFF" stroke-width="3" stroke-miterlimit="10" d="M298.438,890.127l2.305,46.521l-4.088,0.969
					l-4.979-14.863l-13.525,1.338l-3.121,12.562l-3.121-0.371l-3.119-47.486L298.438,890.127z M278.148,915.021l12.189,0.521
					l-4.086-16.943l-4.607,0.445L278.148,915.021z"/>
				<path fill="none" stroke="#FFFFFF" stroke-width="3" stroke-miterlimit="10" d="M319.168,911.455l18.279-1.562l0.969,27.271
					l-28.24,0.447l0.447-4.236l17.463-3.789l0.893-10.33l-17.908,1.486l-1.781-31.955l25.34,0.443l-0.445,6.614l-16.424,1.783
					L319.168,911.455z"/>
			</g>
			<g id="_x2014__x__x__x2014__3_">
				<g>
					<polygon fill="#FFFFFF" points="50.692,957.164 180.049,958.604 178.604,955.852 51.514,955.852 					"/>
				</g>
				<g>
					<polygon fill="#FFFFFF" points="336.391,957.291 207.031,955.852 208.479,958.604 335.568,958.604 					"/>
				</g>
				<g>
					<polygon fill="#FFFFFF" points="185.709,954.633 190.043,952.578 198.521,952.578 200.578,955.852 193.244,964.139 					"/>
				</g>
			</g>
			<g id="_x2014__x__x__x2014__2_">
				<g>
					<polygon fill="#FFFFFF" points="50.692,808.164 180.049,809.604 178.604,806.852 51.514,806.852 					"/>
				</g>
				<g>
					<polygon fill="#FFFFFF" points="336.391,808.293 207.031,806.852 208.479,809.604 335.568,809.604 					"/>
				</g>
				<g>
					<polygon fill="#FFFFFF" points="185.709,805.633 190.043,803.578 198.521,803.578 200.578,806.852 193.244,815.139 					"/>
				</g>
			</g>
			<g>
				<path fill="#FFFFFF" d="M63.669,777.33l0.662,17.506l-1.516-0.027l-1.846-6.688l-5.2,0.494l-0.634,5.781l-1.898,0.082
					l-0.991-17.615l2.561,0.166l1.349,8.201l3.963,0.166l1.211-8.23L63.669,777.33z"/>
				<path fill="#FFFFFF" d="M75.917,776.863H89.24l-1.873,17.258l-9.742,0.688L75.917,776.863z M80.542,791.561l4.623-0.688
					l1.185-10.514L79,780.908L80.542,791.561z"/>
				<path fill="#FFFFFF" d="M100.055,780.521l0.522-3.576l10.129,0.082v2.588l-3.66,0.354l0.357,14.894h-4.295l1.186-14.67
					L100.055,780.521z"/>
				<path fill="#FFFFFF" d="M131.68,779.451l-6.108,0.412l-0.66,4.707l6.771,0.494v1.897l-6.223,0.824l0.604,4.24l5.837,0.137
					l0.137,2.092l-9.33,0.688l-1.045-18.082l10.433,0.19L131.68,779.451z"/>
				<path fill="#FFFFFF" d="M144.037,776.891h3.33l-1.045,15.388l5.147-1.072l0.33,3.188l-8.092,0.662L144.037,776.891z"/>
				<path fill="#FFFFFF" d="M188.324,777.359l0.854,17.229l-1.516,0.357l-1.846-5.506l-5.01,0.495l-1.152,4.65l-1.156-0.137
					l-1.156-17.588L188.324,777.359z M180.809,786.578l4.516,0.19l-1.516-6.272l-1.707,0.166L180.809,786.578z"/>
				<path fill="#FFFFFF" d="M213.973,777.551l-3.771,9.689l2.754,7.018l-1.02,0.496l-6.717-5.781l-1.598,5.533l-1.928-0.111
					l-0.824-17.528L213.973,777.551z M207.312,785.092l2.342-4.896l-5.615,0.494l0.826,4.541L207.312,785.092z"/>
				<path fill="#FFFFFF" d="M233.57,794.836l-4.35-10.293L228.533,795h-1.598l-1.732-18.137h4.541l4.871,11.528l2.119-11.198
					l4.32-0.33l1.598,17.446h-2.146l-1.955-11.528l-2.201,11.694L233.57,794.836z"/>
				<path fill="#FFFFFF" d="M265.166,777.359l0.854,17.229l-1.514,0.357l-1.846-5.506l-5.01,0.495l-1.156,4.65l-1.154-0.137
					l-1.156-17.588L265.166,777.359z M257.652,786.578l4.516,0.19l-1.516-6.272l-1.707,0.166L257.652,786.578z"/>
				<path fill="#FFFFFF" d="M288.285,780.359l-7.566,0.409l1.127,10.707l6.551-0.108v2.229l-2.918,0.385l-0.164,2.48l-2.199,0.219
					l-0.604-2.311l-3.193,0.578l-2.01-18.084l11.367,1.102L288.285,780.359z"/>
				<path fill="#FFFFFF" d="M311.018,794.588l-1.514,0.357l-1.846-5.506l-5.008,0.495l-1.156,4.65l-1.154-0.137l-1.156-17.095
					h10.982L311.018,794.588z M301.055,774.633l5.945,0.881l2.891-1.871L309.092,771l-2.615,1.762l-5.201,0.082L301.055,774.633z
					 M307.166,786.771l-1.516-6.275l-1.707,0.166l-1.293,5.918L307.166,786.771z"/>
				<path fill="#FFFFFF" d="M322.414,776.863h13.318l-1.871,17.258l-9.744,0.688L322.414,776.863z M327.037,791.561l4.623-0.688
					l1.186-10.514l-7.35,0.549L327.037,791.561z"/>
			</g>
		</g>
	</g>
	<g id="_x32_014-en">
		<g>
			<path fill="#FFF7BD" d="M52.139,614.037v-4.822l33.192-33.902c10.922-11.061,18.297-19.854,18.297-32.34
				c0-14.326-9.077-19.147-23.403-19.147c-9.787,0-26.666,3.688-26.666,3.688l-0.709-4.821c0,0,15.744-3.688,27.519-3.688
				c17.162,0,28.651,6.24,28.651,23.971c0,15.181-9.221,25.107-18.155,34.043l-31.771,32.062H112v4.965L52.139,614.037
				L52.139,614.037z"/>
			<path fill="#FFF7BD" d="M190.16,569.498c0,36.17-13.477,45.814-32.199,45.814c-18.721,0-32.34-9.646-32.34-46.103
				c0-40.566,13.189-50.213,32.196-50.213C177.676,519,190.16,528.93,190.16,569.498z M131.008,569.498
				c0,33.475,10.78,40.992,26.951,40.992c16.17,0,26.809-7.521,26.809-41.277c0-36.311-9.359-45.391-26.949-45.391
				C140.656,523.822,131.008,532.477,131.008,569.498z"/>
			<path fill="#FFF7BD" d="M237.963,520.418h5.105v93.619h-5.105v-88.086l-26.102,17.873l-2.412-4.115L237.963,520.418z"/>
			<path fill="#FFF7BD" d="M324.209,595.312h-47.096v-4.257l30.641-70.641h5.531l-30.07,70.072h40.994v-33.9h5.104v33.9h13.051
				v4.819h-13.051v18.728h-5.104V595.312L324.209,595.312z"/>
		</g>
		<g>
			<path fill="#FFF7BD" d="M70.474,623.66h3.828l4.005,15.291h-1.915l-1.078-3.674h-5.941l-1.034,3.674h-1.914L70.474,623.66z
				 M69.792,633.518h5.126l-2.112-8.164h-0.858L69.792,633.518z"/>
			<path fill="#FFF7BD" d="M89.301,633.957v4.994h-1.914V623.66h5.347c3.234,0,4.929,1.738,4.929,4.973
				c0,3.256-1.694,5.324-4.929,5.324H89.301z M92.712,632.197c2.09,0,2.992-1.52,2.992-3.564c0-2.025-0.902-3.213-2.992-3.213
				h-3.411v6.777H92.712z"/>
			<path fill="#FFF7BD" d="M112.153,633.275h-3.389v5.676h-1.892V623.66h5.435c3.212,0,4.929,1.496,4.929,4.73
				c0,2.222-0.836,3.784-2.684,4.422l2.794,6.139h-2.112l-2.574-5.698L112.153,633.275z M112.307,625.441h-3.542v6.096h3.564
				c2.09,0,2.927-1.387,2.927-3.125C115.255,626.52,114.199,625.441,112.307,625.441z"/>
			<path fill="#FFF7BD" d="M126.685,623.66h1.915v15.291h-1.915V623.66z"/>
			<path fill="#FFF7BD" d="M138.684,638.951V623.66h1.892v13.51h6.271v1.781H138.684z"/>
			<path fill="#FFF7BD" d="M167.328,638.951v-1.716l4.137-4.159c1.781-1.804,2.859-3.058,2.859-4.73
				c0-1.672-1.055-2.332-2.947-2.332c-1.52,0-3.807,0.463-3.807,0.463l-0.133-1.717c0,0,2.398-0.572,4.336-0.572
				c2.881,0,4.531,1.211,4.531,3.938c0,2.311-1.055,3.675-2.881,5.501l-3.588,3.521h6.822v1.804H167.328z"/>
			<path fill="#FFF7BD" d="M191.793,636.334h-6.689v-1.541l4.225-10.363h2.068l-4.092,10.121h4.488v-4.532h1.914v4.532h1.693v1.783
				h-1.693v2.728h-1.914V636.334z"/>
			<path fill="#FFF7BD" d="M205.199,628.185v2.938c0,1.207,0.166,1.668,0.859,1.668c0.359,0,1.027-0.064,1.027-0.064l0.051,0.898
				c0,0-0.758,0.142-1.207,0.142c-1.295,0-1.809-0.642-1.809-2.361v-3.221h-0.859v-0.962h0.859v-1.951h1.078v1.951h1.861v0.962
				H205.199z"/>
			<path fill="#FFF7BD" d="M212.4,633.625v-9.175h1.092v3.042c0,0,1.027-0.411,1.809-0.411c1.707,0,2.156,1.052,2.156,3.195v3.349
				h-1.09v-3.336c0-1.45-0.18-2.221-1.246-2.221c-0.719,0-1.629,0.348-1.629,0.348v5.209H212.4z"/>
			<path fill="#FFF7BD" d="M238.066,629.623v5.038c0,2.068,0.285,2.86,1.473,2.86c0.617,0,1.762-0.109,1.762-0.109l0.088,1.539
				c0,0-1.299,0.242-2.068,0.242c-2.223,0-3.104-1.1-3.104-4.049v-5.521h-1.473v-1.65h1.473v-3.346h1.85v3.346h3.189v1.65H238.066z"
				/>
			<path fill="#FFF7BD" d="M258.939,633.363c0,3.52-1.012,5.83-4.619,5.83c-3.654,0-4.688-2.178-4.688-5.853
				c0-3.521,1.145-5.61,4.688-5.61C257.709,627.73,258.939,629.887,258.939,633.363z M257.049,633.363
				c0-2.553-0.705-4.005-2.729-4.005c-2.135,0-2.773,1.343-2.773,3.982c0,2.685,0.439,4.225,2.773,4.225
				C256.631,637.565,257.049,635.893,257.049,633.363z"/>
			<path fill="#FFF7BD" d="M279.596,638.951v-1.716l4.137-4.159c1.783-1.804,2.861-3.058,2.861-4.73
				c0-1.672-1.057-2.332-2.949-2.332c-1.518,0-3.807,0.463-3.807,0.463l-0.131-1.717c0,0,2.398-0.572,4.334-0.572
				c2.883,0,4.533,1.211,4.533,3.938c0,2.311-1.057,3.675-2.883,5.501l-3.586,3.521h6.82v1.804H279.596z"/>
			<path fill="#FFF7BD" d="M297.553,624.43h8.824v2.553l-5.457,12.277l-1.783-0.551l5.26-11.814v-0.66h-6.844V624.43z"/>
			<path fill="#FFF7BD" d="M315.82,628.185v2.938c0,1.207,0.166,1.668,0.859,1.668c0.359,0,1.027-0.064,1.027-0.064l0.051,0.898
				c0,0-0.758,0.142-1.207,0.142c-1.295,0-1.809-0.642-1.809-2.361v-3.221h-0.859v-0.962h0.859v-1.951h1.078v1.951h1.859v0.962
				H315.82z"/>
			<path fill="#FFF7BD" d="M323.021,633.625v-9.175h1.092v3.042c0,0,1.025-0.411,1.809-0.411c1.707,0,2.156,1.052,2.156,3.195v3.349
				h-1.09v-3.336c0-1.45-0.18-2.221-1.246-2.221c-0.719,0-1.629,0.348-1.629,0.348v5.209H323.021z"/>
		</g>
	</g>
	<g id="_x32_014-en_1_">
		<g>
			<path fill="#FFF7BD" d="M52.139,736.037v-4.822l33.192-33.902c10.922-11.061,18.297-19.854,18.297-32.34
				c0-14.326-9.077-19.147-23.403-19.147c-9.787,0-26.666,3.688-26.666,3.688l-0.709-4.821c0,0,15.744-3.688,27.519-3.688
				c17.162,0,28.651,6.24,28.651,23.971c0,15.181-9.221,25.107-18.155,34.043l-31.771,32.062H112v4.965L52.139,736.037
				L52.139,736.037z"/>
			<path fill="#FFF7BD" d="M190.16,691.498c0,36.17-13.477,45.814-32.199,45.814c-18.721,0-32.34-9.646-32.34-46.103
				c0-40.565,13.189-50.213,32.196-50.213C177.676,641,190.16,650.93,190.16,691.498z M131.008,691.498
				c0,33.475,10.78,40.992,26.951,40.992c16.17,0,26.809-7.521,26.809-41.277c0-36.311-9.359-45.391-26.949-45.391
				C140.656,645.822,131.008,654.477,131.008,691.498z"/>
			<path fill="#FFF7BD" d="M237.963,642.418h5.105v93.619h-5.105v-88.086l-26.102,17.873l-2.412-4.115L237.963,642.418z"/>
			<path fill="#FFF7BD" d="M324.209,717.312h-47.096v-4.257l30.641-70.641h5.531l-30.07,70.072h40.994v-33.9h5.104v33.9h13.051
				v4.819h-13.051v18.728h-5.104V717.312L324.209,717.312z"/>
		</g>
		<g>
			<path fill="#FFF7BD" d="M70.158,761.173v-1.716l4.137-4.159c1.782-1.804,2.86-3.058,2.86-4.73c0-1.672-1.057-2.332-2.948-2.332
				c-1.519,0-3.807,0.463-3.807,0.463l-0.133-1.717c0,0,2.398-0.572,4.335-0.572c2.883,0,4.533,1.211,4.533,3.938
				c0,2.311-1.057,3.675-2.883,5.501l-3.587,3.521h6.821v1.804H70.158z"/>
			<path fill="#FFF7BD" d="M94.623,758.556h-6.689v-1.541l4.225-10.363h2.068l-4.093,10.121h4.489v-4.532h1.914v4.532h1.694v1.783
				h-1.694v2.728h-1.914V758.556z"/>
			<path fill="#FFF7BD" d="M126.875,758.753c0.176,0.727,0.572,0.946,1.254,1.057l-0.11,1.584c-1.342,0-2.068-0.264-2.684-0.836
				c0,0-1.717,0.857-3.609,0.857c-1.848,0-3.19-1.363-3.19-3.41c0-2.112,1.276-3.125,3.433-3.301l3.059-0.285v-0.881
				c0-1.275-0.594-1.87-1.716-1.87c-1.849,0-4.159,0.286-4.159,0.286l-0.065-1.562c0,0,2.618-0.439,4.312-0.439
				c2.288,0,3.477,1.078,3.477,3.607V758.753z M122.166,756.069c-1.21,0.088-1.738,0.857-1.738,1.892c0,1.078,0.616,1.87,1.519,1.87
				c1.54,0,3.08-0.616,3.08-0.616v-3.366L122.166,756.069z"/>
			<path fill="#FFF7BD" d="M148.323,761.173v-1.716l4.137-4.159c1.782-1.804,2.86-3.058,2.86-4.73c0-1.672-1.056-2.332-2.948-2.332
				c-1.519,0-3.807,0.463-3.807,0.463l-0.133-1.717c0,0,2.398-0.572,4.335-0.572c2.883,0,4.533,1.211,4.533,3.938
				c0,2.311-1.056,3.675-2.882,5.501l-3.588,3.521h6.822v1.804H148.323z"/>
			<path fill="#FFF7BD" d="M166.28,746.651h8.823v2.553l-5.457,12.277l-1.782-0.551l5.259-11.814v-0.66h-6.843V746.651z"/>
			<path fill="#FFF7BD" d="M205.089,761.173h-1.849v-0.615c0,0-1.562,0.836-3.015,0.836c-2.883,0-3.938-2.201-3.938-5.699
				c0-3.762,1.452-5.742,4.532-5.742c0.925,0,2.135,0.242,2.421,0.285v-4.797h1.849V761.173z M203.24,759.017v-7.195
				c-0.286-0.043-1.408-0.219-2.31-0.219c-1.959,0-2.773,1.451-2.773,4.137c0,2.42,0.639,3.982,2.332,3.982
				C201.722,759.722,203.24,759.017,203.24,759.017z"/>
			<path fill="#FFF7BD" d="M222.952,759.567l0.045,1.43c0,0-2.18,0.418-4.094,0.418c-3.277,0-4.444-2.111-4.444-5.654
				c0-3.873,1.694-5.809,4.555-5.809s4.379,1.716,4.379,5.104l-0.11,1.386h-6.931c0,1.893,0.659,3.322,2.685,3.322
				C220.599,759.765,222.952,759.567,222.952,759.567z M221.522,754.99c0-2.397-0.793-3.454-2.509-3.454
				c-1.694,0-2.662,1.1-2.685,3.454H221.522z"/>
			<path fill="#FFF7BD" d="M247.591,745.882h3.828l4.006,15.291h-1.915l-1.078-3.674h-5.94l-1.035,3.674h-1.914L247.591,745.882z
				 M246.909,755.739h5.127l-2.113-8.164h-0.857L246.909,755.739z"/>
			<path fill="#FFF7BD" d="M269.851,745.882c2.729,0,4.555,1.231,4.555,3.806c0,1.958-0.682,3.036-1.893,3.631
				c1.365,0.483,2.332,1.496,2.332,3.564c0,3.058-1.98,4.29-4.752,4.29h-5.59v-15.291H269.851z M266.396,747.62v4.994h3.498
				c1.695,0,2.553-1.057,2.553-2.662c0-1.519-0.99-2.332-2.684-2.332H266.396z M266.396,754.265v5.192h3.631
				c1.629,0,2.838-0.813,2.838-2.706c0-2.047-1.869-2.486-2.926-2.486H266.396z"/>
			<path fill="#FFF7BD" d="M289.651,755.497h-3.389v5.676h-1.893v-15.291h5.436c3.211,0,4.928,1.496,4.928,4.73
				c0,2.222-0.836,3.784-2.684,4.422l2.793,6.139h-2.111l-2.574-5.698L289.651,755.497z M289.806,747.663h-3.543v6.096h3.564
				c2.09,0,2.926-1.387,2.926-3.125C292.753,748.741,291.696,747.663,289.806,747.663z"/>
			<path fill="#FFF7BD" d="M304.183,745.882h1.914v15.291h-1.914V745.882z"/>
			<path fill="#FFF7BD" d="M316.181,761.173v-15.291h1.893v13.51h6.271v1.781H316.181z"/>
		</g>
	</g>
</g>
</svg>
